SplineFontDB: 3.0
FontName: MerriweatherSans-Italic
FullName: Merriweather Sans Italic
FamilyName: Merriweather Sans
Weight: Book
Copyright: Copyright (c) 2013, Sorkin Type Co (www.sorkintype.com) with Reserved Font Name 'Merriweather'
Version: 1.000
ItalicAngle: -7
UnderlinePosition: -88
UnderlineWidth: 201
Ascent: 1638
Descent: 410
LayerCount: 2
Layer: 0 1 "Back"  1
Layer: 1 1 "Fore"  0
NeedsXUIDChange: 1
XUID: [1021 631 1661839179 16291682]
FSType: 0
OS2Version: 3
OS2_WeightWidthSlopeOnly: 0
OS2_UseTypoMetrics: 1
CreationTime: 1367324220
ModificationTime: 1367308537
PfmFamily: 17
TTFWeight: 400
TTFWidth: 5
LineGap: 0
VLineGap: 0
Panose: 2 0 8 3 6 0 0 9 0 4
OS2TypoAscent: 376
OS2TypoAOffset: 1
OS2TypoDescent: -150
OS2TypoDOffset: 1
OS2TypoLinegap: 0
OS2WinAscent: 12
OS2WinAOffset: 1
OS2WinDescent: 0
OS2WinDOffset: 1
HheadAscent: 12
HheadAOffset: 1
HheadDescent: 0
HheadDOffset: 1
OS2SubXSize: 2726
OS2SubYSize: 2517
OS2SubXOff: 0
OS2SubYOff: 315
OS2SupXSize: 2726
OS2SupYSize: 2517
OS2SupXOff: 0
OS2SupYOff: 1468
OS2StrikeYSize: 102
OS2StrikeYPos: 512
OS2FamilyClass: 512
OS2Vendor: 'STC '
OS2CodePages: 20000093.00000000
OS2UnicodeRanges: a00000af.5000204b.00000000.00000000
Lookup: 1 0 0 "'aalt' Access All Alternates in Latin lookup 0"  {"'aalt' Access All Alternates in Latin lookup 0 subtable"  } ['aalt' ('DFLT' <'dflt' > 'latn' <'AZE ' 'CRT ' 'MOL ' 'ROM ' 'TRK ' 'dflt' > ) ]
Lookup: 3 0 0 "'aalt' Access All Alternates in Latin lookup 1"  {"'aalt' Access All Alternates in Latin lookup 1 subtable"  } ['aalt' ('DFLT' <'dflt' > 'latn' <'AZE ' 'CRT ' 'MOL ' 'ROM ' 'TRK ' 'dflt' > ) ]
Lookup: 1 0 0 "'locl' Localized Forms lookup 2"  {"'locl' Localized Forms lookup 2 subtable"  } ['locl' ('DFLT' <'AZE ' > ) ]
Lookup: 1 0 0 "'locl' Localized Forms lookup 3"  {"'locl' Localized Forms lookup 3 subtable"  } ['locl' ('DFLT' <'TRK ' > ) ]
Lookup: 4 0 0 "'locl' Localized Forms lookup 4"  {"'locl' Localized Forms lookup 4 subtable"  } ['locl' ('DFLT' <'TRK ' > ) ]

StartChar: .notdef
Encoding: 65536 -1 0
Width: 1872
Flags: HW
LayerCount: 2
Fore
SplineSet
228 1416 m 1,0,-1
 1644 1416 l 1,1,-1
 1644 0 l 1,2,-1
 228 0 l 1,3,-1
 228 1416 l 1,0,-1
586 219 m 1,4,-1
 933 587 l 1,5,-1
 1295 219 l 1,6,-1
 1417 341 l 1,7,-1
 1054 709 l 1,8,-1
 1417 1067 l 1,9,-1
 1289 1191 l 1,10,-1
 937 825 l 1,11,-1
 580 1193 l 1,12,-1
 457 1068 l 1,13,-1
 816 705 l 1,14,-1
 458 363 l 1,15,-1
 586 219 l 1,4,-1
EndSplineSet
EndChar

StartChar: numbersign
Encoding: 35 35 4
Width: 1405
Flags: HW
LayerCount: 2
Fore
SplineSet
325 365 m 1,0,-1
 111 365 l 1,1,-1
 119 493 l 1,2,-1
 345 493 l 1,3,-1
 409 898 l 1,4,-1
 189 898 l 1,5,-1
 197 1025 l 1,6,-1
 429 1025 l 1,7,-1
 482 1357 l 1,8,-1
 647 1357 l 1,9,-1
 596 1025 l 1,10,-1
 907 1025 l 1,11,-1
 963 1357 l 1,12,-1
 1128 1357 l 1,13,-1
 1074 1025 l 1,14,-1
 1306 1025 l 1,15,-1
 1298 898 l 1,16,-1
 1054 898 l 1,17,-1
 989 493 l 1,18,-1
 1216 493 l 1,19,-1
 1208 365 l 1,20,-1
 969 365 l 1,21,-1
 912 0 l 1,22,-1
 752 0 l 1,23,-1
 803 365 l 1,24,-1
 491 365 l 1,25,-1
 429 0 l 1,26,-1
 267 0 l 1,27,-1
 325 365 l 1,0,-1
823 493 m 1,28,-1
 887 898 l 1,29,-1
 576 898 l 1,30,-1
 511 493 l 1,31,-1
 823 493 l 1,28,-1
EndSplineSet
EndChar

StartChar: ampersand
Encoding: 38 38 5
Width: 1534
Flags: HW
LayerCount: 2
Fore
SplineSet
985 52 m 1,0,1
 838.882 -17 838.882 -17 641 -17 c 0,2,3
 272.408 -17 272.408 -17 141 188.5 c 0,4,5
 94 262 94 262 94 351.5 c 128,-1,6
 94 441 94 441 121 500.5 c 128,-1,7
 148 560 148 560 193 609 c 0,8,9
 267.771 690.417 267.771 690.417 424 778 c 1,10,11
 335 970.833 335 970.833 335 1128 c 0,12,13
 335 1309.44 335 1309.44 452 1427.5 c 0,14,15
 569.432 1546 569.432 1546 749 1546 c 0,16,17
 911.637 1546 911.637 1546 1014 1442.5 c 0,18,19
 1105 1350.49 1105 1350.49 1105 1237 c 0,20,21
 1105 1065.15 1105 1065.15 956.5 935 c 0,22,23
 875.452 863.969 875.452 863.969 787.226 815.484 c 2,24,-1
 644 737 l 1,25,26
 820.197 430.857 820.197 430.857 1008 259 c 1,27,28
 1109 368.417 1109 368.417 1109 542 c 0,29,30
 1109 613.556 1109 613.556 1087 682 c 1,31,32
 1015.62 675.308 1015.62 675.308 987 661 c 1,33,-1
 997 795 l 1,34,35
 1032 830 1032 830 1152 830 c 2,36,-1
 1439 829 l 1,37,-1
 1430 684 l 1,38,-1
 1278 684 l 1,39,40
 1290 636 1290 636 1290 586 c 0,41,42
 1290 318.08 1290 318.08 1137 161 c 1,43,44
 1225.14 113.667 1225.14 113.667 1356.38 113.667 c 0,45,46
 1368 113.667 1368 113.667 1380 114 c 2,47,-1
 1406 114 l 1,48,-1
 1385 -6 l 1,49,50
 1318.5 -20 1318.5 -20 1236 -20 c 256,51,52
 1097 -20 1097 -20 985 52 c 1,0,1
576 860 m 1,53,54
 749.371 953.154 749.371 953.154 805.685 1004.08 c 0,55,56
 919 1106.54 919 1106.54 919 1216 c 0,57,58
 919 1354.12 919 1354.12 818 1398.5 c 0,59,60
 785 1413 785 1413 736.5 1413 c 128,-1,61
 688 1413 688 1413 646 1390 c 128,-1,62
 604 1367 604 1367 575 1328 c 0,63,64
 515 1247.31 515 1247.31 515 1146.66 c 0,65,66
 515 987.304 515 987.304 576 860 c 1,53,54
494 649 m 1,67,68
 298 523 298 523 298 372 c 0,69,70
 298 241.039 298 241.039 413.5 176 c 0,71,72
 507.621 123 507.621 123 657 123 c 0,73,74
 769.5 123 769.5 123 862 160 c 1,75,76
 692.549 322.083 692.549 322.083 568.5 526 c 2,77,-1
 494 649 l 1,67,68
EndSplineSet
EndChar

StartChar: quotesingle
Encoding: 39 39 6
Width: 524
Flags: HW
LayerCount: 2
Fore
SplineSet
301 1687 m 1,0,-1
 528 1687 l 1,1,-1
 364 966 l 1,2,-1
 224 966 l 1,3,-1
 301 1687 l 1,0,-1
EndSplineSet
EndChar

StartChar: parenleft
Encoding: 40 40 7
Width: 854
Flags: HW
LayerCount: 2
Fore
SplineSet
223 269.5 m 0,0,1
 203 377 203 377 203 492.5 c 128,-1,2
 203 608 203 608 220 738 c 128,-1,3
 237 868 237 868 283 996 c 128,-1,4
 329 1124 329 1124 388.5 1232.5 c 128,-1,5
 448 1341 448 1341 515 1429 c 128,-1,6
 582 1517 582 1517 643 1582 c 0,7,8
 759.061 1705.67 759.061 1705.67 827 1741 c 1,9,-1
 914 1682 l 1,10,11
 812.023 1614.02 812.023 1614.02 675.5 1404.5 c 0,12,13
 492.59 1123.8 492.59 1123.8 431 773 c 1,14,15
 411 618 411 618 411 510 c 128,-1,16
 411 402 411 402 425 306.5 c 128,-1,17
 439 211 439 211 461.5 130.5 c 128,-1,18
 484 50 484 50 512.5 -14.5 c 128,-1,19
 541 -79 541 -79 569.5 -127.5 c 0,20,21
 621.798 -216.498 621.798 -216.498 668 -255 c 1,22,-1
 560 -319 l 1,23,-1
 543 -319 l 1,24,25
 439.691 -244.388 439.691 -244.388 345 -80.5 c 0,26,27
 261.1 64.7111 261.1 64.7111 223 269.5 c 0,0,1
EndSplineSet
EndChar

StartChar: asterisk
Encoding: 42 42 9
Width: 1366
Flags: HW
LayerCount: 2
Fore
SplineSet
641 939 m 1,0,-1
 683 1084 l 1,1,-1
 565 986 l 1,2,-1
 308 815 l 1,3,-1
 231 982 l 1,4,-1
 510 1102 l 1,5,-1
 652 1150 l 1,6,-1
 520 1197 l 1,7,-1
 265 1318 l 1,8,-1
 380 1484 l 1,9,-1
 598 1314 l 1,10,-1
 698 1219 l 1,11,-1
 685 1361 l 1,12,-1
 687 1653 l 1,13,-1
 879 1653 l 1,14,-1
 820 1361 l 1,15,-1
 777 1219 l 1,16,-1
 897 1314 l 1,17,-1
 1154 1485 l 1,18,-1
 1231 1318 l 1,19,-1
 952 1197 l 1,20,-1
 810 1149 l 1,21,-1
 942 1102 l 1,22,-1
 1197 982 l 1,23,-1
 1082 816 l 1,24,-1
 863 986 l 1,25,-1
 762 1084 l 1,26,-1
 778 939 l 1,27,-1
 779 647 l 1,28,-1
 582 648 l 1,29,-1
 641 939 l 1,0,-1
EndSplineSet
EndChar

StartChar: plus
Encoding: 43 43 10
Width: 1366
Flags: HW
LayerCount: 2
Fore
SplineSet
581 536 m 1,0,-1
 607 700 l 1,1,-1
 466 693 l 1,2,-1
 241 693 l 1,3,-1
 259 851 l 1,4,-1
 485 851 l 1,5,-1
 623 840 l 1,6,-1
 636 1005 l 1,7,-1
 663 1235 l 1,8,-1
 841 1235 l 1,9,-1
 815 1005 l 1,10,-1
 786 841 l 1,11,-1
 901 851 l 1,12,-1
 1156 851 l 1,13,-1
 1138 693 l 1,14,-1
 883 693 l 1,15,-1
 771 700 l 1,16,17
 769 658 769 658 766 618 c 128,-1,18
 763 578 763 578 761 536 c 1,19,-1
 733 295 l 1,20,-1
 554 295 l 1,21,-1
 581 536 l 1,0,-1
EndSplineSet
EndChar

StartChar: comma
Encoding: 44 44 11
Width: 526
Flags: HW
LayerCount: 2
Fore
SplineSet
76 137 m 1,0,-1
 182 265 l 1,1,2
 332.937 206.744 332.937 206.744 364.5 41.5 c 0,3,4
 373 -3 373 -3 373 -63.5 c 128,-1,5
 373 -124 373 -124 350 -197 c 128,-1,6
 327 -270 327 -270 285.5 -329.5 c 0,7,8
 201.35 -450.148 201.35 -450.148 61 -501 c 1,9,-1
 -12 -412 l 1,10,-1
 -9 -391 l 1,11,12
 111.352 -332.45 111.352 -332.45 152 -198 c 0,13,14
 165 -155 165 -155 165 -115 c 128,-1,15
 165 -75 165 -75 158.5 -43.5 c 128,-1,16
 152 -12 152 -12 139.5 14 c 0,17,18
 113.068 68.9783 113.068 68.9783 69 83 c 1,19,-1
 76 137 l 1,0,-1
EndSplineSet
EndChar

StartChar: period
Encoding: 46 46 12
Width: 526
Flags: HW
LayerCount: 2
Fore
SplineSet
98.5 44.5 m 0,0,1
 89 65 89 65 89 93 c 128,-1,2
 89 121 89 121 100 150 c 128,-1,3
 111 179 111 179 131.5 201 c 0,4,5
 177.159 250 177.159 250 246 250 c 0,6,7
 336.463 250 336.463 250 358.5 180.5 c 0,8,9
 365 160 365 160 365 138 c 0,10,11
 365 63 365 63 322.5 20.5 c 128,-1,12
 280 -22 280 -22 208 -22 c 0,13,14
 129.317 -22 129.317 -22 98.5 44.5 c 0,0,1
EndSplineSet
EndChar

StartChar: slash
Encoding: 47 47 13
Width: 854
Flags: HW
LayerCount: 2
Fore
SplineSet
-93 -362 m 1,0,-1
 768 1597 l 1,1,-1
 942 1597 l 1,2,-1
 79 -362 l 1,3,-1
 -93 -362 l 1,0,-1
EndSplineSet
EndChar

StartChar: zero
Encoding: 48 48 14
Width: 1278
Flags: HW
LayerCount: 2
Fore
SplineSet
128 275 m 128,-1,1
 103 359 103 359 103 455 c 128,-1,2
 103 551 103 551 126 642.5 c 128,-1,3
 149 734 149 734 190.5 812.5 c 128,-1,4
 232 891 232 891 290 954.5 c 128,-1,5
 348 1018 348 1018 418.5 1062.5 c 0,6,7
 566.629 1156 566.629 1156 734 1156 c 0,8,9
 953.928 1156 953.928 1156 1065 1022.5 c 0,10,11
 1165 902.308 1165 902.308 1165 691 c 0,12,13
 1165 403.107 1165 403.107 987 196.5 c 0,14,15
 903 99 903 99 788.5 41.5 c 128,-1,16
 674 -16 674 -16 549.5 -16 c 128,-1,17
 425 -16 425 -16 342.5 23 c 128,-1,18
 260 62 260 62 206.5 126.5 c 128,-1,0
 153 191 153 191 128 275 c 128,-1,1
958 671 m 0,19,20
 958 1017.04 958 1017.04 710.95 1017.04 c 0,21,22
 500.442 1017.04 500.442 1017.04 396 825 c 0,23,24
 310 666.871 310 666.871 310 466 c 0,25,26
 310 232.333 310 232.333 455.5 151.5 c 0,27,28
 505 124 505 124 571.5 124 c 128,-1,29
 638 124 638 124 693 146.5 c 128,-1,30
 748 169 748 169 791 208.5 c 128,-1,31
 834 248 834 248 865.5 301.5 c 128,-1,32
 897 355 897 355 917.5 415.5 c 0,33,34
 958 535.024 958 535.024 958 671 c 0,19,20
EndSplineSet
EndChar

StartChar: one
Encoding: 49 49 15
Width: 930
Flags: HW
LayerCount: 2
Fore
SplineSet
437 892 m 1,0,1
 317.893 852.982 317.893 852.982 198 833 c 1,2,-1
 176 960 l 1,3,4
 325.32 994.458 325.32 994.458 502 1104 c 1,5,-1
 592 1162 l 1,6,-1
 676 1142 l 1,7,-1
 516 0 l 1,8,-1
 315 0 l 1,9,-1
 437 892 l 1,0,1
EndSplineSet
Substitution2: "'sups' Superscript in Latin lookup 11 subtable" onesuperior
EndChar

StartChar: two
Encoding: 50 50 16
Width: 1249
Flags: HW
LayerCount: 2
Fore
SplineSet
615 1001 m 0,0,1
 454.167 1001 454.167 1001 278 850 c 1,2,-1
 205 964 l 1,3,4
 323.519 1090.42 323.519 1090.42 520 1143 c 0,5,6
 591 1162 591 1162 679.5 1162 c 128,-1,7
 768 1162 768 1162 838.5 1134 c 128,-1,8
 909 1106 909 1106 954.5 1059.5 c 0,9,10
 1043 969.055 1043 969.055 1043 826 c 0,11,12
 1043 522.983 1043 522.983 520.5 227 c 0,13,14
 434 178 434 178 346 134 c 1,15,-1
 1065 173 l 1,16,-1
 1038 0 l 1,17,-1
 95 0 l 1,18,-1
 62 130 l 1,19,20
 512.943 353.147 512.943 353.147 712 579 c 0,21,22
 822 703.808 822 703.808 822 804.404 c 128,-1,23
 822 905 822 905 771.5 953 c 128,-1,24
 721 1001 721 1001 615 1001 c 0,0,1
EndSplineSet
Substitution2: "'sups' Superscript in Latin lookup 11 subtable" twosuperior
EndChar

StartChar: three
Encoding: 51 51 17
Width: 1104
Flags: HW
LayerCount: 2
Fore
SplineSet
59 -164 m 1,0,1
 133 -174 133 -174 209 -174 c 128,-1,2
 285 -174 285 -174 376.5 -152.5 c 128,-1,3
 468 -131 468 -131 539 -88.5 c 0,4,5
 696 5.47887 696 5.47887 696 159 c 0,6,7
 696 381.342 696 381.342 418 385 c 1,8,-1
 276 351 l 1,9,-1
 293 522 l 1,10,11
 622.741 587.948 622.741 587.948 699 750.5 c 0,12,13
 718 791 718 791 718 832 c 128,-1,14
 718 873 718 873 705 898 c 128,-1,15
 692 923 692 923 669 940.5 c 0,16,17
 622.343 976 622.343 976 558.171 976 c 128,-1,18
 494 976 494 976 450 965.5 c 128,-1,19
 406 955 406 955 366.5 937.5 c 0,20,21
 304.611 910.081 304.611 910.081 222 850 c 1,22,-1
 160 998 l 1,23,24
 266.54 1100.28 266.54 1100.28 462.5 1145.5 c 0,25,26
 534 1162 534 1162 606 1162 c 128,-1,27
 678 1162 678 1162 737 1145.5 c 128,-1,28
 796 1129 796 1129 841.5 1095 c 0,29,30
 941 1020.65 941 1020.65 941 881 c 0,31,32
 941 752 941 752 826 637 c 0,33,34
 723.267 534.267 723.267 534.267 573 482 c 1,35,36
 739.024 482 739.024 482 836.5 390 c 0,37,38
 927 304.584 927 304.584 927 176 c 0,39,40
 927 29.7843 927 29.7843 817 -91 c 0,41,42
 664 -259 664 -259 378 -311 c 0,43,44
 290 -327 290 -327 228.5 -327 c 0,45,46
 135 -327 135 -327 43 -315 c 1,47,-1
 59 -164 l 1,0,1
EndSplineSet
Substitution2: "'sups' Superscript in Latin lookup 11 subtable" threesuperior
EndChar

StartChar: four
Encoding: 52 52 18
Width: 1264
Flags: HW
LayerCount: 2
Fore
SplineSet
20 94 m 1,0,1
 196 366 l 1,2,-1
 366 642 l 1,3,-1
 538.5 934 l 1,4,-1
 722 1256 l 1,5,-1
 769 1256 l 1,6,-1
 911 1167 l 1,7,-1
 315 230 l 1,8,-1
 236 131 l 1,9,-1
 691 148 l 1,10,-1
 749 614 l 1,11,-1
 942 649 l 1,12,-1
 879 159 l 1,13,-1
 1130 174 l 1,14,-1
 1109 0 l 1,15,-1
 859 0 l 1,16,-1
 812 -375 l 1,17,-1
 623 -375 l 1,18,-1
 672 0 l 1,19,-1
 56 0 l 1,20,-1
 20 94 l 1,0,1
EndSplineSet
EndChar

StartChar: five
Encoding: 53 53 19
Width: 1116
Flags: HW
LayerCount: 2
Fore
SplineSet
68 -189 m 1,0,1
 108.25 -196 108.25 -196 183.625 -196 c 128,-1,2
 259 -196 259 -196 363.5 -174 c 128,-1,3
 468 -152 468 -152 548 -106.5 c 0,4,5
 725 -5.83125 725 -5.83125 725 170 c 0,6,7
 725 426 725 426 487 426 c 0,8,9
 357.5 426 357.5 426 225 373 c 1,10,-1
 152 448 l 1,11,-1
 313 1146 l 1,12,-1
 860 1146 l 1,13,-1
 882 1162 l 1,14,-1
 1050 1162 l 1,15,-1
 1012 977 l 1,16,-1
 466 977 l 1,17,-1
 350 551 l 1,18,19
 453.571 580 453.571 580 566.786 580 c 128,-1,20
 680 580 680 580 752 552.5 c 128,-1,21
 824 525 824 525 869 475.5 c 0,22,23
 956 379.8 956 379.8 956 208 c 256,24,25
 956 49.65 956 49.65 851 -79.5 c 0,26,27
 695.815 -270.377 695.815 -270.377 385.5 -327.5 c 0,28,29
 285 -346 285 -346 224 -346 c 128,-1,30
 163 -346 163 -346 146.5 -345.5 c 128,-1,31
 130 -345 130 -345 112.5 -343 c 0,32,33
 73.6956 -338.565 73.6956 -338.565 45 -329 c 1,34,-1
 68 -189 l 1,0,1
EndSplineSet
EndChar

StartChar: six
Encoding: 54 54 20
Width: 1263
Flags: HW
LayerCount: 2
Fore
SplineSet
420 869 m 1,0,1
 550.435 989 550.435 989 761 989 c 0,2,3
 940.046 989 940.046 989 1031.5 870 c 0,4,5
 1110 767.855 1110 767.855 1110 605 c 256,6,7
 1110 367.581 1110 367.581 968.5 185 c 0,8,9
 812.725 -16 812.725 -16 558 -16 c 0,10,11
 360.329 -16 360.329 -16 248.5 136 c 0,12,13
 145 276.68 145 276.68 145 493 c 0,14,15
 145 872.706 145 872.706 388.5 1173.5 c 0,16,17
 626.191 1467.12 626.191 1467.12 1002 1571 c 1,18,-1
 1046 1456 l 1,19,20
 823.7 1375.34 823.7 1375.34 655.5 1215.5 c 0,21,22
 490.705 1058.89 490.705 1058.89 420 869 c 1,0,1
604 122 m 0,23,24
 801.772 122 801.772 122 880.5 378.5 c 0,25,26
 911 477.871 911 477.871 911 561.435 c 128,-1,27
 911 645 911 645 895.5 694.5 c 128,-1,28
 880 744 880 744 853 775.5 c 0,29,30
 801.143 836 801.143 836 719.571 836 c 128,-1,31
 638 836 638 836 581 819.5 c 128,-1,32
 524 803 524 803 482.5 779.5 c 0,33,34
 419.523 743.838 419.523 743.838 369 687 c 1,35,36
 342 563.571 342 563.571 342 484.786 c 0,37,38
 342 323.258 342 323.258 405.663 222.629 c 128,-1,39
 469.327 122 469.327 122 604 122 c 0,23,24
EndSplineSet
EndChar

StartChar: seven
Encoding: 55 55 21
Width: 1096
Flags: HW
LayerCount: 2
Fore
SplineSet
834 988 m 1,0,-1
 102 984 l 1,1,-1
 136 1146 l 1,2,-1
 1028 1146 l 1,3,-1
 1060 1103 l 1,4,-1
 457 -320 l 1,5,-1
 279 -254 l 1,6,-1
 834 988 l 1,0,-1
EndSplineSet
EndChar

StartChar: eight
Encoding: 56 56 22
Width: 1270
Flags: HW
LayerCount: 2
Fore
SplineSet
811 803 m 1,0,1
 1084 614.382 1084 614.382 1084 407 c 0,2,3
 1084 213.711 1084 213.711 930 95.5 c 0,4,5
 784.743 -16 784.743 -16 557 -16 c 0,6,7
 387.681 -16 387.681 -16 263 75.5 c 0,8,9
 123 178.242 123 178.242 123 352 c 0,10,11
 123 505.412 123 505.412 234 636 c 0,12,13
 334.25 753.941 334.25 753.941 490 821 c 1,14,15
 397.525 895.431 397.525 895.431 362.263 951.715 c 0,16,17
 297 1055.88 297 1055.88 297 1157.44 c 128,-1,18
 297 1259 297 1259 332.5 1335 c 128,-1,19
 368 1411 368 1411 430.5 1463 c 0,20,21
 557.904 1569 557.904 1569 764 1569 c 0,22,23
 929.372 1569 929.372 1569 1037 1480 c 0,24,25
 1148 1388.21 1148 1388.21 1148 1240 c 256,26,27
 1148 1095.57 1148 1095.57 1043 966 c 0,28,29
 947.103 847.659 947.103 847.659 811 803 c 1,0,1
709 879 m 1,30,31
 877.317 954.908 877.317 954.908 932.5 1113 c 0,32,33
 951 1166 951 1166 951 1222 c 128,-1,34
 951 1278 951 1278 934 1318 c 128,-1,35
 917 1358 917 1358 888 1385 c 0,36,37
 828.926 1440 828.926 1440 758.963 1440 c 128,-1,38
 689 1440 689 1440 644.5 1421 c 128,-1,39
 600 1402 600 1402 567.5 1369 c 0,40,41
 498 1298.43 498 1298.43 498 1197 c 0,42,43
 498 1057.96 498 1057.96 624 946.5 c 0,44,45
 663 912 663 912 709 879 c 1,30,31
357 494 m 0,46,47
 336 438 336 438 335.5 379 c 128,-1,48
 335 320 335 320 353 273 c 128,-1,49
 371 226 371 226 405 192 c 0,50,51
 477 120 477 120 592 120 c 0,52,53
 712.687 120 712.687 120 789.5 190.5 c 0,54,55
 868 262.548 868 262.548 868 369 c 0,56,57
 868 566.077 868 566.077 593 748 c 1,58,59
 420.52 663.387 420.52 663.387 357 494 c 0,46,47
EndSplineSet
EndChar

StartChar: nine
Encoding: 57 57 23
Width: 1263
Flags: HW
LayerCount: 2
Fore
SplineSet
829 278 m 1,0,1
 709.4 148 709.4 148 518 148 c 0,2,3
 324.818 148 324.818 148 225 270 c 0,4,5
 139 375.111 139 375.111 139 542 c 0,6,7
 139 779.419 139 779.419 280.5 962 c 0,8,9
 436.275 1163 436.275 1163 691 1163 c 0,10,11
 887.086 1163 887.086 1163 1000 1011 c 0,12,13
 1104 871 1104 871 1104 654 c 0,14,15
 1104 274.386 1104 274.386 860.5 -28 c 0,16,17
 706.891 -218.756 706.891 -218.756 481.5 -336 c 0,18,19
 370 -394 370 -394 247 -428 c 1,20,-1
 203 -313 l 1,21,22
 424.533 -232.621 424.533 -232.621 593.5 -71 c 0,23,24
 757.441 85.8132 757.441 85.8132 829 278 c 1,0,1
476.5 316 m 128,-1,26
 518 301 518 301 576 301 c 128,-1,27
 634 301 634 301 686 319 c 128,-1,28
 738 337 738 337 776 362 c 0,29,30
 831.412 398.455 831.412 398.455 880 460 c 1,31,32
 907 583.428 907 583.428 907 662.214 c 128,-1,33
 907 741 907 741 893 804.5 c 128,-1,34
 879 868 879 868 848 917 c 0,35,36
 779.673 1025 779.673 1025 645 1025 c 0,37,38
 447.228 1025 447.228 1025 368.5 768.5 c 0,39,40
 338 669.129 338 669.129 338 584.065 c 128,-1,41
 338 499 338 499 356 448 c 128,-1,42
 374 397 374 397 404.5 364 c 128,-1,25
 435 331 435 331 476.5 316 c 128,-1,26
EndSplineSet
EndChar

StartChar: less
Encoding: 60 60 26
Width: 1368
Flags: HW
LayerCount: 2
Fore
SplineSet
211 814 m 1,0,-1
 1220 1324 l 1,1,-1
 1196 1130 l 1,2,-1
 420 741 l 1,3,-1
 1105 353 l 1,4,-1
 1085 176 l 1,5,-1
 195 686 l 1,6,-1
 211 814 l 1,0,-1
EndSplineSet
EndChar

StartChar: equal
Encoding: 61 61 27
Width: 1063
Flags: HW
LayerCount: 2
Fore
SplineSet
184 1005 m 1,0,-1
 999 1005 l 1,1,-1
 981 848 l 1,2,-1
 166 848 l 1,3,-1
 184 1005 l 1,0,-1
114 496 m 1,4,-1
 929 496 l 1,5,-1
 911 339 l 1,6,-1
 96 339 l 1,7,-1
 114 496 l 1,4,-1
EndSplineSet
EndChar

StartChar: question
Encoding: 63 63 29
Width: 1020
Flags: HW
LayerCount: 2
Fore
SplineSet
359 464 m 1,0,1
 300.892 512.423 300.892 512.423 276.5 623 c 0,2,3
 269 657 269 657 269 697 c 128,-1,4
 269 737 269 737 287.5 776 c 128,-1,5
 306 815 306 815 342 852 c 0,6,7
 405.771 917.543 405.771 917.543 558 1000 c 1,8,9
 790.426 1116.21 790.426 1116.21 812 1221 c 0,10,11
 821 1260.6 821 1260.6 821 1326.3 c 128,-1,12
 821 1392 821 1392 791.5 1449 c 128,-1,13
 762 1506 762 1506 714.5 1543.5 c 0,14,15
 618.867 1619 618.867 1619 487 1619 c 0,16,17
 369 1619 369 1619 270 1586 c 1,18,-1
 298 1726 l 1,19,20
 333.222 1761.22 333.222 1761.22 440 1775 c 0,21,22
 471 1779 471 1779 501 1779 c 0,23,24
 756.24 1779 756.24 1779 889.5 1643.5 c 0,25,26
 1002 1529.11 1002 1529.11 1002 1348 c 0,27,28
 1002 1121.62 1002 1121.62 830 993.5 c 0,29,30
 781 957 781 957 730.5 927.5 c 1,31,-1
 631 872 l 1,32,33
 523.786 815.111 523.786 815.111 482.5 754.5 c 0,34,35
 459 720 459 720 459 685 c 128,-1,36
 459 650 459 650 465 627 c 128,-1,37
 471 604 471 604 478.5 582.5 c 128,-1,38
 486 561 486 561 493 543 c 128,-1,39
 500 525 500 525 503 513 c 1,40,-1
 376 463 l 1,41,-1
 359 464 l 1,0,1
343.5 44.5 m 0,42,43
 334 65 334 65 334 93 c 128,-1,44
 334 121 334 121 345 150 c 128,-1,45
 356 179 356 179 376.5 201 c 0,46,47
 422.159 250 422.159 250 491 250 c 0,48,49
 581.463 250 581.463 250 603.5 180.5 c 0,50,51
 610 160 610 160 610 138 c 0,52,53
 610 63 610 63 567.5 20.5 c 128,-1,54
 525 -22 525 -22 453 -22 c 0,55,56
 374.317 -22 374.317 -22 343.5 44.5 c 0,42,43
EndSplineSet
EndChar

StartChar: at
Encoding: 64 64 30
Width: 1968
Flags: HW
LayerCount: 2
Fore
SplineSet
1343 283.5 m 2,0,-1
 1344 213 l 2,1,2
 1344 185 1344 185 1358 185 c 0,3,4
 1440.74 185 1440.74 185 1525.5 288 c 0,5,6
 1654.23 444.428 1654.23 444.428 1701 697 c 0,7,8
 1716 778 1716 778 1716 859 c 0,9,10
 1716 1163.69 1716 1163.69 1546 1301 c 0,11,12
 1406.1 1414 1406.1 1414 1147 1414 c 0,13,14
 888.447 1414 888.447 1414 680 1262.5 c 0,15,16
 489.139 1123.78 489.139 1123.78 379 885.5 c 0,17,18
 273 656.173 273 656.173 273 398 c 0,19,20
 273 40.4124 273 40.4124 467.5 -142 c 0,21,22
 637.036 -301 637.036 -301 913 -301 c 0,23,24
 1056.04 -301 1056.04 -301 1219.5 -252.5 c 0,25,26
 1265 -239 1265 -239 1291 -227 c 1,27,-1
 1324 -324 l 1,28,29
 1214.9 -405.047 1214.9 -405.047 1023.5 -431.5 c 0,30,31
 962 -440 962 -440 898 -440 c 0,32,33
 553.476 -440 553.476 -440 341.5 -227 c 0,34,35
 121 -5.43478 121 -5.43478 121 374 c 0,36,37
 121 725.812 121 725.812 266 999 c 0,38,39
 404.291 1259.55 404.291 1259.55 647 1402.5 c 0,40,41
 888.942 1545 888.942 1545 1185 1545 c 0,42,43
 1500.74 1545 1500.74 1545 1685.5 1366.5 c 0,44,45
 1869 1189.22 1869 1189.22 1869 889 c 0,46,47
 1869 625.714 1869 625.714 1769.5 412.5 c 0,48,49
 1682 225 1682 225 1534 114 c 0,50,51
 1396.67 11 1396.67 11 1257 11 c 0,52,53
 1173.5 11 1173.5 11 1168.5 141 c 0,54,55
 1167 180 1167 180 1167 220 c 128,-1,56
 1167 260 1167 260 1170.5 293.5 c 2,57,-1
 1179 371 l 1,58,59
 1069.12 112.468 1069.12 112.468 918 34 c 0,60,61
 866 7 866 7 813 7 c 128,-1,62
 760 7 760 7 709.5 32 c 0,63,64
 601.36 85.5346 601.36 85.5346 555 242 c 0,65,66
 532.846 316.769 532.846 316.769 532.846 371.115 c 128,-1,67
 532.846 425.462 532.846 425.462 533.423 466.231 c 128,-1,68
 534 507 534 507 549 584 c 128,-1,69
 564 661 564 661 593.5 734 c 128,-1,70
 623 807 623 807 666.5 872 c 128,-1,71
 710 937 710 937 769.5 986 c 0,72,73
 898.214 1092 898.214 1092 1073 1092 c 0,74,75
 1156.95 1092 1156.95 1092 1214.47 1072.5 c 128,-1,76
 1272 1053 1272 1053 1293 1038 c 1,77,-1
 1458 1068 l 1,78,79
 1413.06 897.211 1413.06 897.211 1384.53 686.105 c 128,-1,80
 1356 475 1356 475 1350.5 418 c 0,81,82
 1343 340.273 1343 340.273 1343 283.5 c 2,0,-1
712 447 m 0,83,84
 712 160 712 160 842 160 c 0,85,86
 906.171 160 906.171 160 1000.5 296.5 c 0,87,88
 1136.47 493.256 1136.47 493.256 1214 754.5 c 0,89,90
 1237 832 1237 832 1245 892 c 1,91,92
 1211.33 945.308 1211.33 945.308 1112 962.5 c 0,93,94
 1086 967 1086 967 1047 967 c 128,-1,95
 1008 967 1008 967 959.5 944.5 c 128,-1,96
 911 922 911 922 872 883.5 c 128,-1,97
 833 845 833 845 803 793.5 c 128,-1,98
 773 742 773 742 753 684 c 0,99,100
 712 565.1 712 565.1 712 447 c 0,83,84
EndSplineSet
EndChar

StartChar: A
Encoding: 65 65 31
Width: 1265
Flags: HW
LayerCount: 2
Fore
SplineSet
670 1530 m 1,0,-1
 889 1530 l 1,1,-1
 1175 0 l 1,2,-1
 977 0 l 1,3,-1
 911 396 l 1,4,-1
 317 396 l 1,5,-1
 135 0 l 1,6,-1
 -76 0 l 1,7,-1
 670 1530 l 1,0,-1
885 547 m 1,8,-1
 770 1236 l 1,9,-1
 757 1352 l 1,10,-1
 386 547 l 1,11,-1
 885 547 l 1,8,-1
EndSplineSet
EndChar

StartChar: B
Encoding: 66 66 32
Width: 1240
Flags: HW
LayerCount: 2
Fore
SplineSet
457 -14 m 1,0,-1
 202 0 l 1,1,-1
 110 0 l 1,2,-1
 303 1530 l 1,3,-1
 404 1530 l 1,4,5
 474 1531 474 1531 544.5 1538.5 c 128,-1,6
 615 1546 615 1546 719 1546 c 128,-1,7
 823 1546 823 1546 909 1518 c 128,-1,8
 995 1490 995 1490 1046.5 1444 c 0,9,10
 1142.04 1358.66 1142.04 1358.66 1142.04 1210.74 c 0,11,12
 1142.04 981.003 1142.04 981.003 963.5 862.5 c 0,13,14
 907 825 907 825 838 802 c 1,15,16
 964.056 785.468 964.056 785.468 1046 702.5 c 0,17,18
 1134.08 613.321 1134.08 613.321 1134.08 481.797 c 128,-1,19
 1134.08 350.272 1134.08 350.272 1085.54 256.136 c 128,-1,20
 1037 162 1037 162 946.5 101.5 c 0,21,22
 773.727 -14 773.727 -14 457 -14 c 1,0,-1
482.92 862.4 m 2,23,-1
 587 863 l 2,24,25
 743 863 743 863 841 947 c 0,26,27
 944.035 1035.32 944.035 1035.32 944.035 1189.27 c 0,28,29
 944.035 1355.44 944.035 1355.44 782 1394.5 c 0,30,31
 726 1408 726 1408 680.5 1408 c 128,-1,32
 635 1408 635 1408 615.5 1407.5 c 128,-1,33
 596 1407 596 1407 572.5 1406 c 0,34,35
 518.114 1403.69 518.114 1403.69 484 1398 c 1,36,-1
 417 864 l 1,37,38
 447.4 862.4 447.4 862.4 482.92 862.4 c 2,23,-1
500 127 m 0,39,40
 923.121 127 923.121 127 923.121 456.476 c 0,41,42
 923.121 723 923.121 723 603 723 c 0,43,44
 506.5 723 506.5 723 398 716 c 1,45,-1
 326 146 l 1,46,47
 373.5 127 373.5 127 500 127 c 0,39,40
EndSplineSet
EndChar

StartChar: C
Encoding: 67 67 33
Width: 1141
Flags: HW
LayerCount: 2
Fore
SplineSet
1035 84 m 1,0,1
 898.636 -16 898.636 -16 610 -16 c 0,2,3
 272.49 -16 272.49 -16 156.5 322.5 c 0,4,5
 106.66 467.95 106.66 467.95 106.66 622.853 c 128,-1,6
 106.66 777.755 106.66 777.755 128.83 892.377 c 128,-1,7
 151 1007 151 1007 196 1109 c 128,-1,8
 241 1211 241 1211 306 1292 c 128,-1,9
 371 1373 371 1373 450.5 1429.5 c 0,10,11
 614.425 1546 614.425 1546 817 1546 c 0,12,13
 942 1546 942 1546 1035 1515 c 2,14,-1
 1142 1479 l 1,15,-1
 1072 1315 l 1,16,17
 1060 1321 1060 1321 1040.5 1332 c 128,-1,18
 1021 1343 1021 1343 990.5 1353.5 c 0,19,20
 913.524 1380 913.524 1380 813.262 1380 c 128,-1,21
 713 1380 713 1380 638 1345.5 c 128,-1,22
 563 1311 563 1311 506.5 1253.5 c 128,-1,23
 450 1196 450 1196 412 1121 c 0,24,25
 308.905 917.523 308.905 917.523 308.905 661.628 c 0,26,27
 308.905 429.133 308.905 429.133 393.5 289.5 c 0,28,29
 482.861 142 482.861 142 646 142 c 0,30,31
 761.882 142 761.882 142 878 184 c 0,32,33
 959.223 213.379 959.223 213.379 1005 250 c 1,34,-1
 1035 84 l 1,0,1
EndSplineSet
EndChar

StartChar: D
Encoding: 68 68 34
Width: 1377
Flags: HW
LayerCount: 2
Fore
SplineSet
411 1530 m 1,0,-1
 721 1546 l 1,1,2
 1012.87 1546 1012.87 1546 1159.5 1373 c 0,3,4
 1298.16 1209.4 1298.16 1209.4 1298.16 901.356 c 0,5,6
 1298.16 509.442 1298.16 509.442 1090 250 c 0,7,8
 949.671 75.0975 949.671 75.0975 743 12.5 c 0,9,10
 648.043 -16.2609 648.043 -16.2609 542.25 -16.2609 c 0,11,12
 514.783 -16.2609 514.783 -16.2609 498.391 -15.1304 c 2,13,-1
 436 -11 l 2,14,15
 421 -10 421 -10 406.5 -9 c 128,-1,16
 392 -8 392 -8 367 -6 c 128,-1,17
 342 -4 342 -4 314 -3 c 2,18,-1
 259 -1 l 2,19,20
 232 0 232 0 211 0 c 2,21,-1
 110 0 l 1,22,-1
 303 1530 l 1,23,-1
 411 1530 l 1,0,-1
328 163 m 1,24,25
 418.16 133.6 418.16 133.6 538.78 133.6 c 0,26,27
 822.011 133.6 822.011 133.6 971 390 c 0,28,29
 1093.07 600.081 1093.07 600.081 1093.07 892.661 c 0,30,31
 1093.07 1174.92 1093.07 1174.92 989 1291 c 0,32,33
 891.276 1400 891.276 1400 662 1400 c 0,34,35
 553.25 1400 553.25 1400 482 1381 c 1,36,-1
 328 163 l 1,24,25
EndSplineSet
EndChar

StartChar: E
Encoding: 69 69 35
Width: 1138
Flags: HW
LayerCount: 2
Fore
SplineSet
303 1530 m 1,0,-1
 1070 1530 l 1,1,-1
 1063 1373 l 1,2,-1
 482 1381 l 1,3,-1
 415 854 l 1,4,-1
 853 861 l 1,5,-1
 841 695 l 1,6,-1
 398 710 l 1,7,-1
 326 149 l 1,8,-1
 1026 165 l 1,9,-1
 1012 0 l 1,10,-1
 110 0 l 1,11,-1
 303 1530 l 1,0,-1
EndSplineSet
EndChar

StartChar: F
Encoding: 70 70 36
Width: 1057
Flags: HW
LayerCount: 2
Fore
SplineSet
303 1530 m 1,0,-1
 1093 1530 l 1,1,-1
 1079 1373 l 1,2,-1
 482 1381 l 1,3,-1
 416 854 l 1,4,-1
 886 862 l 1,5,-1
 874 694 l 1,6,-1
 398 710 l 1,7,-1
 308 0 l 1,8,-1
 110 0 l 1,9,-1
 303 1530 l 1,0,-1
EndSplineSet
EndChar

StartChar: G
Encoding: 71 71 37
Width: 1340
Flags: HW
LayerCount: 2
Fore
SplineSet
1182 1300 m 1,0,1
 1062.92 1386 1062.92 1386 842 1386 c 0,2,3
 657.557 1386 657.557 1386 527.5 1262.5 c 0,4,5
 360.736 1104.14 360.736 1104.14 320.5 808.5 c 0,6,7
 309.92 730.76 309.92 730.76 309.92 692.42 c 128,-1,8
 309.92 654.08 309.92 654.08 310.46 620.04 c 128,-1,9
 311 586 311 586 319 524.5 c 128,-1,10
 327 463 327 463 343 406.5 c 128,-1,11
 359 350 359 350 384.5 301 c 128,-1,12
 410 252 410 252 447 216 c 0,13,14
 526.139 139 526.139 139 644 139 c 0,15,16
 801.722 139 801.722 139 968 212 c 1,17,-1
 1014 570 l 1,18,-1
 782 570 l 1,19,-1
 802 729 l 1,20,-1
 1229 729 l 1,21,-1
 1147 94 l 1,22,23
 1118 91 1118 91 1084.5 82 c 2,24,-1
 927 36.5 l 1,25,26
 752 -16 752 -16 635.5 -16 c 128,-1,27
 519 -16 519 -16 448 10 c 128,-1,28
 377 36 377 36 322 81.5 c 128,-1,29
 267 127 267 127 227.5 189 c 128,-1,30
 188 251 188 251 162 322.5 c 0,31,32
 108.849 468.665 108.849 468.665 108.849 620.917 c 128,-1,33
 108.849 773.17 108.849 773.17 132.425 890.085 c 128,-1,34
 156 1007 156 1007 202.5 1109 c 128,-1,35
 249 1211 249 1211 316.5 1292 c 128,-1,36
 384 1373 384 1373 466.5 1429.5 c 0,37,38
 636.611 1546 636.611 1546 845 1546 c 0,39,40
 1038 1546 1038 1546 1206 1490 c 1,41,-1
 1244 1479 l 1,42,-1
 1182 1300 l 1,0,1
EndSplineSet
EndChar

StartChar: H
Encoding: 72 72 38
Width: 1410
Flags: HW
LayerCount: 2
Fore
SplineSet
303 1530 m 1,0,-1
 501 1530 l 1,1,-1
 414 844 l 1,2,-1
 1067 844 l 1,3,-1
 1154 1530 l 1,4,-1
 1352 1530 l 1,5,-1
 1159 0 l 1,6,-1
 961 0 l 1,7,-1
 1048 694 l 1,8,-1
 395 694 l 1,9,-1
 308 0 l 1,10,-1
 110 0 l 1,11,-1
 303 1530 l 1,0,-1
EndSplineSet
EndChar

StartChar: I
Encoding: 73 73 39
Width: 580
Flags: HW
LayerCount: 2
Fore
SplineSet
320 1530 m 1,0,-1
 518 1530 l 1,1,-1
 325 0 l 1,2,-1
 127 0 l 1,3,-1
 320 1530 l 1,0,-1
EndSplineSet
EndChar

StartChar: J
Encoding: 74 74 40
Width: 582
Flags: HW
LayerCount: 2
Fore
SplineSet
136 110 m 0,0,1
 152 183 152 183 171 298 c 128,-1,2
 190 413 190 413 206.5 537 c 128,-1,3
 223 661 223 661 238 791 c 2,4,-1
 293 1299 l 2,5,6
 306 1421 306 1421 319 1530 c 1,7,-1
 517 1530 l 1,8,9
 466.481 1073.28 466.481 1073.28 444.74 897.639 c 2,10,11
 405 586.5 l 1,12,13
 346.362 145.086 346.362 145.086 318.681 59.043 c 128,-1,14
 291 -27 291 -27 243.5 -96 c 128,-1,15
 196 -165 196 -165 137 -209.5 c 0,16,17
 36.5474 -285.265 36.5474 -285.265 -135 -315 c 1,18,-1
 -170 -227 l 1,19,20
 -54.3437 -189.755 -54.3437 -189.755 29 -100 c 0,21,22
 108.811 -14.0497 108.811 -14.0497 136 110 c 0,0,1
EndSplineSet
EndChar

StartChar: K
Encoding: 75 75 41
Width: 1245
Flags: HW
LayerCount: 2
Fore
SplineSet
303 1530 m 1,0,-1
 501 1530 l 1,1,-1
 403 758 l 1,2,-1
 1075 1530 l 1,3,-1
 1307 1530 l 1,4,-1
 692 848 l 1,5,6
 771 720 771 720 842.5 591.5 c 1,7,-1
 1084.5 163.5 l 1,8,9
 1135 78 1135 78 1187 0 c 1,10,-1
 949 0 l 1,11,12
 942 10 942 10 924.5 41.5 c 0,13,14
 585.978 670.565 585.978 670.565 565 707 c 1,15,-1
 369 489 l 1,16,-1
 308 0 l 1,17,-1
 110 0 l 1,18,-1
 303 1530 l 1,0,-1
EndSplineSet
EndChar

StartChar: L
Encoding: 76 76 42
Width: 978
Flags: HW
LayerCount: 2
Fore
SplineSet
303 1530 m 1,0,-1
 501 1530 l 1,1,-1
 329 165 l 1,2,-1
 899 170 l 1,3,-1
 877 0 l 1,4,-1
 110 0 l 1,5,-1
 303 1530 l 1,0,-1
EndSplineSet
EndChar

StartChar: M
Encoding: 77 77 43
Width: 1791
Flags: HW
LayerCount: 2
Fore
SplineSet
428 1530 m 1,0,-1
 682 1530 l 1,1,-1
 843 470 l 1,2,-1
 858 301 l 1,3,-1
 908 470 l 1,4,-1
 1335 1530 l 1,5,-1
 1622 1530 l 1,6,-1
 1586 0 l 1,7,-1
 1385 0 l 1,8,-1
 1435 1020 l 1,9,-1
 1459 1403 l 1,10,-1
 886 -3 l 1,11,-1
 746 -18 l 1,12,-1
 585 1043 l 1,13,-1
 549 1402 l 1,14,-1
 486 1033 l 1,15,-1
 248 0 l 1,16,-1
 48 0 l 1,17,-1
 428 1530 l 1,0,-1
EndSplineSet
EndChar

StartChar: N
Encoding: 78 78 44
Width: 1400
Flags: HW
LayerCount: 2
Fore
SplineSet
303 1530 m 1,0,-1
 509 1530 l 1,1,-1
 949 468 l 1,2,-1
 1012 261 l 1,3,-1
 1031 510 l 1,4,-1
 1154 1530 l 1,5,-1
 1342 1530 l 1,6,-1
 1149 0 l 1,7,-1
 956 0 l 1,8,-1
 501 1075 l 1,9,-1
 448 1307 l 1,10,-1
 421 1009 l 1,11,-1
 295 0 l 1,12,-1
 110 0 l 1,13,-1
 303 1530 l 1,0,-1
EndSplineSet
EndChar

StartChar: O
Encoding: 79 79 45
Width: 1378
Flags: HW
LayerCount: 2
Fore
SplineSet
591 -16 m 0,0,1
 477 -16 477 -16 386 33.5 c 128,-1,2
 295 83 295 83 234 168.5 c 0,3,4
 107.654 345.592 107.654 345.592 107.654 640.526 c 0,5,6
 107.654 881.545 107.654 881.545 195 1088 c 0,7,8
 284.466 1299.46 284.466 1299.46 445.5 1421 c 0,9,10
 611.125 1546 611.125 1546 814 1546 c 0,11,12
 1046.95 1546 1046.95 1546 1179 1362 c 0,13,14
 1305.17 1186.19 1305.17 1186.19 1305.17 899.403 c 0,15,16
 1305.17 516.307 1305.17 516.307 1114.5 257 c 0,17,18
 913.765 -16 913.765 -16 591 -16 c 0,0,1
631 136 m 0,19,20
 839.775 136 839.775 136 974.5 360 c 0,21,22
 1099.24 567.403 1099.24 567.403 1099.24 858.846 c 0,23,24
 1099.24 1268.86 1099.24 1268.86 919.5 1359.5 c 0,25,26
 861 1389 861 1389 786 1389 c 128,-1,27
 711 1389 711 1389 648.5 1360.5 c 128,-1,28
 586 1332 586 1332 533.5 1281.5 c 128,-1,29
 481 1231 481 1231 439.5 1161 c 0,30,31
 313.758 948.904 313.758 948.904 313.758 670.986 c 0,32,33
 313.758 391.408 313.758 391.408 393.379 263.704 c 128,-1,34
 473 136 473 136 631 136 c 0,19,20
EndSplineSet
EndChar

StartChar: P
Encoding: 80 80 46
Width: 1180
Flags: HW
LayerCount: 2
Fore
SplineSet
561.5 520 m 0,0,1
 430 520 430 520 375 530 c 1,2,-1
 308 0 l 1,3,-1
 110 0 l 1,4,-1
 303 1530 l 1,5,-1
 419 1530 l 1,6,-1
 714 1546 l 1,7,8
 1165.14 1546 1165.14 1546 1171 1157 c 0,9,10
 1171.19 1147.72 1171.19 1147.72 1171.19 1138.55 c 0,11,12
 1171.19 860.715 1171.19 860.715 1003 691.5 c 0,13,14
 832.539 520 832.539 520 561.5 520 c 0,0,1
970.056 1146.06 m 0,15,16
 970.056 1398 970.056 1398 682 1398 c 0,17,18
 596.5 1398 596.5 1398 481 1377 c 1,19,-1
 395 690 l 1,20,21
 455.667 676 455.667 676 563 676 c 1,22,23
 970.056 679.84 970.056 679.84 970.056 1146.06 c 0,15,16
EndSplineSet
EndChar

StartChar: Q
Encoding: 81 81 47
Width: 1378
Flags: HW
LayerCount: 2
Fore
SplineSet
918 -172 m 0,0,1
 971 -176 971 -176 1055.5 -176 c 128,-1,2
 1140 -176 1140 -176 1217 -148 c 1,3,-1
 1217 -302 l 1,4,5
 1165.58 -339.138 1165.58 -339.138 996.5 -355.5 c 0,6,7
 950 -360 950 -360 893 -360 c 128,-1,8
 836 -360 836 -360 771.5 -339 c 0,9,10
 635.7 -294.786 635.7 -294.786 589.5 -167 c 0,11,12
 573.493 -122.725 573.493 -122.725 573.493 -82.7319 c 128,-1,13
 573.493 -42.7391 573.493 -42.7391 577 -15 c 1,14,15
 354.677 -7.33368 354.677 -7.33368 228.5 176 c 0,16,17
 107.654 351.588 107.654 351.588 107.654 640.526 c 0,18,19
 107.654 881.545 107.654 881.545 195 1088 c 0,20,21
 284.466 1299.46 284.466 1299.46 445.5 1421 c 0,22,23
 611.125 1546 611.125 1546 814 1546 c 0,24,25
 1046.95 1546 1046.95 1546 1179 1362 c 0,26,27
 1305.2 1186.14 1305.2 1186.14 1305.2 897.088 c 0,28,29
 1305.2 557.007 1305.2 557.007 1149 308.5 c 0,30,31
 1072 186 1072 186 962.5 104 c 128,-1,32
 853 22 853 22 719 -4 c 1,33,34
 726.552 -157.551 726.552 -157.551 918 -172 c 0,0,1
631 136 m 0,35,36
 839.775 136 839.775 136 974.5 360 c 0,37,38
 1099.24 567.403 1099.24 567.403 1099.24 858.846 c 0,39,40
 1099.24 1268.86 1099.24 1268.86 919.5 1359.5 c 0,41,42
 861 1389 861 1389 786 1389 c 128,-1,43
 711 1389 711 1389 648.5 1360.5 c 128,-1,44
 586 1332 586 1332 533.5 1281.5 c 128,-1,45
 481 1231 481 1231 439.5 1161 c 0,46,47
 313.758 948.904 313.758 948.904 313.758 670.986 c 0,48,49
 313.758 391.408 313.758 391.408 393.379 263.704 c 128,-1,50
 473 136 473 136 631 136 c 0,35,36
EndSplineSet
EndChar

StartChar: R
Encoding: 82 82 48
Width: 1270
Flags: HW
LayerCount: 2
Fore
SplineSet
517 652 m 2,0,-1
 388 653 l 1,1,-1
 306 0 l 1,2,-1
 108 0 l 1,3,-1
 301 1530 l 1,4,-1
 403 1530 l 1,5,-1
 712 1546 l 1,6,7
 941 1546 941 1546 1059.5 1454 c 0,8,9
 1182.16 1358.77 1182.16 1358.77 1182.16 1177.05 c 0,10,11
 1182.16 901.119 1182.16 901.119 981 754 c 0,12,13
 914 705 914 705 827 678 c 1,14,15
 907.622 593.135 907.622 593.135 966 418 c 1,16,17
 1092.31 118.354 1092.31 118.354 1118.66 68.6768 c 128,-1,18
 1145 19 1145 19 1160 -1 c 1,19,-1
 933 1 l 1,20,21
 886.624 68.456 886.624 68.456 804 306 c 1,22,23
 702.407 641.258 702.407 641.258 592 651 c 1,24,25
 554 651 554 651 517 652 c 2,0,-1
408 812 m 1,26,27
 427 811 427 811 458 810.5 c 2,28,-1
 522 809.5 l 2,29,30
 555 809 555 809 585 809 c 2,31,-1
 631 809 l 2,32,33
 801.911 809 801.911 809 890 917.5 c 0,34,35
 967.19 1012.58 967.19 1012.58 967.19 1169.87 c 0,36,37
 967.19 1394 967.19 1394 690 1394 c 0,38,39
 561 1394 561 1394 481 1378 c 1,40,-1
 408 812 l 1,26,27
EndSplineSet
EndChar

StartChar: S
Encoding: 83 83 49
Width: 1044
Flags: HW
LayerCount: 2
Fore
SplineSet
84 235 m 1,0,1
 137.547 177.628 137.547 177.628 300.5 148 c 0,2,3
 350 139 350 139 403.5 139 c 128,-1,4
 457 139 457 139 514 151 c 128,-1,5
 571 163 571 163 615.5 190.5 c 0,6,7
 715 251.989 715 251.989 715 373 c 0,8,9
 715 461.706 715 461.706 679 515.353 c 0,10,11
 617.529 606.956 617.529 606.956 498 686 c 0,12,13
 353.384 782.411 353.384 782.411 296.692 851.205 c 0,14,15
 182.89 989.302 182.89 989.302 182.89 1147.57 c 0,16,17
 182.89 1329.17 182.89 1329.17 312 1438.5 c 0,18,19
 438.952 1546 438.952 1546 648 1546 c 0,20,21
 875.643 1546 875.643 1546 991 1461 c 1,22,-1
 928 1310 l 1,23,24
 843 1395 843 1395 661 1395 c 0,25,26
 548.8 1395 548.8 1395 493.9 1364.5 c 128,-1,27
 439 1334 439 1334 411.5 1293.5 c 0,28,29
 380.419 1247.73 380.419 1247.73 380.419 1184.01 c 128,-1,30
 380.419 1120.29 380.419 1120.29 391.71 1079.65 c 128,-1,31
 403 1039 403 1039 431.5 1000 c 0,32,33
 478.462 935.737 478.462 935.737 615 844 c 0,34,35
 754.76 749.979 754.76 749.979 809.88 685.99 c 0,36,37
 921.096 556.877 921.096 556.877 921.096 410.463 c 0,38,39
 921.096 206.18 921.096 206.18 773 92.5 c 0,40,41
 631.651 -16 631.651 -16 394 -16 c 0,42,43
 218.25 -16 218.25 -16 81 45 c 0,44,45
 45 61 45 61 29 75 c 1,46,-1
 84 235 l 1,0,1
EndSplineSet
EndChar

StartChar: T
Encoding: 84 84 50
Width: 1122
Flags: HW
LayerCount: 2
Fore
SplineSet
556 1384 m 1,0,-1
 129 1373 l 1,1,-1
 151 1530 l 1,2,-1
 1195 1530 l 1,3,-1
 1174 1373 l 1,4,-1
 754 1384 l 1,5,-1
 579 0 l 1,6,-1
 381 0 l 1,7,-1
 556 1384 l 1,0,-1
EndSplineSet
EndChar

StartChar: U
Encoding: 85 85 51
Width: 1363
Flags: HW
LayerCount: 2
Fore
SplineSet
348.778 455.309 m 0,0,1
 348.778 145 348.778 145 630 145 c 0,2,3
 795 145 795 145 887 260 c 0,4,5
 983.603 380.754 983.603 380.754 1017 644 c 2,6,-1
 1129 1530 l 1,7,-1
 1322 1530 l 1,8,-1
 1208 627 l 1,9,10
 1142.31 121.435 1142.31 121.435 832 18 c 0,11,12
 730 -16 730 -16 610 -16 c 128,-1,13
 490 -16 490 -16 405.5 14.5 c 128,-1,14
 321 45 321 45 264 102.5 c 0,15,16
 145.818 221.719 145.818 221.719 145.818 442.231 c 0,17,18
 145.818 474.364 145.818 474.364 149.909 511.182 c 2,19,-1
 277 1530 l 1,20,-1
 475 1530 l 1,21,-1
 361 628 l 1,22,23
 348.778 515.963 348.778 515.963 348.778 455.309 c 0,0,1
EndSplineSet
EndChar

StartChar: V
Encoding: 86 86 52
Width: 1169
Flags: HW
LayerCount: 2
Fore
SplineSet
128 1530 m 1,0,-1
 326 1530 l 1,1,-1
 489 429 l 1,2,-1
 514 207 l 1,3,-1
 600 429 l 1,4,-1
 1076 1530 l 1,5,-1
 1286 1530 l 1,6,-1
 589 0 l 1,7,-1
 380 0 l 1,8,-1
 128 1530 l 1,0,-1
EndSplineSet
EndChar

StartChar: W
Encoding: 87 87 53
Width: 1773
Flags: HW
LayerCount: 2
Fore
SplineSet
126 1530 m 1,0,-1
 324 1530 l 1,1,-1
 464 436 l 1,2,-1
 496 220 l 1,3,-1
 557 435 l 1,4,-1
 900 1313 l 1,5,-1
 876 1530 l 1,6,-1
 1066 1530 l 1,7,-1
 1182 436 l 1,8,-1
 1197 220 l 1,9,-1
 1271 435 l 1,10,-1
 1688 1530 l 1,11,-1
 1888 1530 l 1,12,-1
 1259 -10 l 1,13,-1
 1057 -10 l 1,14,-1
 961 850 l 1,15,-1
 947 1022 l 1,16,-1
 892 850 l 1,17,-1
 562 -10 l 1,18,-1
 358 -10 l 1,19,-1
 126 1530 l 1,0,-1
EndSplineSet
EndChar

StartChar: X
Encoding: 88 88 54
Width: 1157
Flags: HW
LayerCount: 2
Fore
SplineSet
499 793 m 1,0,-1
 181 1530 l 1,1,-1
 399 1530 l 1,2,-1
 628 932 l 1,3,-1
 1017 1530 l 1,4,-1
 1241 1530 l 1,5,-1
 704 753 l 1,6,-1
 1051 0 l 1,7,-1
 823 0 l 1,8,-1
 575 620 l 1,9,-1
 181 0 l 1,10,-1
 -59 0 l 1,11,-1
 499 793 l 1,0,-1
EndSplineSet
EndChar

StartChar: Y
Encoding: 89 89 55
Width: 1083
Flags: HW
LayerCount: 2
Fore
SplineSet
456 590 m 1,0,-1
 83 1530 l 1,1,-1
 295 1530 l 1,2,-1
 543 838 l 1,3,-1
 575 762 l 1,4,-1
 613 838 l 1,5,-1
 1025 1530 l 1,6,-1
 1237 1530 l 1,7,-1
 644 590 l 1,8,-1
 568 0 l 1,9,-1
 380 0 l 1,10,-1
 456 590 l 1,0,-1
EndSplineSet
EndChar

StartChar: Z
Encoding: 90 90 56
Width: 1157
Flags: HW
LayerCount: 2
Fore
SplineSet
15 89 m 1,0,-1
 794 1217 l 1,1,-1
 928 1376 l 1,2,-1
 238 1362 l 1,3,-1
 260 1530 l 1,4,-1
 1158 1530 l 1,5,-1
 1183 1444 l 1,6,-1
 403 303 l 1,7,-1
 279 158 l 1,8,-1
 1031 170 l 1,9,-1
 1003 0 l 1,10,-1
 42 0 l 1,11,-1
 15 89 l 1,0,-1
EndSplineSet
EndChar

StartChar: bracketleft
Encoding: 91 91 57
Width: 854
Flags: HW
LayerCount: 2
Fore
SplineSet
180 -54.5 m 0,0,1
 180 133 180 133 214 373 c 128,-1,2
 248 613 248 613 268 740 c 128,-1,3
 288 867 288 867 308 994 c 2,4,-1
 347 1245 l 2,5,6
 366 1369 366 1369 378 1462 c 128,-1,7
 390 1555 390 1555 405 1603.5 c 128,-1,8
 420 1652 420 1652 446 1681 c 0,9,10
 494.414 1735 494.414 1735 611 1735 c 0,11,12
 679.083 1735 679.083 1735 871 1688 c 1,13,-1
 858 1601 l 1,14,-1
 583 1601 l 1,15,-1
 360 -55 l 1,16,17
 426 -55 426 -55 497.5 -56 c 128,-1,18
 569 -57 569 -57 635 -57 c 1,19,20
 629 -101 629 -101 625 -143 c 1,21,-1
 559.5 -161.5 l 1,22,23
 453.882 -190 453.882 -190 379.441 -190 c 128,-1,24
 305 -190 305 -190 272 -183 c 128,-1,25
 239 -176 239 -176 218.5 -159.5 c 0,26,27
 180 -128.512 180 -128.512 180 -54.5 c 0,0,1
EndSplineSet
EndChar

StartChar: backslash
Encoding: 92 92 58
Width: 854
Flags: HW
LayerCount: 2
Fore
SplineSet
602 -362 m 1,0,-1
 26 1597 l 1,1,-1
 199 1597 l 1,2,-1
 776 -362 l 1,3,-1
 602 -362 l 1,0,-1
EndSplineSet
EndChar

StartChar: asciicircum
Encoding: 94 94 60
Width: 1364
Flags: HW
LayerCount: 2
Fore
SplineSet
687 1530 m 1,0,-1
 884 1530 l 1,1,-1
 1141 510 l 1,2,-1
 970 510 l 1,3,-1
 768 1338 l 1,4,-1
 351 510 l 1,5,-1
 176 510 l 1,6,-1
 687 1530 l 1,0,-1
EndSplineSet
EndChar

StartChar: underscore
Encoding: 95 95 61
Width: 1335
Flags: HW
LayerCount: 2
Fore
SplineSet
1287 -187 m 1,0,-1
 1267 -338 l 1,1,-1
 -111 -338 l 1,2,-1
 -91 -187 l 1,3,-1
 1287 -187 l 1,0,-1
EndSplineSet
EndChar

StartChar: grave
Encoding: 96 96 62
Width: 541
Flags: HW
LayerCount: 2
Fore
SplineSet
405 1241 m 1,0,1
 309.142 1282.08 309.142 1282.08 151.5 1447 c 0,2,3
 79.929 1521.87 79.929 1521.87 49 1576 c 1,4,-1
 202 1713 l 1,5,-1
 490 1311 l 1,6,-1
 405 1241 l 1,0,1
EndSplineSet
EndChar

StartChar: a
Encoding: 97 97 63
Width: 1145
Flags: HW
LayerCount: 2
Fore
SplineSet
380 -16 m 0,0,1
 311 -16 311 -16 253 15 c 128,-1,2
 195 46 195 46 156.5 102.5 c 0,3,4
 81 213.299 81 213.299 81 416 c 0,5,6
 81 687.233 81 687.233 230.5 903.5 c 0,7,8
 337.819 1058.75 337.819 1058.75 515 1123 c 0,9,10
 606 1156 606 1156 719 1156 c 0,11,12
 809 1156 809 1156 945 1122 c 1,13,-1
 1058 1156 l 1,14,-1
 902 0 l 1,15,-1
 730 0 l 1,16,-1
 745 190 l 1,17,18
 593.211 -16 593.211 -16 380 -16 c 0,0,1
283 440 m 0,19,20
 283 136 283 136 426 136 c 0,21,22
 598.667 136 598.667 136 757 383 c 1,23,-1
 843 988 l 1,24,25
 768 1013 768 1013 692 1013 c 128,-1,26
 616 1013 616 1013 558.5 987 c 128,-1,27
 501 961 501 961 456 917 c 128,-1,28
 411 873 411 873 378.5 815.5 c 128,-1,29
 346 758 346 758 324.5 694 c 0,30,31
 283 570.465 283 570.465 283 440 c 0,19,20
EndSplineSet
Substitution2: "Single Substitution lookup 16 subtable" ordfeminine
Substitution2: "'aalt' Access All Alternates in Latin lookup 0 subtable" ordfeminine
EndChar

StartChar: b
Encoding: 98 98 64
Width: 1163
Flags: HW
LayerCount: 2
Fore
SplineSet
626.5 17 m 0,0,1
 535 -16 535 -16 427.692 -16 c 128,-1,2
 320.385 -16 320.385 -16 196 17 c 1,3,-1
 83 -16 l 1,4,-1
 302 1638 l 1,5,-1
 487 1638 l 1,6,-1
 432 1147 l 1,7,-1
 396 954 l 1,8,9
 498.817 1089.87 498.817 1089.87 647.5 1138.5 c 0,10,11
 701 1156 701 1156 770 1156 c 128,-1,12
 839 1156 839 1156 897.5 1125 c 128,-1,13
 956 1094 956 1094 994.5 1037.5 c 0,14,15
 1070 926.701 1070 926.701 1070 724 c 0,16,17
 1070 454.377 1070 454.377 915 236.5 c 0,18,19
 804.521 81.2044 804.521 81.2044 626.5 17 c 0,0,1
868 700 m 0,20,21
 868 1004 868 1004 725 1004 c 0,22,23
 583.116 1004 583.116 1004 442 840 c 0,24,25
 405 797 405 797 380 759 c 1,26,-1
 300 151 l 1,27,28
 372 127 372 127 448.5 127 c 128,-1,29
 525 127 525 127 583.5 153 c 128,-1,30
 642 179 642 179 688 223 c 128,-1,31
 734 267 734 267 768 324.5 c 128,-1,32
 802 382 802 382 824 446 c 0,33,34
 868 574 868 574 868 700 c 0,20,21
EndSplineSet
EndChar

StartChar: c
Encoding: 99 99 65
Width: 905
Flags: HW
LayerCount: 2
Fore
SplineSet
834 951 m 1,0,1
 763.312 1009 763.312 1009 648 1009 c 0,2,3
 584 1009 584 1009 519.5 968 c 128,-1,4
 455 927 455 927 402.5 853 c 0,5,6
 284 685.971 284 685.971 284 454 c 0,7,8
 284 199.846 284 199.846 403 149.5 c 0,9,10
 442 133 442 133 500 133 c 0,11,12
 612.192 133 612.192 133 755 272 c 1,13,-1
 820 166 l 1,14,15
 736.437 51.6506 736.437 51.6506 585 2.5 c 0,16,17
 528 -16 528 -16 449 -16 c 128,-1,18
 370 -16 370 -16 299.5 14.5 c 128,-1,19
 229 45 229 45 181.5 103 c 0,20,21
 85 220.832 85 220.832 85 434 c 0,22,23
 85 698 85 698 230.5 912.5 c 0,24,25
 333.041 1063.67 333.041 1063.67 488.5 1124.5 c 0,26,27
 569 1156 569 1156 630.5 1156 c 128,-1,28
 692 1156 692 1156 721.5 1154 c 128,-1,29
 751 1152 751 1152 780.5 1147.5 c 0,30,31
 848.478 1137.13 848.478 1137.13 885 1118 c 1,32,-1
 834 951 l 1,0,1
EndSplineSet
EndChar

StartChar: d
Encoding: 100 100 66
Width: 1161
Flags: HW
LayerCount: 2
Fore
SplineSet
522.5 1123 m 0,0,1
 614 1156 614 1156 703.429 1156 c 128,-1,2
 792.857 1156 792.857 1156 870 1141 c 1,3,-1
 938 1638 l 1,4,-1
 1133 1638 l 1,5,-1
 912 0 l 1,6,-1
 738 0 l 1,7,-1
 754 194 l 1,8,9
 647.843 51.2368 647.843 51.2368 501.5 2 c 0,10,11
 448 -16 448 -16 378.5 -16 c 128,-1,12
 309 -16 309 -16 251 15 c 128,-1,13
 193 46 193 46 154.5 102.5 c 0,14,15
 79 213.299 79 213.299 79 416 c 0,16,17
 79 685.623 79 685.623 234 903.5 c 0,18,19
 344.479 1058.8 344.479 1058.8 522.5 1123 c 0,0,1
281 440 m 0,20,21
 281 136 281 136 424 136 c 0,22,23
 520 136 520 136 625 223.5 c 0,24,25
 704.239 289.532 704.239 289.532 768 389 c 1,26,-1
 850 988 l 1,27,28
 775 1013 775 1013 700 1013 c 128,-1,29
 625 1013 625 1013 566 987 c 128,-1,30
 507 961 507 961 461 917 c 128,-1,31
 415 873 415 873 381 815.5 c 128,-1,32
 347 758 347 758 325 694 c 0,33,34
 281 566 281 566 281 440 c 0,20,21
EndSplineSet
EndChar

StartChar: e
Encoding: 101 101 67
Width: 1035
Flags: HW
LayerCount: 2
Fore
SplineSet
502 138 m 0,0,1
 665.185 138 665.185 138 834 297 c 1,2,-1
 889 186 l 1,3,4
 838.922 114.46 838.922 114.46 735.5 55.5 c 0,5,6
 610.082 -16 610.082 -16 491.541 -16 c 128,-1,7
 373 -16 373 -16 297.5 22 c 0,8,9
 85.8261 128.538 85.8261 128.538 85.8261 419.081 c 0,10,11
 85.8261 571.619 85.8261 571.619 132.413 709.809 c 128,-1,12
 179 848 179 848 257 945.5 c 0,13,14
 425.4 1156 425.4 1156 684 1156 c 0,15,16
 891.396 1156 891.396 1156 948 1004.5 c 0,17,18
 965 959 965 959 965 891 c 128,-1,19
 965 823 965 823 931 756 c 128,-1,20
 897 689 897 689 841.5 637 c 128,-1,21
 786 585 786 585 714.5 547 c 128,-1,22
 643 509 643 509 568.5 483 c 0,23,24
 430.071 434.689 430.071 434.689 292 425 c 1,25,26
 291.529 414.176 291.529 414.176 291.529 390.647 c 128,-1,27
 291.529 367.118 291.529 367.118 297.265 322.559 c 128,-1,28
 303 278 303 278 325.5 235.5 c 0,29,30
 377.118 138 377.118 138 502 138 c 0,0,1
769 889 m 0,31,32
 769 1008 769 1008 641 1008 c 0,33,34
 500.533 1008 500.533 1008 400 852 c 0,35,36
 314.683 719.612 314.683 719.612 297 564 c 1,37,38
 444.686 571.384 444.686 571.384 594 655 c 0,39,40
 769 753 769 753 769 889 c 0,31,32
EndSplineSet
EndChar

StartChar: f
Encoding: 102 102 68
Width: 695
Flags: HW
LayerCount: 2
Fore
SplineSet
836 1496 m 1,0,1
 794.735 1528.1 794.735 1528.1 721.501 1528.1 c 0,2,3
 716.857 1528.1 716.857 1528.1 693.929 1528.05 c 128,-1,4
 671 1528 671 1528 637.5 1508.5 c 128,-1,5
 604 1489 604 1489 579.5 1456.5 c 0,6,7
 530.897 1392.03 530.897 1392.03 518 1291 c 1,8,-1
 497 1140 l 1,9,-1
 708 1140 l 1,10,-1
 696 984 l 1,11,-1
 476 984 l 1,12,-1
 343 0 l 1,13,-1
 148 0 l 1,14,-1
 281 984 l 1,15,-1
 142 984 l 1,16,-1
 170 1140 l 1,17,-1
 302 1140 l 1,18,-1
 316 1234 l 1,19,20
 342.657 1439.05 342.657 1439.05 448.5 1558 c 0,21,22
 557.949 1681 557.949 1681 738 1681 c 0,23,24
 830.941 1681 830.941 1681 886 1655 c 1,25,-1
 836 1496 l 1,0,1
EndSplineSet
EndChar

StartChar: g
Encoding: 103 103 69
Width: 1157
Flags: HW
LayerCount: 2
Fore
SplineSet
171 -304 m 1,0,1
 280.2 -356 280.2 -356 428 -356 c 0,2,3
 606.887 -356 606.887 -356 670.5 -205.5 c 0,4,5
 691 -157 691 -157 703 -96 c 1,6,-1
 752 191 l 1,7,8
 648.484 51.7891 648.484 51.7891 500.5 2 c 0,9,10
 447 -16 447 -16 378 -16 c 128,-1,11
 309 -16 309 -16 251 15 c 128,-1,12
 193 46 193 46 154.5 102.5 c 0,13,14
 79 213.299 79 213.299 79 416 c 0,15,16
 79 685.623 79 685.623 234 903.5 c 0,17,18
 344.479 1058.8 344.479 1058.8 522.5 1123 c 0,19,20
 614 1156 614 1156 727 1156 c 0,21,22
 817 1156 817 1156 953 1122 c 1,23,-1
 1070 1156 l 1,24,-1
 900 -93 l 1,25,26
 877.822 -239.005 877.822 -239.005 790 -340 c 0,27,28
 647.391 -504 647.391 -504 390 -504 c 0,29,30
 276.538 -504 276.538 -504 206.269 -489.5 c 128,-1,31
 136 -475 136 -475 121 -469 c 1,32,-1
 171 -304 l 1,0,1
281 440 m 0,33,34
 281 136 281 136 424 136 c 0,35,36
 518.556 136 518.556 136 620 219 c 0,37,38
 697 282 697 282 763 381 c 1,39,-1
 849 988 l 1,40,41
 774 1013 774 1013 699.5 1013 c 128,-1,42
 625 1013 625 1013 566 987 c 128,-1,43
 507 961 507 961 461 917 c 128,-1,44
 415 873 415 873 381 815.5 c 128,-1,45
 347 758 347 758 325 694 c 0,46,47
 281 566 281 566 281 440 c 0,33,34
EndSplineSet
EndChar

StartChar: h
Encoding: 104 104 70
Width: 1198
Flags: HW
LayerCount: 2
Fore
SplineSet
296 1638 m 1,0,-1
 491 1638 l 1,1,-1
 439 1159 l 1,2,-1
 399 909 l 1,3,4
 542.399 1079.08 542.399 1079.08 723.5 1136.5 c 0,5,6
 785 1156 785 1156 847 1156 c 0,7,8
 958 1156 958 1156 1013.5 1089 c 128,-1,9
 1069 1022 1069 1022 1069 866 c 0,10,11
 1069 797.353 1069 797.353 1045 626.676 c 0,12,13
 987.128 228.478 987.128 228.478 974.064 145.739 c 128,-1,14
 961 63 961 63 952 0 c 1,15,-1
 756 0 l 1,16,17
 773 130 773 130 793.5 263 c 2,18,-1
 831 514 l 2,19,20
 870 770.941 870 770.941 870 832.471 c 128,-1,21
 870 894 870 894 862.5 917.5 c 128,-1,22
 855 941 855 941 841.5 954 c 0,23,24
 819.692 975 819.692 975 771.346 975 c 128,-1,25
 723 975 723 975 672.5 954 c 128,-1,26
 622 933 622 933 570.5 897.5 c 0,27,28
 460.036 821.355 460.036 821.355 381 718 c 1,29,-1
 283 0 l 1,30,-1
 88 0 l 1,31,-1
 296 1638 l 1,0,-1
EndSplineSet
EndChar

StartChar: dotlessi
Encoding: 305 305 72
Width: 584
Flags: HW
LayerCount: 2
Fore
SplineSet
279 1140 m 1,0,-1
 474 1140 l 1,1,-1
 319 0 l 1,2,-1
 124 0 l 1,3,-1
 279 1140 l 1,0,-1
EndSplineSet
EndChar

StartChar: dotaccent
Encoding: 729 729 73
Width: 387
Flags: HW
LayerCount: 2
Fore
SplineSet
129.5 1397.5 m 0,0,1
 59.8947 1428.26 59.8947 1428.26 59.8947 1502.97 c 0,2,3
 59.8947 1561.89 59.8947 1561.89 106 1608 c 0,4,5
 149 1651 149 1651 191 1651 c 128,-1,6
 233 1651 233 1651 256.5 1641.5 c 0,7,8
 327.111 1612.96 327.111 1612.96 327.111 1541.09 c 0,9,10
 327.111 1478.49 327.111 1478.49 280 1432.5 c 0,11,12
 234.415 1388 234.415 1388 192.707 1388 c 128,-1,13
 151 1388 151 1388 129.5 1397.5 c 0,0,1
EndSplineSet
EndChar

StartChar: dotlessj
Encoding: 567 567 75
Width: 579
Flags: HW
LayerCount: 2
Fore
SplineSet
-178 -364 m 1,0,1
 -159.333 -378 -159.333 -378 -108.667 -378 c 128,-1,2
 -58 -378 -58 -378 -14 -342 c 128,-1,3
 30 -306 30 -306 58 -244.5 c 0,4,5
 102.121 -147.591 102.121 -147.591 131 69 c 2,6,-1
 277 1140 l 1,7,-1
 472 1140 l 1,8,-1
 318 4 l 2,9,10
 286.349 -233.382 286.349 -233.382 174.5 -374.5 c 0,11,12
 63.9333 -514 63.9333 -514 -96 -514 c 0,13,14
 -174.286 -514 -174.286 -514 -230 -475 c 1,15,-1
 -178 -364 l 1,0,1
EndSplineSet
EndChar

StartChar: k
Encoding: 107 107 76
Width: 1041
Flags: HW
LayerCount: 2
Fore
SplineSet
296 1638 m 1,0,-1
 491 1638 l 1,1,-1
 283 0 l 1,2,-1
 88 0 l 1,3,-1
 296 1638 l 1,0,-1
403 634 m 1,4,-1
 402 635 l 1,5,6
 636.229 765.127 636.229 765.127 784 983.5 c 0,7,8
 829 1050 829 1050 862 1140 c 1,9,-1
 1048 1140 l 1,10,11
 1026.03 912.035 1026.03 912.035 766.5 698.5 c 0,12,13
 695.126 639.775 695.126 639.775 620 601 c 1,14,-1
 984 4 l 1,15,-1
 757 4 l 1,16,-1
 402 634 l 1,17,-1
 403 634 l 1,4,-1
EndSplineSet
EndChar

StartChar: l
Encoding: 108 108 77
Width: 584
Flags: HW
LayerCount: 2
Fore
SplineSet
348 1638 m 1,0,-1
 543 1638 l 1,1,-1
 320 4 l 1,2,-1
 125 4 l 1,3,-1
 348 1638 l 1,0,-1
EndSplineSet
EndChar

StartChar: m
Encoding: 109 109 78
Width: 1769
Flags: HW
LayerCount: 2
Fore
SplineSet
238 1140 m 1,0,-1
 423 1140 l 1,1,-1
 403 926 l 1,2,3
 536.025 1085.63 536.025 1085.63 697.5 1138 c 0,4,5
 753 1156 753 1156 829 1156 c 128,-1,6
 905 1156 905 1156 959 1107 c 128,-1,7
 1013 1058 1013 1058 1027 946 c 1,8,9
 1157.43 1092.73 1157.43 1092.73 1314 1140 c 0,10,11
 1367 1156 1367 1156 1420 1156 c 0,12,13
 1531 1156 1531 1156 1586.5 1089 c 128,-1,14
 1642 1022 1642 1022 1642 866 c 0,15,16
 1642 797.353 1642 797.353 1613.5 596.676 c 1,17,-1
 1526 4 l 1,18,-1
 1330 4 l 1,19,20
 1347 134 1347 134 1367 265 c 2,21,-1
 1404 514 l 2,22,23
 1443 770.941 1443 770.941 1443 832.471 c 128,-1,24
 1443 894 1443 894 1435.5 917.5 c 128,-1,25
 1428 941 1428 941 1414.5 954 c 0,26,27
 1392.69 975 1392.69 975 1348.85 975 c 128,-1,28
 1305 975 1305 975 1265.5 959.5 c 128,-1,29
 1226 944 1226 944 1184.5 917 c 0,30,31
 1099.4 861.634 1099.4 861.634 1026 776 c 1,32,33
 1021 725 1021 725 1012 658.5 c 2,34,-1
 916 4 l 1,35,-1
 720 4 l 1,36,37
 737 134 737 134 757 265 c 2,38,-1
 794 514 l 2,39,40
 833 770.941 833 770.941 833 832.471 c 128,-1,41
 833 894 833 894 825.5 917.5 c 128,-1,42
 818 941 818 941 804.5 954 c 0,43,44
 782.692 975 782.692 975 735.346 975 c 128,-1,45
 688 975 688 975 642 954.5 c 128,-1,46
 596 934 596 934 548.5 899 c 0,47,48
 447.31 824.439 447.31 824.439 375 722 c 1,49,-1
 278 4 l 1,50,-1
 83 4 l 1,51,-1
 238 1140 l 1,0,-1
EndSplineSet
EndChar

StartChar: n
Encoding: 110 110 79
Width: 1194
Flags: HW
LayerCount: 2
Fore
SplineSet
238 1140 m 1,0,-1
 423 1140 l 1,1,-1
 402 916 l 1,2,-1
 402 915 l 1,3,4
 544.973 1081.25 544.973 1081.25 722.5 1137 c 0,5,6
 783 1156 783 1156 844 1156 c 0,7,8
 955 1156 955 1156 1010.5 1089 c 128,-1,9
 1066 1022 1066 1022 1066 866 c 0,10,11
 1066 797.353 1066 797.353 1037.5 596.676 c 1,12,-1
 950 4 l 1,13,-1
 754 4 l 1,14,15
 771 134 771 134 791 265 c 2,16,-1
 828 514 l 2,17,18
 867 770.941 867 770.941 867 832.471 c 128,-1,19
 867 894 867 894 859.5 917.5 c 128,-1,20
 852 941 852 941 838.5 954 c 0,21,22
 816.692 975 816.692 975 768.346 975 c 128,-1,23
 720 975 720 975 668.5 953.5 c 128,-1,24
 617 932 617 932 565 896 c 0,25,26
 451.64 817.52 451.64 817.52 374 714 c 1,27,-1
 278 4 l 1,28,-1
 83 4 l 1,29,-1
 238 1140 l 1,0,-1
EndSplineSet
EndChar

StartChar: o
Encoding: 111 111 80
Width: 1135
Flags: HW
LayerCount: 2
Fore
SplineSet
312 15 m 0,0,1
 88.8049 111.098 88.8049 111.098 88.8049 462.728 c 0,2,3
 88.8049 729.175 88.8049 729.175 247 937 c 0,4,5
 351.058 1073.7 351.058 1073.7 501.5 1128.5 c 0,6,7
 577 1156 577 1156 666.5 1156 c 128,-1,8
 756 1156 756 1156 826.5 1125 c 128,-1,9
 897 1094 897 1094 944 1035 c 0,10,11
 1041.05 913.166 1041.05 913.166 1041.05 686.171 c 0,12,13
 1041.05 409.092 1041.05 409.092 888 204 c 0,14,15
 784.965 65.9335 784.965 65.9335 637.5 11.5 c 0,16,17
 563 -16 563 -16 473.5 -16 c 128,-1,18
 384 -16 384 -16 312 15 c 0,0,1
291.895 460.097 m 0,19,20
 291.895 131 291.895 131 509 131 c 0,21,22
 615.833 131 615.833 131 696 222 c 0,23,24
 801.729 342.017 801.729 342.017 829 567 c 0,25,26
 836.111 625.667 836.111 625.667 836.111 656.889 c 128,-1,27
 836.111 688.111 836.111 688.111 835.556 729.056 c 128,-1,28
 835 770 835 770 823 828 c 128,-1,29
 811 886 811 886 786.5 926.5 c 0,30,31
 736.593 1009 736.593 1009 630 1009 c 0,32,33
 522.867 1009 522.867 1009 440 918.5 c 0,34,35
 327.984 796.166 327.984 796.166 299.5 575 c 0,36,37
 291.895 515.947 291.895 515.947 291.895 460.097 c 0,19,20
EndSplineSet
Substitution2: "Single Substitution lookup 16 subtable" ordmasculine
Substitution2: "'aalt' Access All Alternates in Latin lookup 0 subtable" ordmasculine
EndChar

StartChar: p
Encoding: 112 112 81
Width: 1169
Flags: HW
LayerCount: 2
Fore
SplineSet
624.5 17 m 0,0,1
 533 -16 533 -16 444.071 -16 c 128,-1,2
 355.143 -16 355.143 -16 278 -1 c 1,3,-1
 210 -513 l 1,4,-1
 15 -513 l 1,5,-1
 235 1140 l 1,6,-1
 410 1140 l 1,7,-1
 393 953 l 1,8,9
 497.109 1090.57 497.109 1090.57 645 1138.5 c 0,10,11
 699 1156 699 1156 768 1156 c 128,-1,12
 837 1156 837 1156 895.5 1125 c 128,-1,13
 954 1094 954 1094 992.5 1037.5 c 0,14,15
 1068 926.701 1068 926.701 1068 724 c 0,16,17
 1068 454.377 1068 454.377 913 236.5 c 0,18,19
 802.521 81.2044 802.521 81.2044 624.5 17 c 0,0,1
866 700 m 0,20,21
 866 1004 866 1004 723 1004 c 0,22,23
 581.116 1004 581.116 1004 440 840 c 0,24,25
 403 797 403 797 378 759 c 1,26,-1
 298 151 l 1,27,28
 370 127 370 127 446 127 c 128,-1,29
 522 127 522 127 581 153 c 128,-1,30
 640 179 640 179 686 223 c 128,-1,31
 732 267 732 267 766 324.5 c 128,-1,32
 800 382 800 382 822 446 c 0,33,34
 866 574 866 574 866 700 c 0,20,21
EndSplineSet
EndChar

StartChar: q
Encoding: 113 113 82
Width: 1159
Flags: HW
LayerCount: 2
Fore
SplineSet
522.5 1123 m 0,0,1
 614 1156 614 1156 720.269 1156 c 128,-1,2
 826.538 1156 826.538 1156 941 1125 c 1,3,-1
 1064 1162 l 1,4,-1
 844 -506 l 1,5,-1
 649 -506 l 1,6,-1
 717 4 l 1,7,-1
 752 191 l 1,8,9
 648.484 51.7891 648.484 51.7891 500.5 2 c 0,10,11
 447 -16 447 -16 378 -16 c 128,-1,12
 309 -16 309 -16 251 15 c 128,-1,13
 193 46 193 46 154.5 102.5 c 0,14,15
 79 213.299 79 213.299 79 416 c 0,16,17
 79 685.623 79 685.623 234 903.5 c 0,18,19
 344.479 1058.8 344.479 1058.8 522.5 1123 c 0,0,1
281 440 m 0,20,21
 281 136 281 136 424 136 c 0,22,23
 518.556 136 518.556 136 620 219 c 0,24,25
 697 282 697 282 763 381 c 1,26,-1
 846 989 l 1,27,28
 774 1013 774 1013 699.5 1013 c 128,-1,29
 625 1013 625 1013 566 987 c 128,-1,30
 507 961 507 961 461 917 c 128,-1,31
 415 873 415 873 381 815.5 c 128,-1,32
 347 758 347 758 325 694 c 0,33,34
 281 566 281 566 281 440 c 0,20,21
EndSplineSet
EndChar

StartChar: r
Encoding: 114 114 83
Width: 786
Flags: HW
LayerCount: 2
Fore
SplineSet
771 935 m 1,0,1
 744.75 949 744.75 949 692.875 949 c 128,-1,2
 641 949 641 949 600.5 930.5 c 128,-1,3
 560 912 560 912 518.5 877 c 0,4,5
 426.433 799.353 426.433 799.353 369 673 c 1,6,-1
 277 0 l 1,7,-1
 82 0 l 1,8,-1
 238 1140 l 1,9,-1
 423 1140 l 1,10,-1
 404 937 l 1,11,12
 490.993 1074.36 490.993 1074.36 632.5 1133 c 0,13,14
 688 1156 688 1156 728.5 1156 c 0,15,16
 802 1156 802 1156 815 1143 c 1,17,-1
 771 935 l 1,0,1
EndSplineSet
EndChar

StartChar: s
Encoding: 115 115 84
Width: 872
Flags: HW
LayerCount: 2
Fore
SplineSet
81 214 m 1,0,1
 205.5 131 205.5 131 348 131 c 0,2,3
 478 131 478 131 521.5 203.5 c 0,4,5
 538 231 538 231 538 270 c 128,-1,6
 538 309 538 309 526.5 337 c 128,-1,7
 515 365 515 365 494 390.5 c 128,-1,8
 473 416 473 416 443 442 c 2,9,-1
 376 500 l 2,10,11
 270.75 590.214 270.75 590.214 236.875 638.607 c 0,12,13
 170 734.143 170 734.143 170 827.071 c 128,-1,14
 170 920 170 920 201 978.5 c 128,-1,15
 232 1037 232 1037 284 1076.5 c 0,16,17
 388.658 1156 388.658 1156 550 1156 c 0,18,19
 672.154 1156 672.154 1156 733.077 1139.5 c 128,-1,20
 794 1123 794 1123 806 1117 c 1,21,-1
 768 934 l 1,22,23
 740.878 974.684 740.878 974.684 639 999.5 c 0,24,25
 600 1009 600 1009 556 1009 c 128,-1,26
 512 1009 512 1009 477 1001 c 128,-1,27
 442 993 442 993 415.5 976 c 0,28,29
 358 939.113 358 939.113 358 868 c 0,30,31
 358 770.714 358 770.714 451 691 c 1,32,-1
 589 575 l 1,33,34
 732 450.333 732 450.333 732 295 c 0,35,36
 732 144.829 732 144.829 620.5 62 c 0,37,38
 515.5 -16 515.5 -16 338 -16 c 0,39,40
 183.545 -16 183.545 -16 86 21 c 0,41,42
 57 32 57 32 44 43 c 1,43,-1
 81 214 l 1,0,1
EndSplineSet
EndChar

StartChar: t
Encoding: 116 116 85
Width: 741
Flags: HW
LayerCount: 2
Fore
SplineSet
336 -16 m 0,0,1
 153 -16 153 -16 153 163 c 2,2,-1
 153 174.5 l 2,3,4
 153 204.8 153 204.8 165 296 c 2,5,-1
 249 984 l 1,6,-1
 133 984 l 1,7,-1
 175 1140 l 1,8,-1
 280 1140 l 1,9,-1
 342 1420 l 1,10,-1
 507 1420 l 1,11,-1
 471 1140 l 1,12,-1
 733 1140 l 1,13,-1
 710 984 l 1,14,-1
 449 984 l 1,15,-1
 373 394 l 1,16,17
 360.5 307.5 l 2,18,19
 356 277.8 356 277.8 356 248 c 0,20,21
 356 139 356 139 412 139 c 0,22,23
 467.353 139 467.353 139 581 208 c 0,24,25
 609 225 609 225 625 237 c 1,26,-1
 650 129 l 1,27,28
 582.42 46.4018 582.42 46.4018 425.5 -1.5 c 0,29,30
 378 -16 378 -16 336 -16 c 0,0,1
EndSplineSet
EndChar

StartChar: u
Encoding: 117 117 86
Width: 1173
Flags: HW
LayerCount: 2
Fore
SplineSet
102 270 m 0,0,1
 102 336.3 102 336.3 117 450.65 c 0,2,3
 172.012 859.884 172.012 859.884 186.506 958.442 c 2,4,-1
 213 1140 l 1,5,-1
 409 1140 l 1,6,7
 398 1056 398 1056 385.5 970 c 2,8,-1
 339 641.5 l 2,9,10
 301 373.773 301 373.773 301 307.886 c 128,-1,11
 301 242 301 242 309.5 216.5 c 128,-1,12
 318 191 318 191 335 176.5 c 0,13,14
 364.897 151 364.897 151 421.948 151 c 128,-1,15
 479 151 479 151 526.5 172.5 c 128,-1,16
 574 194 574 194 621 230 c 0,17,18
 719.049 305.101 719.049 305.101 791 412 c 1,19,-1
 888 1140 l 1,20,-1
 1083 1140 l 1,21,-1
 932 0 l 1,22,-1
 750 0 l 1,23,-1
 771 218 l 1,24,25
 644.513 51.5701 644.513 51.5701 481 -1.5 c 0,26,27
 424 -20 424 -20 364 -20 c 0,28,29
 232 -20 232 -20 167 47 c 128,-1,30
 102 114 102 114 102 270 c 0,0,1
EndSplineSet
EndChar

StartChar: w
Encoding: 119 119 87
Width: 1662
Flags: HW
LayerCount: 2
Fore
SplineSet
1626 1140 m 1,0,1
 1627.75 1110.25 1627.75 1110.25 1627.75 1099.75 c 128,-1,2
 1627.75 1089.25 1627.75 1089.25 1627.38 1079.12 c 128,-1,3
 1627 1069 1627 1069 1625.5 1055 c 128,-1,4
 1624 1041 1624 1041 1619 974 c 128,-1,5
 1614 907 1614 907 1578.5 789.5 c 128,-1,6
 1543 672 1543 672 1491.5 562 c 0,7,8
 1392.13 349.759 1392.13 349.759 1249 178 c 2,9,-1
 1098 -4 l 1,10,-1
 923 -16 l 1,11,-1
 865 359 l 1,12,-1
 832 591 l 1,13,14
 718.709 318.178 718.709 318.178 606 184 c 1,15,-1
 455 -4 l 1,16,-1
 280 -16 l 1,17,-1
 222 359 l 1,18,-1
 108 1140 l 1,19,-1
 326 1140 l 1,20,-1
 397 359 l 1,21,-1
 407 154 l 1,22,-1
 541 342 l 1,23,24
 732.809 649.904 732.809 649.904 785 917 c 1,25,-1
 754 1140 l 1,26,-1
 968 1140 l 1,27,-1
 1041 359 l 1,28,-1
 1053 154 l 1,29,-1
 1184 336 l 1,30,-1
 1258 458.5 l 1,31,32
 1361.31 635.371 1361.31 635.371 1399 854 c 0,33,34
 1403 879 1403 879 1410.5 920.5 c 128,-1,35
 1418 962 1418 962 1424 1005 c 0,36,37
 1438.59 1109.53 1438.59 1109.53 1435 1140 c 1,38,-1
 1626 1140 l 1,0,1
EndSplineSet
EndChar

StartChar: x
Encoding: 120 120 88
Width: 953
Flags: HW
LayerCount: 2
Fore
SplineSet
372 590 m 1,0,-1
 118 1140 l 1,1,-1
 352 1140 l 1,2,-1
 495 729 l 1,3,-1
 769 1140 l 1,4,-1
 981 1140 l 1,5,-1
 559 568 l 1,6,-1
 834 4 l 1,7,-1
 605 4 l 1,8,-1
 437 433 l 1,9,-1
 155 4 l 1,10,-1
 -54 4 l 1,11,-1
 372 590 l 1,0,-1
EndSplineSet
EndChar

StartChar: y
Encoding: 121 121 89
Width: 1050
Flags: HW
LayerCount: 2
Fore
SplineSet
-139 -312 m 1,0,1
 -79 -342 -79 -342 -25.5 -342 c 128,-1,2
 28 -342 28 -342 75.5 -328 c 128,-1,3
 123 -314 123 -314 175 -277.5 c 0,4,5
 281.945 -202.433 281.945 -202.433 410 -16 c 1,6,-1
 289 -16 l 1,7,-1
 224 359 l 1,8,-1
 115 1140 l 1,9,-1
 331 1140 l 1,10,-1
 415 359 l 1,11,-1
 455 56 l 1,12,-1
 558 239 l 1,13,14
 760.385 562.106 760.385 562.106 802 1006 c 0,15,16
 806.477 1056.74 806.477 1056.74 809 1140 c 1,17,-1
 1001 1140 l 1,18,19
 1003 1109 1003 1109 1003 1075.5 c 128,-1,20
 1003 1042 1003 1042 998 976.5 c 128,-1,21
 993 911 993 911 972 813.5 c 128,-1,22
 951 716 951 716 918.5 618 c 0,23,24
 776.817 190.771 776.817 190.771 501 -154 c 1,25,26
 406.5 -268 l 1,27,28
 209.787 -501 209.787 -501 -53 -501 c 0,29,30
 -124.8 -501 -124.8 -501 -195 -474 c 1,31,-1
 -139 -312 l 1,0,1
EndSplineSet
EndChar

StartChar: z
Encoding: 122 122 90
Width: 965
Flags: HW
LayerCount: 2
Fore
SplineSet
-28 59 m 1,0,-1
 551 815 l 1,1,-1
 711 984 l 1,2,-1
 172 984 l 1,3,-1
 194 1140 l 1,4,-1
 917 1140 l 1,5,-1
 965 1088 l 1,6,-1
 368 306 l 1,7,-1
 224 156 l 1,8,-1
 822 156 l 1,9,-1
 807 0 l 1,10,-1
 30 0 l 1,11,-1
 -28 59 l 1,0,-1
EndSplineSet
EndChar

StartChar: braceleft
Encoding: 123 123 91
Width: 1024
Flags: HW
LayerCount: 2
Fore
SplineSet
1007 1688 m 1,0,1
 994 1605.67 994 1605.67 994 1601 c 1,2,-1
 718 1601 l 1,3,-1
 622 970 l 2,4,5
 609.759 886.35 609.759 886.35 489.5 827.5 c 0,6,7
 466 816 466 816 439 804 c 2,8,-1
 379 776 l 1,9,10
 484.652 722 484.652 722 514.326 691.5 c 0,11,12
 571.339 632.9 571.339 632.9 562 575 c 2,13,-1
 467 -55 l 1,14,-1
 742 -55 l 1,15,16
 740 -61 740 -61 738.5 -75.5 c 128,-1,17
 737 -90 737 -90 734.5 -106.5 c 128,-1,18
 732 -123 732 -123 730 -143 c 1,19,20
 607.614 -178.996 607.614 -178.996 551.807 -184.498 c 128,-1,21
 496 -190 496 -190 452 -190 c 128,-1,22
 408 -190 408 -190 376 -183 c 128,-1,23
 344 -176 344 -176 324 -159.5 c 0,24,25
 287 -128.975 287 -128.975 287 -47 c 0,26,27
 287 -42 287 -42 291 -12 c 2,28,-1
 332 277 l 2,29,30
 351 412 351 412 377 579 c 1,31,32
 377 634.591 377 634.591 249 685.5 c 0,33,34
 205 703 205 703 160 714 c 1,35,-1
 178 838 l 1,36,37
 423 898 423 898 435 966 c 1,38,-1
 512 1483 l 1,39,40
 536.489 1634.02 536.489 1634.02 582.5 1683.5 c 0,41,42
 630.386 1735 630.386 1735 747 1735 c 0,43,44
 815.083 1735 815.083 1735 1007 1688 c 1,0,1
EndSplineSet
EndChar

StartChar: bar
Encoding: 124 124 92
Width: 854
Flags: HW
LayerCount: 2
Fore
SplineSet
354 1780 m 1,0,-1
 527 1780 l 1,1,-1
 527 -186 l 1,2,-1
 354 -186 l 1,3,-1
 354 1780 l 1,0,-1
EndSplineSet
EndChar

StartChar: asciitilde
Encoding: 126 126 94
Width: 1137
Flags: HW
LayerCount: 2
Fore
SplineSet
405 892 m 0,0,1
 280.264 892 280.264 892 203 775 c 1,2,-1
 132 848 l 1,3,4
 158.524 927.571 158.524 927.571 243.5 989 c 0,5,6
 338.95 1058 338.95 1058 444 1058 c 0,7,8
 528.364 1058 528.364 1058 630 972 c 1,9,-1
 681 930.5 l 1,10,11
 738.051 886 738.051 886 786 886 c 0,12,13
 910.736 886 910.736 886 988 1003 c 1,14,-1
 1059 930 l 1,15,16
 1036.8 847.271 1036.8 847.271 948.5 784.5 c 0,17,18
 857.763 720 857.763 720 747 720 c 0,19,20
 661.182 720 661.182 720 561.5 806 c 0,21,22
 496.831 861.793 496.831 861.793 465.416 876.896 c 128,-1,23
 434 892 434 892 405 892 c 0,0,1
EndSplineSet
EndChar

StartChar: exclam
Encoding: 33 33 96
Width: 686
Flags: HW
LayerCount: 2
Fore
SplineSet
402 1778 m 1,0,-1
 627 1778 l 1,1,-1
 404 488 l 1,2,-1
 246 488 l 1,3,-1
 402 1778 l 1,0,-1
136.86 46.74 m 128,-1,5
 129.72 66.48 129.72 66.48 129.72 95.92 c 128,-1,6
 129.72 125.36 129.72 125.36 148.86 156.68 c 128,-1,7
 168 188 168 188 192 207.5 c 0,8,9
 244.308 250 244.308 250 293.654 250 c 128,-1,10
 343 250 343 250 367.5 240 c 0,11,12
 428.125 215.255 428.125 215.255 428.125 143.469 c 0,13,14
 428.125 66.3906 428.125 66.3906 367 18 c 0,15,16
 316.474 -22 316.474 -22 250 -22 c 0,17,18
 194.531 -22 194.531 -22 169.266 2.5 c 128,-1,4
 144 27 144 27 136.86 46.74 c 128,-1,5
EndSplineSet
EndChar

StartChar: sterling
Encoding: 163 163 97
Width: 1368
Flags: HW
LayerCount: 2
Fore
SplineSet
131 -10.5 m 0,0,1
 99 -20 99 -20 76 -20 c 128,-1,2
 53 -20 53 -20 37.5 -16.5 c 0,3,4
 -10.2727 -5.71261 -10.2727 -5.71261 -10.2727 49.2066 c 0,5,6
 -10.2727 120.286 -10.2727 120.286 78 180 c 0,7,8
 156.348 233 156.348 233 227 233 c 1,9,10
 312.448 301.358 312.448 301.358 338 493 c 1,11,-1
 380 744 l 1,12,-1
 203 744 l 1,13,-1
 221 875 l 1,14,-1
 402 875 l 1,15,-1
 418 966 l 1,16,17
 451.046 1207.24 451.046 1207.24 579.5 1366 c 0,18,19
 724.327 1545 724.327 1545 972 1545 c 0,20,21
 1108 1545 1108 1545 1178 1505 c 0,22,23
 1206 1489 1206 1489 1231 1463 c 1,24,-1
 1138 1323 l 1,25,26
 1118.05 1367.89 1118.05 1367.89 1020 1394.5 c 0,27,28
 985 1404 985 1404 941 1404 c 256,29,30
 774.653 1404 774.653 1404 677 1177.5 c 0,31,32
 641 1094 641 1094 620 968 c 1,33,-1
 603 875 l 1,34,-1
 914 875 l 1,35,-1
 897 744 l 1,36,-1
 580 744 l 1,37,-1
 572 696 l 1,38,39
 530.804 441.336 530.804 441.336 487.5 343.5 c 0,40,41
 463.507 289.293 463.507 289.293 416 217 c 1,42,43
 458 204 458 204 502 187.5 c 128,-1,44
 546 171 546 171 593 156 c 0,45,46
 702.667 121 702.667 121 788.833 121 c 128,-1,47
 875 121 875 121 928.5 135 c 128,-1,48
 982 149 982 149 1014 175 c 0,49,50
 1074 223.75 1074 223.75 1074 321 c 0,51,52
 1074 389.529 1074 389.529 1019 451 c 0,53,54
 1002 470 1002 470 983 481 c 1,55,-1
 1140 600 l 1,56,57
 1280 488 1280 488 1280 326 c 0,58,59
 1280 60.7785 1280 60.7785 1000.5 -3 c 0,60,61
 926 -20 926 -20 834 -20 c 128,-1,62
 742 -20 742 -20 671.5 -8.5 c 128,-1,63
 601 3 601 3 536.5 21 c 128,-1,64
 472 39 472 39 413 60.5 c 2,65,-1
 297 102 l 1,66,67
 233.978 20.0717 233.978 20.0717 131 -10.5 c 0,0,1
EndSplineSet
EndChar

StartChar: currency
Encoding: 164 164 98
Width: 1540
Flags: HW
LayerCount: 2
Fore
SplineSet
782 252 m 128,-1,1
 646.971 252 646.971 252 540 324 c 1,2,-1
 346 130 l 1,3,-1
 232 243 l 1,4,-1
 424 435 l 1,5,6
 342 548.538 342 548.538 342 688.427 c 128,-1,7
 342 828.316 342 828.316 422 942 c 1,8,-1
 229 1135 l 1,9,-1
 342 1249 l 1,10,-1
 536 1053 l 1,11,12
 649.571 1128 649.571 1128 786.233 1128 c 128,-1,13
 922.895 1128 922.895 1128 1038 1047 c 1,14,-1
 1228 1236 l 1,15,-1
 1341 1122 l 1,16,-1
 1150 931 l 1,17,18
 1222 820.882 1222 820.882 1222 688.122 c 128,-1,19
 1222 555.361 1222 555.361 1145 442 c 1,20,-1
 1339 248 l 1,21,-1
 1225 135 l 1,22,-1
 1031 328 l 1,23,0
 917 252 917 252 782 252 c 128,-1,1
490 690 m 256,24,25
 490 564.329 490 564.329 575.5 474.5 c 0,26,27
 660.687 385 660.687 385 782 385 c 256,28,29
 903.313 385 903.313 385 988.5 474.5 c 0,30,31
 1074 564.329 1074 564.329 1074 690 c 256,32,33
 1074 815.671 1074 815.671 988.5 905.5 c 0,34,35
 903.313 995 903.313 995 782 995 c 256,36,37
 660.687 995 660.687 995 575.5 905.5 c 0,38,39
 490 815.671 490 815.671 490 690 c 256,24,25
EndSplineSet
EndChar

StartChar: brokenbar
Encoding: 166 166 99
Width: 854
Flags: HW
LayerCount: 2
Fore
SplineSet
354 1780 m 1,0,-1
 527 1780 l 1,1,-1
 527 886 l 1,2,-1
 354 886 l 1,3,-1
 354 1780 l 1,0,-1
354 708 m 1,4,-1
 527 708 l 1,5,-1
 527 -186 l 1,6,-1
 354 -186 l 1,7,-1
 354 708 l 1,4,-1
EndSplineSet
EndChar

StartChar: section
Encoding: 167 167 100
Width: 1194
Flags: HW
LayerCount: 2
Fore
SplineSet
961 388 m 1,0,1
 1053.09 304.893 1053.09 304.893 1053.09 206.245 c 128,-1,2
 1053.09 107.598 1053.09 107.598 1012.55 35.2988 c 128,-1,3
 972 -37 972 -37 897 -86.5 c 0,4,5
 746.242 -186 746.242 -186 496 -186 c 0,6,7
 382.333 -186 382.333 -186 300.667 -156 c 0,8,9
 168.845 -107.576 168.845 -107.576 131 -65 c 1,10,-1
 186 85 l 1,11,12
 232.259 15.6118 232.259 15.6118 402.5 -20.5 c 0,13,14
 452 -31 452 -31 499 -31 c 0,15,16
 847 -31 847 -31 847 160 c 0,17,18
 847 271.529 847 271.529 590 378 c 1,19,20
 328.495 484.812 328.495 484.812 240 660.5 c 0,21,22
 204.918 730.149 204.918 730.149 204.918 816.27 c 128,-1,23
 204.918 902.392 204.918 902.392 250.459 959.196 c 128,-1,24
 296 1016 296 1016 382 1059 c 1,25,26
 244.889 1184.69 244.889 1184.69 244.889 1351.96 c 0,27,28
 244.889 1491.25 244.889 1491.25 376 1580 c 0,29,30
 513.386 1673 513.386 1673 750 1673 c 0,31,32
 975.647 1673 975.647 1673 1093 1568 c 1,33,-1
 1030 1417 l 1,34,35
 965.733 1497.33 965.733 1497.33 802.5 1517 c 0,36,37
 761 1522 761 1522 717 1522 c 128,-1,38
 673 1522 673 1522 623 1509.5 c 128,-1,39
 573 1497 573 1497 536.5 1476 c 0,40,41
 452.273 1427.54 452.273 1427.54 452.273 1345.16 c 0,42,43
 452.273 1254.8 452.273 1254.8 522.5 1193 c 0,44,45
 560 1160 560 1160 616.5 1129.5 c 1,46,-1
 747 1062 l 1,47,48
 896.73 989.55 896.73 989.55 963.365 924.275 c 128,-1,49
 1030 859 1030 859 1060.5 800 c 0,50,51
 1093.03 737.077 1093.03 737.077 1093.03 663.614 c 0,52,53
 1093.03 489.084 1093.03 489.084 961 388 c 1,0,1
500 972 m 1,54,55
 412.273 921.096 412.273 921.096 412.273 824.124 c 0,56,57
 412.273 732.673 412.273 732.673 482.5 669 c 0,58,59
 533.525 622.738 533.525 622.738 635.262 572.869 c 128,-1,60
 737 523 737 523 766.5 509.5 c 128,-1,61
 796 496 796 496 825 481 c 1,62,63
 887 536.586 887 536.586 887 631 c 0,64,65
 887 707.464 887 707.464 850 751.732 c 0,66,67
 781.356 833.859 781.356 833.859 630 904 c 0,68,69
 552.267 939.333 552.267 939.333 500 972 c 1,54,55
EndSplineSet
EndChar

StartChar: dieresis
Encoding: 168 168 101
Width: 809
Flags: HW
LayerCount: 2
Fore
SplineSet
512 1423.5 m 0,0,1
 455.116 1482.16 455.116 1482.16 493.5 1562 c 0,2,3
 519.621 1616.33 519.621 1616.33 572 1639.5 c 0,4,5
 598 1651 598 1651 625.5 1651 c 128,-1,6
 653 1651 653 1651 676.5 1641.5 c 0,7,8
 747.111 1612.95 747.111 1612.95 747.111 1541.09 c 0,9,10
 747.111 1478.49 747.111 1478.49 700 1432.5 c 0,11,12
 654.415 1388 654.415 1388 612.707 1388 c 0,13,14
 546.424 1388 546.424 1388 512 1423.5 c 0,0,1
129.5 1397.5 m 0,15,16
 59.8947 1428.26 59.8947 1428.26 59.8947 1502.97 c 0,17,18
 59.8947 1561.89 59.8947 1561.89 106 1608 c 0,19,20
 149 1651 149 1651 191 1651 c 128,-1,21
 233 1651 233 1651 256.5 1641.5 c 0,22,23
 327.111 1612.96 327.111 1612.96 327.111 1541.09 c 0,24,25
 327.111 1478.49 327.111 1478.49 280 1432.5 c 0,26,27
 234.415 1388 234.415 1388 192.707 1388 c 128,-1,28
 151 1388 151 1388 129.5 1397.5 c 0,15,16
EndSplineSet
EndChar

StartChar: copyright
Encoding: 169 169 102
Width: 2129
Flags: HW
LayerCount: 2
Fore
SplineSet
194 962.5 m 0,0,1
 194 1084 194 1084 224.5 1196.5 c 128,-1,2
 255 1309 255 1309 311.5 1406.5 c 128,-1,3
 368 1504 368 1504 447 1584 c 128,-1,4
 526 1664 526 1664 622.5 1721 c 0,5,6
 823.965 1840 823.965 1840 1064 1840 c 256,7,8
 1303.49 1840 1303.49 1840 1506 1721 c 0,9,10
 1702.78 1605.37 1702.78 1605.37 1817 1406.5 c 0,11,12
 1935 1201.05 1935 1201.05 1935 963 c 0,13,14
 1935 724.5 1935 724.5 1817 518 c 0,15,16
 1641.17 210.298 1641.17 210.298 1297 113.5 c 0,17,18
 1185 82 1185 82 1064 82 c 256,19,20
 825.658 82 825.658 82 622.5 202 c 0,21,22
 427.164 317.38 427.164 317.38 311.5 518 c 0,23,24
 194 721.805 194 721.805 194 962.5 c 0,0,1
361 1162 m 0,25,26
 336 1066 336 1066 336 962.5 c 128,-1,27
 336 859 336 859 361 763.5 c 128,-1,28
 386 668 386 668 432 584 c 128,-1,29
 478 500 478 500 543 431.5 c 128,-1,30
 608 363 608 363 689 314 c 0,31,32
 859.265 211 859.265 211 1064 211 c 256,33,34
 1268.73 211 1268.73 211 1439 314 c 0,35,36
 1688.91 465.177 1688.91 465.177 1767 763.5 c 0,37,38
 1792 859 1792 859 1792 962.5 c 128,-1,39
 1792 1066 1792 1066 1767 1162 c 128,-1,40
 1742 1258 1742 1258 1696 1341.5 c 128,-1,41
 1650 1425 1650 1425 1585 1493.5 c 128,-1,42
 1520 1562 1520 1562 1439 1611 c 0,43,44
 1268.73 1714 1268.73 1714 1064 1714 c 256,45,46
 859.265 1714 859.265 1714 689 1611 c 0,47,48
 438.458 1459.44 438.458 1459.44 361 1162 c 0,25,26
1335 697 m 1,49,-1
 1380 573 l 1,50,51
 1267.2 479 1267.2 479 1061 479 c 0,52,53
 861.12 479 861.12 479 737.5 624.5 c 0,54,55
 621 761.619 621 761.619 621 956 c 0,56,57
 621 1174.95 621 1174.95 748 1308 c 0,58,59
 883.545 1450 883.545 1450 1117 1450 c 0,60,61
 1251 1450 1251 1450 1355 1394 c 1,62,-1
 1323 1230 l 1,63,64
 1225 1293 1225 1293 1098 1293 c 0,65,66
 963.805 1293 963.805 1293 887.5 1199.5 c 0,67,68
 815 1110.66 815 1110.66 815 971 c 0,69,70
 815 811.575 815 811.575 891.5 722.5 c 0,71,72
 965.788 636 965.788 636 1097.71 636 c 128,-1,73
 1229.64 636 1229.64 636 1335 697 c 1,49,-1
EndSplineSet
EndChar

StartChar: guilsinglleft
Encoding: 8249 8249 104
Width: 1190
Flags: HW
LayerCount: 2
Fore
SplineSet
256 690 m 1,0,-1
 948 1086 l 1,1,-1
 986 971 l 1,2,-1
 476 615 l 1,3,-1
 890 264 l 1,4,-1
 820 152 l 1,5,-1
 234 530 l 1,6,-1
 256 690 l 1,0,-1
EndSplineSet
EndChar

StartChar: registered
Encoding: 174 174 105
Width: 2129
Flags: HW
LayerCount: 2
Fore
SplineSet
194 962.5 m 0,0,1
 194 1084 194 1084 224.5 1196.5 c 128,-1,2
 255 1309 255 1309 311.5 1406.5 c 128,-1,3
 368 1504 368 1504 447 1584 c 128,-1,4
 526 1664 526 1664 622.5 1721 c 0,5,6
 823.965 1840 823.965 1840 1064 1840 c 256,7,8
 1303.49 1840 1303.49 1840 1506 1721 c 0,9,10
 1702.78 1605.37 1702.78 1605.37 1817 1406.5 c 0,11,12
 1935 1201.05 1935 1201.05 1935 963 c 0,13,14
 1935 724.5 1935 724.5 1817 518 c 0,15,16
 1641.17 210.298 1641.17 210.298 1297 113.5 c 0,17,18
 1185 82 1185 82 1064 82 c 256,19,20
 825.658 82 825.658 82 622.5 202 c 0,21,22
 427.164 317.38 427.164 317.38 311.5 518 c 0,23,24
 194 721.805 194 721.805 194 962.5 c 0,0,1
361 1162 m 0,25,26
 336 1066 336 1066 336 962.5 c 128,-1,27
 336 859 336 859 361 763.5 c 128,-1,28
 386 668 386 668 432 584 c 128,-1,29
 478 500 478 500 543 431.5 c 128,-1,30
 608 363 608 363 689 314 c 0,31,32
 859.265 211 859.265 211 1064 211 c 256,33,34
 1268.73 211 1268.73 211 1439 314 c 0,35,36
 1688.91 465.177 1688.91 465.177 1767 763.5 c 0,37,38
 1792 859 1792 859 1792 962.5 c 128,-1,39
 1792 1066 1792 1066 1767 1162 c 128,-1,40
 1742 1258 1742 1258 1696 1341.5 c 128,-1,41
 1650 1425 1650 1425 1585 1493.5 c 128,-1,42
 1520 1562 1520 1562 1439 1611 c 0,43,44
 1268.73 1714 1268.73 1714 1064 1714 c 256,45,46
 859.265 1714 859.265 1714 689 1611 c 0,47,48
 438.458 1459.44 438.458 1459.44 361 1162 c 0,25,26
1432 1174 m 0,49,50
 1432 932.264 1432 932.264 1239 874 c 1,51,52
 1299.97 827.104 1299.97 827.104 1359 703.5 c 0,53,54
 1388.21 642.336 1388.21 642.336 1403.11 619.168 c 2,55,-1
 1495 479 l 1,56,-1
 1291 480 l 1,57,58
 1243.38 540.954 1243.38 540.954 1203.69 633.977 c 128,-1,59
 1164 727 1164 727 1143.5 759 c 0,60,61
 1095.41 834.068 1095.41 834.068 1039 849 c 1,62,63
 1019 848 1019 848 985.5 848 c 2,64,-1
 915 848 l 1,65,-1
 915 479 l 1,66,-1
 738 479 l 1,67,-1
 738 1441 l 1,68,-1
 815 1441 l 1,69,-1
 1073 1448 l 1,70,71
 1252.96 1448 1252.96 1448 1347.5 1366.5 c 0,72,73
 1432 1293.66 1432 1293.66 1432 1174 c 0,49,50
1204 1273.5 m 0,74,75
 1179 1295 1179 1295 1138.72 1305.65 c 128,-1,76
 1098.44 1316.3 1098.44 1316.3 1029.31 1316.3 c 128,-1,77
 960.185 1316.3 960.185 1316.3 915 1305 c 1,78,-1
 915 980 l 1,79,80
 959 976 959 976 995.5 976 c 2,81,-1
 1045 976 l 2,82,83
 1146 976 1146 976 1197 1015 c 128,-1,84
 1248 1054 1248 1054 1248 1151 c 0,85,86
 1248 1235.66 1248 1235.66 1204 1273.5 c 0,74,75
EndSplineSet
EndChar

StartChar: macron
Encoding: 175 175 106
Width: 614
Flags: HW
LayerCount: 2
Fore
SplineSet
45 1574 m 1,0,-1
 555 1574 l 1,1,-1
 550 1425 l 1,2,-1
 41 1425 l 1,3,-1
 45 1574 l 1,0,-1
EndSplineSet
EndChar

StartChar: degree
Encoding: 176 176 107
Width: 899
Flags: HW
LayerCount: 2
Fore
SplineSet
464.5 955 m 0,0,1
 394 955 394 955 335 980.5 c 0,2,3
 214.456 1032.6 214.456 1032.6 166.5 1153 c 0,4,5
 143.959 1209.59 143.959 1209.59 143.959 1242.45 c 0,6,7
 143.959 1344.66 143.959 1344.66 170.48 1404.33 c 128,-1,8
 197 1464 197 1464 242 1507.5 c 0,9,10
 337.69 1600 337.69 1600 482 1600 c 0,11,12
 619 1600 619 1600 713.5 1505.5 c 0,13,14
 804.04 1414.96 804.04 1414.96 804.04 1283.27 c 0,15,16
 804.04 1141.07 804.04 1141.07 704.5 1047 c 0,17,18
 607.151 955 607.151 955 464.5 955 c 0,0,1
471 1076 m 0,19,20
 512 1076 512 1076 547 1091 c 128,-1,21
 582 1106 582 1106 608 1133 c 0,22,23
 664.065 1191.22 664.065 1191.22 664.065 1283.4 c 0,24,25
 664.065 1362.69 664.065 1362.69 611 1420 c 0,26,27
 556.37 1479 556.37 1479 477 1479 c 0,28,29
 393.333 1479 393.333 1479 339.5 1422 c 0,30,31
 283.933 1363.16 283.933 1363.16 283.933 1272.42 c 0,32,33
 283.933 1192.19 283.933 1192.19 336.5 1135.5 c 0,34,35
 391.673 1076 391.673 1076 471 1076 c 0,19,20
EndSplineSet
EndChar

StartChar: plusminus
Encoding: 177 177 108
Width: 1366
Flags: HW
LayerCount: 2
Fore
SplineSet
581 536 m 1,0,-1
 607 700 l 1,1,-1
 466 693 l 1,2,-1
 241 693 l 1,3,-1
 259 851 l 1,4,-1
 484 851 l 1,5,-1
 623 840 l 1,6,7
 626 882 626 882 630 923 c 128,-1,8
 634 964 634 964 637 1005 c 1,9,-1
 663 1235 l 1,10,-1
 841 1235 l 1,11,-1
 815 1005 l 1,12,-1
 786 841 l 1,13,-1
 901 851 l 1,14,-1
 1156 851 l 1,15,-1
 1138 693 l 1,16,-1
 883 693 l 1,17,-1
 771 700 l 1,18,19
 769 658 769 658 765.5 618 c 128,-1,20
 762 578 762 578 760 536 c 1,21,-1
 733 295 l 1,22,-1
 554 295 l 1,23,-1
 581 536 l 1,0,-1
189 180 m 1,24,-1
 1058 180 l 1,25,-1
 1041 30 l 1,26,-1
 172 30 l 1,27,-1
 189 180 l 1,24,-1
EndSplineSet
EndChar

StartChar: acute
Encoding: 180 180 109
Width: 559
Flags: HW
LayerCount: 2
Fore
SplineSet
49 1312 m 1,0,-1
 356 1713 l 1,1,-1
 508 1576 l 1,2,3
 477.802 1518.96 477.802 1518.96 351 1400.5 c 0,4,5
 211.451 1270.13 211.451 1270.13 132 1241 c 1,6,-1
 49 1312 l 1,0,-1
EndSplineSet
EndChar

StartChar: paragraph
Encoding: 182 182 110
Width: 1364
Flags: HW
LayerCount: 2
Fore
SplineSet
516 774 m 1,0,1
 267.147 780.221 267.147 780.221 188 972 c 0,2,3
 160.875 1037.73 160.875 1037.73 160.875 1130.47 c 128,-1,4
 160.875 1223.22 160.875 1223.22 189.938 1304.11 c 128,-1,5
 219 1385 219 1385 286 1445 c 0,6,7
 426.7 1571 426.7 1571 716 1571 c 0,8,9
 801.429 1571 801.429 1571 882.214 1564.5 c 0,10,11
 1037.57 1552 1037.57 1552 1090 1552 c 2,12,-1
 1349 1552 l 1,13,-1
 1338 1449 l 1,14,-1
 1171 1416 l 1,15,16
 1012.69 172.045 1012.69 172.045 992 0 c 1,17,-1
 802 0 l 1,18,-1
 977 1414 l 1,19,-1
 783 1414 l 1,20,-1
 606 0 l 1,21,-1
 414 0 l 1,22,-1
 516 774 l 1,0,1
EndSplineSet
EndChar

StartChar: cedilla
Encoding: 184 184 112
Width: 479
Flags: HW
LayerCount: 2
Fore
SplineSet
260 -39.5 m 2,0,1
 260 10 260 10 255 30 c 1,2,-1
 332 34 l 1,3,-1
 385 30 l 1,4,5
 430 -32.1429 430 -32.1429 430 -141.071 c 128,-1,6
 430 -250 430 -250 407.5 -307 c 128,-1,7
 385 -364 385 -364 346.5 -399 c 0,8,9
 275 -464 275 -464 152 -464 c 0,10,11
 86.8 -464 86.8 -464 49.4 -453 c 128,-1,12
 12 -442 12 -442 4 -436 c 1,13,-1
 29 -285 l 1,14,15
 55 -299 55 -299 93 -299 c 128,-1,16
 131 -299 131 -299 159.5 -292 c 128,-1,17
 188 -285 188 -285 210 -265 c 0,18,19
 259 -220.455 259 -220.455 259 -119 c 1,20,-1
 260 -39.5 l 2,0,1
EndSplineSet
EndChar

StartChar: questiondown
Encoding: 191 191 114
Width: 1028
Flags: HW
LayerCount: 2
Fore
SplineSet
663 1177.5 m 128,-1,1
 634 1164 634 1164 600 1164 c 128,-1,2
 566 1164 566 1164 543.5 1173 c 128,-1,3
 521 1182 521 1182 506.5 1197.5 c 0,4,5
 479 1226.9 479 1226.9 479 1288.95 c 128,-1,6
 479 1351 479 1351 521.5 1393.5 c 128,-1,7
 564 1436 564 1436 636 1436 c 0,8,9
 714.683 1436 714.683 1436 745.5 1369.5 c 0,10,11
 755 1349 755 1349 755 1321 c 128,-1,12
 755 1293 755 1293 744 1264 c 128,-1,13
 733 1235 733 1235 712.5 1213 c 128,-1,0
 692 1191 692 1191 663 1177.5 c 128,-1,1
87 70 m 0,14,15
 87 154 87 154 110.5 220 c 128,-1,16
 134 286 134 286 172 335 c 128,-1,17
 210 384 210 384 259 420.5 c 128,-1,18
 308 457 308 457 358.5 486.5 c 1,19,-1
 458 542 l 1,20,21
 565.214 598.889 565.214 598.889 606.5 659.5 c 0,22,23
 630 694 630 694 630 728.5 c 128,-1,24
 630 763 630 763 624 786.5 c 128,-1,25
 618 810 618 810 610.5 831.5 c 128,-1,26
 603 853 603 853 596 871 c 128,-1,27
 589 889 589 889 586 901 c 1,28,-1
 713 951 l 1,29,-1
 730 950 l 1,30,31
 788.407 901.327 788.407 901.327 812.5 790.5 c 0,32,33
 820 756 820 756 820 716.5 c 128,-1,34
 820 677 820 677 801.5 638 c 128,-1,35
 783 599 783 599 747 562 c 0,36,37
 683.229 496.457 683.229 496.457 531 414 c 1,38,39
 298.574 297.787 298.574 297.787 277 193 c 0,40,41
 268 153.4 268 153.4 268 87.7 c 128,-1,42
 268 22 268 22 297.5 -35 c 128,-1,43
 327 -92 327 -92 374.5 -129.5 c 0,44,45
 470.133 -205 470.133 -205 602 -205 c 0,46,47
 720 -205 720 -205 819 -172 c 1,48,-1
 791 -312 l 1,49,50
 755.778 -347.222 755.778 -347.222 649 -361 c 0,51,52
 618 -365 618 -365 588 -365 c 0,53,54
 332.76 -365 332.76 -365 199.5 -229.5 c 0,55,56
 87 -115.109 87 -115.109 87 70 c 0,14,15
EndSplineSet
EndChar

StartChar: Eth
Encoding: 208 208 115
Width: 1377
Flags: HW
LayerCount: 2
Fore
SplineSet
411 1530 m 1,0,-1
 721 1546 l 1,1,2
 1012.87 1546 1012.87 1546 1159.5 1373 c 0,3,4
 1298.16 1209.4 1298.16 1209.4 1298.16 901.356 c 0,5,6
 1298.16 509.442 1298.16 509.442 1090 250 c 0,7,8
 949.671 75.0975 949.671 75.0975 743 12.5 c 0,9,10
 648.043 -16.2609 648.043 -16.2609 542.25 -16.2609 c 0,11,12
 514.783 -16.2609 514.783 -16.2609 498.391 -15.1304 c 2,13,-1
 436 -11 l 2,14,15
 421 -10 421 -10 407.5 -9 c 2,16,-1
 372.5 -6.5 l 2,17,18
 279.333 -4.52871e-07 279.333 -4.52871e-07 233 0 c 2,19,-1
 110 0 l 1,20,-1
 201 722 l 1,21,-1
 42 722 l 1,22,-1
 58 852 l 1,23,-1
 217 852 l 1,24,-1
 303 1530 l 1,25,-1
 411 1530 l 1,0,-1
328 163 m 1,26,27
 418.16 133.6 418.16 133.6 538.78 133.6 c 0,28,29
 822.011 133.6 822.011 133.6 971 390 c 0,30,31
 1093.07 600.081 1093.07 600.081 1093.07 892.661 c 0,32,33
 1093.07 1174.92 1093.07 1174.92 989 1291 c 0,34,35
 891.276 1400 891.276 1400 662 1400 c 0,36,37
 553.25 1400 553.25 1400 482 1381 c 1,38,-1
 415 852 l 1,39,-1
 797 852 l 1,40,-1
 781 722 l 1,41,-1
 399 722 l 1,42,-1
 328 163 l 1,26,27
EndSplineSet
EndChar

StartChar: multiply
Encoding: 215 215 116
Width: 1370
Flags: HW
LayerCount: 2
Fore
SplineSet
231 438 m 1,0,-1
 614 765 l 1,1,-1
 313 1092 l 1,2,-1
 445 1215 l 1,3,-1
 726 865 l 1,4,-1
 1095 1215 l 1,5,-1
 1197 1092 l 1,6,-1
 814 765 l 1,7,-1
 1115 438 l 1,8,-1
 983 315 l 1,9,-1
 702 665 l 1,10,-1
 333 315 l 1,11,-1
 231 438 l 1,0,-1
EndSplineSet
EndChar

StartChar: Thorn
Encoding: 222 222 117
Width: 1210
Flags: HW
LayerCount: 2
Fore
SplineSet
529.5 270 m 0,0,1
 398 270 398 270 343 280 c 1,2,-1
 308 0 l 1,3,-1
 110 0 l 1,4,-1
 303 1530 l 1,5,-1
 501 1530 l 1,6,-1
 469 1283 l 1,7,8
 647.5 1297 647.5 1297 682 1297 c 0,9,10
 1133.12 1297 1133.12 1297 1139 907 c 0,11,12
 1139.19 897.716 1139.19 897.716 1139.19 888.547 c 0,13,14
 1139.19 610.715 1139.19 610.715 971 441.5 c 0,15,16
 800.539 270 800.539 270 529.5 270 c 0,0,1
938.056 896.057 m 0,17,18
 938.056 1148 938.056 1148 650 1148 c 0,19,20
 565.5 1148 565.5 1148 450 1127 c 1,21,-1
 363 440 l 1,22,23
 423.667 426 423.667 426 531 426 c 1,24,25
 938.056 429.84 938.056 429.84 938.056 896.057 c 0,17,18
EndSplineSet
EndChar

StartChar: germandbls
Encoding: 223 223 118
Width: 1180
Flags: HW
LayerCount: 2
Fore
SplineSet
194 931 m 2,0,1
 258.203 1437.87 258.203 1437.87 548.5 1552 c 0,2,3
 642.609 1589 642.609 1589 744.804 1589 c 128,-1,4
 847 1589 847 1589 905 1570.5 c 128,-1,5
 963 1552 963 1552 1005 1515.5 c 0,6,7
 1095 1437.29 1095 1437.29 1095 1297 c 0,8,9
 1095 1135 1095 1135 969.5 1009.5 c 1,10,-1
 909 946.5 l 1,11,12
 844 875.696 844 875.696 844 819 c 0,13,14
 844 786.171 844 786.171 872.5 747.086 c 128,-1,15
 901 708 901 708 921.5 682.5 c 128,-1,16
 942 657 942 657 962 628.5 c 128,-1,17
 982 600 982 600 1004 565 c 128,-1,18
 1026 530 1026 530 1044 490 c 0,19,20
 1085 398.889 1085 398.889 1085 319.944 c 128,-1,21
 1085 241 1085 241 1058.5 181 c 128,-1,22
 1032 121 1032 121 980.5 77 c 0,23,24
 871.648 -16 871.648 -16 679 -16 c 0,25,26
 579.353 -16 579.353 -16 511.676 3.5 c 128,-1,27
 444 23 444 23 428 31 c 1,28,-1
 454 218 l 1,29,30
 510.829 165.543 510.829 165.543 597 144 c 0,31,32
 629 136 629 136 675.5 136 c 128,-1,33
 722 136 722 136 763 144.5 c 128,-1,34
 804 153 804 153 830 172.5 c 0,35,36
 879 209.25 879 209.25 879 302 c 0,37,38
 879 396.467 879 396.467 790 527 c 1,39,40
 656 685.364 656 685.364 656 797 c 0,41,42
 656 863.679 656 863.679 677.5 902.839 c 0,43,44
 708.445 959.204 708.445 959.204 748.723 1001.6 c 128,-1,45
 789 1044 789 1044 813.5 1075.5 c 128,-1,46
 838 1107 838 1107 855.5 1140.5 c 0,47,48
 893 1212.29 893 1212.29 893 1267.64 c 128,-1,49
 893 1323 893 1323 882.5 1351.5 c 128,-1,50
 872 1380 872 1380 851 1401.5 c 0,51,52
 805.581 1448 805.581 1448 733.791 1448 c 128,-1,53
 662 1448 662 1448 610 1424.5 c 128,-1,54
 558 1401 558 1401 514.5 1337 c 0,55,56
 423.075 1202.49 423.075 1202.49 380 871 c 1,57,-1
 271 4 l 1,58,-1
 77 4 l 1,59,-1
 194 931 l 2,0,1
EndSplineSet
EndChar

StartChar: eth
Encoding: 240 240 119
Width: 1182
Flags: HW
LayerCount: 2
Fore
SplineSet
393 1781 m 1,0,1
 526.385 1742.89 526.385 1742.89 686 1638 c 1,2,-1
 839 1816 l 1,3,-1
 937 1727 l 1,4,-1
 789 1558 l 1,5,6
 944 1410 944 1410 1016 1241.5 c 128,-1,7
 1088 1073 1088 1073 1088 869 c 0,8,9
 1088 492.24 1088 492.24 936 246 c 0,10,11
 774.272 -16 774.272 -16 495 -16 c 0,12,13
 302.789 -16 302.789 -16 188.5 134.5 c 0,14,15
 89 265.525 89 265.525 89 446 c 0,16,17
 89 771.877 89 771.877 263 970.5 c 0,18,19
 425.504 1156 425.504 1156 648 1156 c 0,20,21
 773.705 1156 773.705 1156 855.5 1095 c 0,22,23
 885 1073 885 1073 904 1042 c 1,24,25
 881.832 1177.02 881.832 1177.02 844.916 1246.51 c 0,26,27
 785.391 1358.56 785.391 1358.56 690 1446 c 1,28,-1
 540 1278 l 1,29,-1
 434 1366 l 1,30,-1
 591 1529 l 1,31,32
 446.376 1637.47 446.376 1637.47 350 1662 c 1,33,-1
 393 1781 l 1,0,1
319.5 639 m 128,-1,35
 300 536 300 536 300 455 c 128,-1,36
 300 374 300 374 314.5 317.5 c 128,-1,37
 329 261 329 261 357.5 217.5 c 0,38,39
 420.069 122 420.069 122 524 122 c 0,40,41
 646.969 122 646.969 122 743.5 263 c 0,42,43
 836.116 398.281 836.116 398.281 867 598 c 1,44,-1
 874 641 l 2,45,46
 878 665 878 665 881.5 689.5 c 2,47,-1
 888 736.5 l 2,48,49
 892.143 767.572 892.143 767.572 892.143 780.464 c 128,-1,50
 892.143 793.357 892.143 793.357 886.571 815.179 c 128,-1,51
 881 837 881 837 868 863.5 c 128,-1,52
 855 890 855 890 835 917 c 128,-1,53
 815 944 815 944 787 965.5 c 0,54,55
 723.837 1014 723.837 1014 637.919 1014 c 128,-1,56
 552 1014 552 1014 487.5 961.5 c 128,-1,57
 423 909 423 909 381 825.5 c 128,-1,34
 339 742 339 742 319.5 639 c 128,-1,35
EndSplineSet
EndChar

StartChar: oslash
Encoding: 248 248 120
Width: 1135
Flags: HW
LayerCount: 2
Fore
SplineSet
928 1056 m 1,0,1
 1042.05 935.836 1042.05 935.836 1042.05 688.171 c 0,2,3
 1042.05 411.092 1042.05 411.092 889 206 c 0,4,5
 785.965 67.9335 785.965 67.9335 638.5 13.5 c 0,6,7
 564 -14 564 -14 480 -14 c 0,8,9
 343 -14 343 -14 251 52 c 1,10,-1
 123 -132 l 1,11,-1
 34 -83 l 1,12,-1
 178 125 l 1,13,14
 89.8049 247.436 89.8049 247.436 89.8049 464.728 c 0,15,16
 89.8049 731.175 89.8049 731.175 248 939 c 0,17,18
 352.058 1075.7 352.058 1075.7 502.5 1130.5 c 0,19,20
 578 1158 578 1158 673.5 1158 c 128,-1,21
 769 1158 769 1158 846 1117 c 1,22,-1
 977 1303 l 1,23,-1
 1066 1254 l 1,24,-1
 928 1056 l 1,0,1
741 980 m 1,25,26
 696 1011 696 1011 635 1011 c 128,-1,27
 574 1011 574 1011 526.5 986.5 c 128,-1,28
 479 962 479 962 441 920.5 c 128,-1,29
 403 879 403 879 374.5 823.5 c 0,30,31
 292.895 664.584 292.895 664.584 292.895 462.097 c 0,32,33
 292.895 371.421 292.895 371.421 310 303 c 1,34,-1
 741 980 l 1,25,26
362 197 m 1,35,36
 415 133 415 133 510 133 c 0,37,38
 616.833 133 616.833 133 697 224 c 0,39,40
 802.729 344.017 802.729 344.017 830 569 c 0,41,42
 837.111 627.667 837.111 627.667 837.111 658.889 c 0,43,44
 837.111 811.652 837.111 811.652 805 893 c 1,45,-1
 362 197 l 1,35,36
EndSplineSet
EndChar

StartChar: thorn
Encoding: 254 254 121
Width: 1163
Flags: HW
LayerCount: 2
Fore
SplineSet
626.5 17 m 0,0,1
 535 -16 535 -16 445.071 -16 c 128,-1,2
 355.143 -16 355.143 -16 278 -1 c 1,3,-1
 202 -516 l 1,4,-1
 12 -516 l 1,5,-1
 83 -16 l 1,6,-1
 302 1638 l 1,7,-1
 487 1638 l 1,8,-1
 432 1147 l 1,9,-1
 396 954 l 1,10,11
 498.817 1089.87 498.817 1089.87 647.5 1138.5 c 0,12,13
 701 1156 701 1156 770 1156 c 128,-1,14
 839 1156 839 1156 897.5 1125 c 128,-1,15
 956 1094 956 1094 994.5 1037.5 c 0,16,17
 1070 926.701 1070 926.701 1070 724 c 0,18,19
 1070 454.377 1070 454.377 915 236.5 c 0,20,21
 804.521 81.2044 804.521 81.2044 626.5 17 c 0,0,1
868 700 m 0,22,23
 868 1004 868 1004 725 1004 c 0,24,25
 583.116 1004 583.116 1004 442 840 c 0,26,27
 405 797 405 797 380 759 c 1,28,-1
 300 151 l 1,29,30
 372 127 372 127 448.5 127 c 128,-1,31
 525 127 525 127 583.5 153 c 128,-1,32
 642 179 642 179 688 223 c 128,-1,33
 734 267 734 267 768 324.5 c 128,-1,34
 802 382 802 382 824 446 c 0,35,36
 868 574 868 574 868 700 c 0,22,23
EndSplineSet
EndChar

StartChar: endash
Encoding: 8211 8211 122
Width: 1538
Flags: HW
LayerCount: 2
Fore
SplineSet
248 851 m 1,0,-1
 1345 851 l 1,1,-1
 1315 694 l 1,2,-1
 218 694 l 1,3,-1
 248 851 l 1,0,-1
EndSplineSet
EndChar

StartChar: emdash
Encoding: 8212 8212 123
Width: 2031
Flags: HW
LayerCount: 2
Fore
SplineSet
247 851 m 1,0,-1
 1838 851 l 1,1,-1
 1808 694 l 1,2,-1
 218 694 l 1,3,-1
 247 851 l 1,0,-1
EndSplineSet
EndChar

StartChar: quoteleft
Encoding: 8216 8216 124
Width: 682
Flags: HW
LayerCount: 2
Fore
SplineSet
498 1084 m 1,0,-1
 493 1043 l 1,1,-1
 371 927 l 1,2,3
 303.593 955.267 303.593 955.267 249.5 1041 c 0,4,5
 189 1136.89 189 1136.89 189 1246.44 c 128,-1,6
 189 1356 189 1356 220.5 1437.5 c 128,-1,7
 252 1519 252 1519 299.5 1579 c 0,8,9
 380.161 1680.89 380.161 1680.89 503 1741 c 1,10,-1
 578 1630 l 1,11,-1
 576 1608 l 1,12,13
 515.391 1577.7 515.391 1577.7 465.5 1496.5 c 0,14,15
 406 1399.67 406 1399.67 406 1280.17 c 128,-1,16
 406 1160.67 406 1160.67 498 1084 c 1,0,-1
EndSplineSet
EndChar

StartChar: dagger
Encoding: 8224 8224 130
Width: 815
Flags: HW
LayerCount: 2
Fore
SplineSet
388 1008 m 1,0,-1
 414 1127 l 1,1,-1
 135 1127 l 1,2,-1
 157 1277 l 1,3,-1
 457 1277 l 1,4,-1
 459 1469 l 1,5,-1
 483 1646 l 1,6,-1
 673 1646 l 1,7,-1
 643 1469 l 1,8,-1
 582 1277 l 1,9,-1
 875 1277 l 1,10,-1
 854 1127 l 1,11,-1
 583 1127 l 1,12,-1
 577 1008 l 1,13,-1
 412 151 l 1,14,-1
 295 151 l 1,15,-1
 388 1008 l 1,0,-1
EndSplineSet
EndChar

StartChar: bullet
Encoding: 8226 8226 131
Width: 858
Flags: HW
LayerCount: 2
Fore
SplineSet
512.5 530.5 m 128,-1,1
 466 507 466 507 418.5 507 c 128,-1,2
 371 507 371 507 339 521 c 128,-1,3
 307 535 307 535 283.5 559 c 0,4,5
 233 610.574 233 610.574 233 669.287 c 128,-1,6
 233 728 233 728 252 773.5 c 128,-1,7
 271 819 271 819 305 856 c 0,8,9
 381.27 939 381.27 939 484 939 c 0,10,11
 559.435 939 559.435 939 609.5 890 c 0,12,13
 660 840.574 660 840.574 660 781.287 c 128,-1,14
 660 722 660 722 642.5 675.5 c 128,-1,15
 625 629 625 629 592 591.5 c 128,-1,0
 559 554 559 554 512.5 530.5 c 128,-1,1
EndSplineSet
EndChar

StartChar: mu
Encoding: 181 181 134
Width: 1364
Flags: HW
LayerCount: 2
Fore
SplineSet
1071 155 m 0,0,1
 1118 155 1118 155 1190 227 c 1,2,-1
 1252 120 l 1,3,4
 1193.41 41.8755 1193.41 41.8755 1095 0.5 c 0,5,6
 1051 -18 1051 -18 995 -18 c 128,-1,7
 939 -18 939 -18 895.5 15.5 c 128,-1,8
 852 49 852 49 845 122 c 1,9,-1
 788.5 69.5 l 1,10,11
 688.471 -20 688.471 -20 527 -20 c 0,12,13
 461.179 -20 461.179 -20 398.5 25 c 0,14,15
 379 39 379 39 370 56 c 1,16,-1
 306 -372 l 1,17,-1
 121 -372 l 1,18,-1
 302 851 l 2,19,20
 313.077 928.539 313.077 928.539 301.538 947.769 c 128,-1,21
 290 967 290 967 280 967 c 0,22,23
 239 967 239 967 186 914 c 1,24,-1
 122 1029 l 1,25,26
 164.407 1096.85 164.407 1096.85 276.5 1137.5 c 0,27,28
 322 1154 322 1154 365 1154 c 128,-1,29
 408 1154 408 1154 434.5 1142.5 c 0,30,31
 512.161 1108.8 512.161 1108.8 512.161 996.812 c 0,32,33
 512.161 971.183 512.161 971.183 501.581 893.591 c 2,34,-1
 427 346 l 2,35,36
 424.882 326.588 424.882 326.588 424.882 302.353 c 128,-1,37
 424.882 278.118 424.882 278.118 433.941 248.059 c 128,-1,38
 443 218 443 218 465.5 196 c 0,39,40
 506.409 156 506.409 156 563.705 156 c 128,-1,41
 621 156 621 156 660 173.5 c 128,-1,42
 699 191 699 191 735 217 c 0,43,44
 799.648 263.69 799.648 263.69 852 331 c 1,45,-1
 960 1140 l 1,46,-1
 1154 1140 l 1,47,-1
 1038 238 l 2,48,49
 1033 199 1033 199 1044 177 c 128,-1,50
 1055 155 1055 155 1071 155 c 0,0,1
EndSplineSet
EndChar

StartChar: logicalnot
Encoding: 172 172 136
Width: 1370
Flags: HW
LayerCount: 2
Fore
SplineSet
228 853 m 1,0,-1
 1188 853 l 1,1,-1
 1126 322 l 1,2,-1
 949 322 l 1,3,-1
 994 701 l 1,4,-1
 211 701 l 1,5,-1
 228 853 l 1,0,-1
EndSplineSet
EndChar

StartChar: yen
Encoding: 165 165 137
Width: 1483
Flags: HW
LayerCount: 2
Fore
SplineSet
247 506 m 1,0,-1
 657 506 l 1,1,-1
 684 731 l 1,2,-1
 277 731 l 1,3,-1
 294 862 l 1,4,-1
 642 862 l 1,5,-1
 324 1530 l 1,6,-1
 517 1530 l 1,7,-1
 771 975 l 1,8,-1
 812 864 l 1,9,-1
 878 983 l 1,10,-1
 1246 1530 l 1,11,-1
 1440 1530 l 1,12,-1
 942 862 l 1,13,-1
 1299 862 l 1,14,-1
 1282 731 l 1,15,-1
 860 731 l 1,16,-1
 833 506 l 1,17,-1
 1252 506 l 1,18,-1
 1235 376 l 1,19,-1
 818 376 l 1,20,-1
 774 0 l 1,21,-1
 597 0 l 1,22,-1
 641 376 l 1,23,-1
 230 376 l 1,24,-1
 247 506 l 1,0,-1
EndSplineSet
EndChar

StartChar: divide
Encoding: 247 247 138
Width: 1338
Flags: HW
LayerCount: 2
Fore
SplineSet
769.5 1036.5 m 128,-1,1
 740 1026 740 1026 713 1026 c 128,-1,2
 686 1026 686 1026 662.5 1034.5 c 128,-1,3
 639 1043 639 1043 621.5 1059 c 0,4,5
 584.027 1093.26 584.027 1093.26 588.513 1137.63 c 128,-1,6
 593 1182 593 1182 610.5 1209 c 128,-1,7
 628 1236 628 1236 653 1256 c 0,8,9
 705.5 1298 705.5 1298 752.75 1298 c 128,-1,10
 800 1298 800 1298 824.5 1288 c 128,-1,11
 849 1278 849 1278 863.5 1261 c 0,12,13
 892.482 1227.02 892.482 1227.02 887.241 1183.51 c 128,-1,14
 882 1140 882 1140 865 1113 c 128,-1,15
 848 1086 848 1086 823.5 1066.5 c 128,-1,0
 799 1047 799 1047 769.5 1036.5 c 128,-1,1
259 853 m 1,16,-1
 1128 853 l 1,17,-1
 1110 696 l 1,18,-1
 241 696 l 1,19,-1
 259 853 l 1,16,-1
525 285 m 128,-1,21
 508 301 508 301 500.609 321.435 c 128,-1,22
 493.217 341.87 493.217 341.87 493.217 371.137 c 128,-1,23
 493.217 400.404 493.217 400.404 512.609 431.202 c 128,-1,24
 532 462 532 462 556.5 481.5 c 0,25,26
 609.897 524 609.897 524 656.949 524 c 128,-1,27
 704 524 704 524 728 514 c 0,28,29
 790.059 488.142 790.059 488.142 790.059 416.336 c 0,30,31
 790.059 342.923 790.059 342.923 728 292.5 c 0,32,33
 678.154 252 678.154 252 633.577 252 c 128,-1,34
 589 252 589 252 565.5 260.5 c 128,-1,20
 542 269 542 269 525 285 c 128,-1,21
EndSplineSet
EndChar

StartChar: Ccedilla
Encoding: 199 199 139
Width: 1141
Flags: HW
LayerCount: 2
Fore
SplineSet
709 -12 m 1,0,1
 732 -72.6364 732 -72.6364 732 -160.318 c 128,-1,2
 732 -248 732 -248 709.5 -305 c 128,-1,3
 687 -362 687 -362 648.5 -397 c 0,4,5
 577 -462 577 -462 454 -462 c 0,6,7
 388.8 -462 388.8 -462 351.4 -451 c 128,-1,8
 314 -440 314 -440 306 -434 c 1,9,-1
 331 -283 l 1,10,11
 357 -297 357 -297 395 -297 c 128,-1,12
 433 -297 433 -297 461.5 -290 c 128,-1,13
 490 -283 490 -283 512 -263 c 0,14,15
 561 -218.455 561 -218.455 561 -117 c 0,16,17
 561 -95 561 -95 561.5 -67 c 128,-1,18
 562 -39 562 -39 561 -14 c 1,19,20
 259.034 11.1639 259.034 11.1639 152.5 335.5 c 0,21,22
 106.66 475.056 106.66 475.056 106.66 626.405 c 128,-1,23
 106.66 777.755 106.66 777.755 128.83 892.377 c 128,-1,24
 151 1007 151 1007 196 1109 c 128,-1,25
 241 1211 241 1211 306 1292 c 128,-1,26
 371 1373 371 1373 450.5 1429.5 c 0,27,28
 614.425 1546 614.425 1546 817 1546 c 0,29,30
 942 1546 942 1546 1035 1515 c 2,31,-1
 1142 1479 l 1,32,-1
 1072 1315 l 1,33,34
 1060 1321 1060 1321 1040.5 1332 c 128,-1,35
 1021 1343 1021 1343 990.5 1353.5 c 0,36,37
 913.524 1380 913.524 1380 813.262 1380 c 128,-1,38
 713 1380 713 1380 638 1345.5 c 128,-1,39
 563 1311 563 1311 506.5 1253.5 c 128,-1,40
 450 1196 450 1196 412 1121 c 0,41,42
 308.905 917.523 308.905 917.523 308.905 661.628 c 0,43,44
 308.905 429.133 308.905 429.133 393.5 289.5 c 0,45,46
 482.861 142 482.861 142 646 142 c 0,47,48
 761.882 142 761.882 142 878 184 c 0,49,50
 959.223 213.379 959.223 213.379 1005 250 c 1,51,-1
 1035 84 l 1,52,53
 929.575 2.90371 929.575 2.90371 709 -12 c 1,0,1
EndSplineSet
EndChar

StartChar: AE
Encoding: 198 198 140
Width: 1763
Flags: HW
LayerCount: 2
Fore
SplineSet
-128 0 m 1,0,-1
 641 1408 l 1,1,-1
 350 1430 l 1,2,-1
 364 1530 l 1,3,-1
 1695 1530 l 1,4,-1
 1688 1373 l 1,5,-1
 1107 1381 l 1,6,-1
 1040 854 l 1,7,-1
 1478 861 l 1,8,-1
 1466 695 l 1,9,-1
 1023 710 l 1,10,-1
 951 149 l 1,11,-1
 1651 165 l 1,12,-1
 1637 0 l 1,13,-1
 735 0 l 1,14,-1
 787 416 l 1,15,-1
 304 416 l 1,16,-1
 85 0 l 1,17,-1
 -128 0 l 1,0,-1
806 567 m 1,18,-1
 910 1387 l 1,19,-1
 820 1393 l 1,20,-1
 384 567 l 1,21,-1
 806 567 l 1,18,-1
EndSplineSet
EndChar

StartChar: cent
Encoding: 162 162 141
Width: 1057
Flags: HW
LayerCount: 2
Fore
SplineSet
886 951 m 1,0,1
 815.312 1009 815.312 1009 700 1009 c 0,2,3
 636 1009 636 1009 571.5 968 c 128,-1,4
 507 927 507 927 454.5 853 c 0,5,6
 336 685.971 336 685.971 336 454 c 0,7,8
 336 199.846 336 199.846 455 149.5 c 0,9,10
 494 133 494 133 552 133 c 0,11,12
 664.192 133 664.192 133 807 272 c 1,13,-1
 872 166 l 1,14,15
 794.124 62.165 794.124 62.165 659 10.5 c 0,16,17
 608 -9 608 -9 548 -14 c 1,18,-1
 511 -215 l 1,19,-1
 361 -215 l 1,20,-1
 400 -2 l 1,21,22
 270 31 270 31 203.5 143.5 c 128,-1,23
 137 256 137 256 137 434 c 0,24,25
 137 663.26 137 663.26 253.5 866 c 0,26,27
 382.784 1090.99 382.784 1090.99 601 1142 c 1,28,-1
 655 1358 l 1,29,-1
 805 1358 l 1,30,-1
 753 1155 l 1,31,32
 872.778 1150.11 872.778 1150.11 937 1118 c 1,33,-1
 886 951 l 1,0,1
EndSplineSet
EndChar

StartChar: ae
Encoding: 230 230 142
Width: 1633
Flags: HW
LayerCount: 2
Fore
SplineSet
706 255 m 1,0,1
 565.08 -16 565.08 -16 371 -16 c 0,2,3
 81 -16 81 -16 81 416 c 0,4,5
 81 687.233 81 687.233 230.5 903.5 c 0,6,7
 337.819 1058.75 337.819 1058.75 515 1123 c 0,8,9
 606 1156 606 1156 719 1156 c 0,10,11
 835.677 1156 835.677 1156 896.839 1132 c 128,-1,12
 958 1108 958 1108 1006 1079 c 1,13,14
 1130.86 1156 1130.86 1156 1282 1156 c 0,15,16
 1489.4 1156 1489.4 1156 1546 1004.5 c 0,17,18
 1563 959 1563 959 1563 891 c 128,-1,19
 1563 823 1563 823 1529 756 c 128,-1,20
 1495 689 1495 689 1439.5 637 c 128,-1,21
 1384 585 1384 585 1312.5 547 c 128,-1,22
 1241 509 1241 509 1166.5 483 c 0,23,24
 1028.07 434.689 1028.07 434.689 890 425 c 1,25,26
 889.529 414.176 889.529 414.176 889.529 390.647 c 128,-1,27
 889.529 367.118 889.529 367.118 895.265 322.559 c 128,-1,28
 901 278 901 278 923.5 235.5 c 0,29,30
 975.118 138 975.118 138 1100 138 c 0,31,32
 1263.19 138 1263.19 138 1432 297 c 1,33,-1
 1487 186 l 1,34,35
 1436.92 114.46 1436.92 114.46 1333.5 55.5 c 0,36,37
 1208.08 -16 1208.08 -16 1077 -16 c 0,38,39
 857.02 -16 857.02 -16 754 148.5 c 0,40,41
 723 198 723 198 706 255 c 1,0,1
283 440 m 0,42,43
 283 136 283 136 416 136 c 128,-1,44
 548.816 136 548.816 136 684 412 c 1,45,-1
 684 434 l 1,46,47
 692.211 758.337 692.211 758.337 870 963 c 1,48,49
 774.348 1013 774.348 1013 695.174 1013 c 128,-1,50
 616 1013 616 1013 558.5 987 c 128,-1,51
 501 961 501 961 456 917 c 128,-1,52
 411 873 411 873 378.5 815.5 c 128,-1,53
 346 758 346 758 324.5 694 c 0,54,55
 283 570.465 283 570.465 283 440 c 0,42,43
1367 889 m 0,56,57
 1367 1008 1367 1008 1239 1008 c 0,58,59
 1098.53 1008 1098.53 1008 998 852 c 0,60,61
 912.683 719.612 912.683 719.612 895 564 c 1,62,63
 1042.69 571.384 1042.69 571.384 1192 655 c 0,64,65
 1367 753 1367 753 1367 889 c 0,56,57
EndSplineSet
EndChar

StartChar: Lslash
Encoding: 321 321 143
Width: 978
Flags: HW
LayerCount: 2
Fore
SplineSet
181 565 m 1,0,-1
 -15 483 l 1,1,-1
 -51 601 l 1,2,-1
 199 709 l 1,3,-1
 303 1530 l 1,4,-1
 501 1530 l 1,5,-1
 409 799 l 1,6,-1
 774 957 l 1,7,-1
 809 830 l 1,8,-1
 390 653 l 1,9,-1
 329 165 l 1,10,-1
 899 170 l 1,11,-1
 877 0 l 1,12,-1
 110 0 l 1,13,-1
 181 565 l 1,0,-1
EndSplineSet
EndChar

StartChar: circumflex
Encoding: 710 710 144
Width: 795
Flags: HW
LayerCount: 2
Fore
SplineSet
49 1276 m 1,0,-1
 376 1650 l 1,1,-1
 554 1650 l 1,2,-1
 744 1276 l 1,3,-1
 650 1208 l 1,4,-1
 439 1472 l 1,5,-1
 126 1199 l 1,6,-1
 49 1276 l 1,0,-1
EndSplineSet
EndChar

StartChar: caron
Encoding: 711 711 145
Width: 795
Flags: HW
LayerCount: 2
Fore
SplineSet
50 1562 m 1,0,-1
 137 1650 l 1,1,-1
 389 1406 l 1,2,-1
 702 1650 l 1,3,-1
 784 1563 l 1,4,-1
 469 1255 l 1,5,-1
 293 1255 l 1,6,-1
 50 1562 l 1,0,-1
EndSplineSet
EndChar

StartChar: breve
Encoding: 728 728 146
Width: 717
Flags: HW
LayerCount: 2
Fore
SplineSet
481 1328 m 128,-1,1
 422 1300 422 1300 344.5 1300 c 128,-1,2
 267 1300 267 1300 210 1329.5 c 128,-1,3
 153 1359 153 1359 117.5 1406.5 c 0,4,5
 49 1498.15 49 1498.15 49 1632 c 2,6,-1
 49 1641.5 l 2,7,8
 49 1646 49 1646 50 1651 c 1,9,-1
 185 1651 l 1,10,11
 186 1644 186 1644 186.5 1636 c 128,-1,12
 187 1628 187 1628 191 1611 c 128,-1,13
 195 1594 195 1594 203.5 1564 c 128,-1,14
 212 1534 212 1534 230 1508 c 0,15,16
 272.231 1447 272.231 1447 341.115 1447 c 128,-1,17
 410 1447 410 1447 445 1470.5 c 128,-1,18
 480 1494 480 1494 501.5 1526.5 c 128,-1,19
 523 1559 523 1559 534.5 1593.5 c 128,-1,20
 546 1628 546 1628 555 1651 c 1,21,-1
 687 1651 l 1,22,23
 687 1584.12 687 1584.12 655.5 1515.06 c 128,-1,24
 624 1446 624 1446 582 1401 c 128,-1,0
 540 1356 540 1356 481 1328 c 128,-1,1
EndSplineSet
EndChar

StartChar: ring
Encoding: 730 730 147
Width: 723
Flags: HW
LayerCount: 2
Fore
SplineSet
168 1320 m 128,-1,1
 93 1387 93 1387 93 1511 c 0,2,3
 93 1641.16 93 1641.16 206 1718 c 0,4,5
 306 1786 306 1786 440 1786 c 0,6,7
 566.882 1786 566.882 1786 641 1716 c 0,8,9
 716 1645.17 716 1645.17 716 1521 c 0,10,11
 716 1391.03 716 1391.03 614.5 1319 c 0,12,13
 521.5 1253 521.5 1253 382.25 1253 c 128,-1,0
 243 1253 243 1253 168 1320 c 128,-1,1
324 1370.5 m 128,-1,15
 352 1359 352 1359 387.5 1359 c 128,-1,16
 423 1359 423 1359 457.5 1366.5 c 128,-1,17
 492 1374 492 1374 518 1393.5 c 0,18,19
 574 1435.5 574 1435.5 574 1538 c 0,20,21
 574 1633.71 574 1633.71 485.5 1667.5 c 0,22,23
 458 1678 458 1678 424 1678 c 256,24,25
 295.731 1678 295.731 1678 249.5 1589.5 c 0,26,27
 232 1556 232 1556 232 1515.5 c 128,-1,28
 232 1475 232 1475 243.5 1448.5 c 128,-1,29
 255 1422 255 1422 275.5 1402 c 128,-1,14
 296 1382 296 1382 324 1370.5 c 128,-1,15
EndSplineSet
EndChar

StartChar: tilde
Encoding: 732 732 148
Width: 815
Flags: HW
LayerCount: 2
Fore
SplineSet
9 1481 m 1,0,1
 42.1028 1547.21 42.1028 1547.21 124.5 1597.5 c 0,2,3
 210.511 1650 210.511 1650 267.255 1650 c 128,-1,4
 324 1650 324 1650 353 1639.5 c 128,-1,5
 382 1629 382 1629 405 1613.5 c 128,-1,6
 428 1598 428 1598 447 1580 c 2,7,-1
 484 1546.5 l 1,8,9
 526.387 1510 526.387 1510 558.694 1510 c 128,-1,10
 591 1510 591 1510 611.5 1520.5 c 128,-1,11
 632 1531 632 1531 648.5 1547 c 128,-1,12
 665 1563 665 1563 679 1582.5 c 2,13,-1
 707 1620 l 1,14,-1
 792 1531 l 1,15,16
 766.075 1455.22 766.075 1455.22 688 1401 c 0,17,18
 611.68 1348 611.68 1348 524 1348 c 0,19,20
 453.677 1348 453.677 1348 415.839 1373.5 c 128,-1,21
 378 1399 378 1399 359 1417 c 128,-1,22
 340 1435 340 1435 321.5 1450.5 c 0,23,24
 218.902 1536.46 218.902 1536.46 124 1428 c 1,25,-1
 96 1397 l 1,26,-1
 9 1481 l 1,0,1
EndSplineSet
EndChar

StartChar: hungarumlaut
Encoding: 733 733 149
Width: 918
Flags: HW
LayerCount: 2
Fore
SplineSet
474 1296 m 1,0,-1
 721 1712 l 1,1,-1
 866 1594 l 1,2,3
 810.021 1472.71 810.021 1472.71 671 1326.5 c 0,4,5
 606.851 1259.03 606.851 1259.03 569 1242 c 1,6,-1
 474 1296 l 1,0,-1
49 1296 m 1,7,-1
 286 1712 l 1,8,-1
 431 1595 l 1,9,10
 357.265 1437 357.265 1437 220 1303 c 0,11,12
 178 1262 178 1262 143 1242 c 1,13,-1
 49 1296 l 1,7,-1
EndSplineSet
EndChar

StartChar: ogonek
Encoding: 731 731 150
Width: 487
Flags: HW
LayerCount: 2
Fore
SplineSet
448 -341 m 1,0,1
 340.571 -435 340.571 -435 203 -435 c 0,2,3
 108 -435 108 -435 55 -382 c 0,4,5
 10 -337 10 -337 10 -283 c 128,-1,6
 10 -229 10 -229 37.5 -185.5 c 128,-1,7
 65 -142 65 -142 103.5 -106.5 c 128,-1,8
 142 -71 142 -71 184 -44.5 c 2,9,-1
 351 59 l 1,10,-1
 411 0 l 1,11,-1
 347 -47 l 1,12,13
 204 -154.25 204 -154.25 204 -221 c 0,14,15
 204 -257.25 204 -257.25 220.5 -269.625 c 0,16,17
 243.667 -287 243.667 -287 267 -287 c 0,18,19
 331.828 -287 331.828 -287 397 -242 c 1,20,-1
 448 -341 l 1,0,1
EndSplineSet
EndChar

StartChar: Eogonek
Encoding: 280 280 151
Width: 1138
Flags: HW
LayerCount: 2
Fore
SplineSet
999 -341 m 1,0,1
 891.571 -435 891.571 -435 754 -435 c 0,2,3
 659 -435 659 -435 606 -382 c 0,4,5
 561 -337 561 -337 561 -283 c 128,-1,6
 561 -229 561 -229 588.5 -185.5 c 128,-1,7
 616 -142 616 -142 654.5 -106.5 c 128,-1,8
 693 -71 693 -71 735 -44.5 c 2,9,-1
 806 0 l 1,10,-1
 110 0 l 1,11,-1
 303 1530 l 1,12,-1
 1070 1530 l 1,13,-1
 1063 1373 l 1,14,-1
 482 1381 l 1,15,-1
 415 854 l 1,16,-1
 853 861 l 1,17,-1
 841 695 l 1,18,-1
 398 710 l 1,19,-1
 326 149 l 1,20,-1
 1026 165 l 1,21,-1
 1012 0 l 1,22,-1
 962 0 l 1,23,-1
 898 -47 l 1,24,25
 755 -154.25 755 -154.25 755 -221 c 0,26,27
 755 -257.25 755 -257.25 771.5 -269.625 c 0,28,29
 794.667 -287 794.667 -287 818 -287 c 0,30,31
 882.828 -287 882.828 -287 948 -242 c 1,32,-1
 999 -341 l 1,0,1
EndSplineSet
EndChar

StartChar: twosuperior
Encoding: 178 178 153
Width: 1163
Flags: HW
LayerCount: 2
Fore
SplineSet
824 1333 m 0,0,1
 824 1494 824 1494 638.5 1494 c 128,-1,2
 453 1494 453 1494 319 1356 c 1,3,-1
 249 1450 l 1,4,5
 338.595 1572.17 338.595 1572.17 515.5 1626.5 c 0,6,7
 582.389 1647.04 582.389 1647.04 662.593 1647.04 c 128,-1,8
 742.796 1647.04 742.796 1647.04 809.898 1624.02 c 128,-1,9
 877 1601 877 1601 923 1563.5 c 0,10,11
 1016 1487.68 1016 1487.68 1016 1388 c 0,12,13
 1016 1194.41 1016 1194.41 853 1041 c 0,14,15
 757.235 950.868 757.235 950.868 646.117 880.934 c 2,16,-1
 458 763 l 1,17,-1
 1000 796 l 1,18,-1
 993 637 l 1,19,-1
 215 637 l 1,20,-1
 170 733 l 1,21,-1
 276 792 l 1,22,23
 533.299 938.463 533.299 938.463 691 1097.5 c 0,24,25
 824 1231.63 824 1231.63 824 1333 c 0,0,1
EndSplineSet
EndChar

StartChar: onesuperior
Encoding: 185 185 154
Width: 1020
Flags: HW
LayerCount: 2
Fore
SplineSet
545 1395 m 1,0,-1
 284 1343 l 1,1,-1
 278 1466 l 1,2,3
 422.121 1503.06 422.121 1503.06 594.5 1588 c 0,4,5
 665.169 1622.82 665.169 1622.82 694 1645 c 1,6,-1
 763 1624 l 1,7,-1
 628 636 l 1,8,-1
 443 636 l 1,9,-1
 545 1395 l 1,0,-1
EndSplineSet
EndChar

StartChar: fraction
Encoding: 8260 8260 155
Width: 1026
Flags: HW
LayerCount: 2
Fore
SplineSet
822 1530 m 1,0,-1
 981 1530 l 1,1,-1
 300 0 l 1,2,-1
 141 0 l 1,3,-1
 822 1530 l 1,0,-1
EndSplineSet
EndChar

StartChar: foursuperior
Encoding: 8308 8308 157
Width: 1194
Flags: HW
LayerCount: 2
Fore
SplineSet
660 814 m 1,0,-1
 168 814 l 1,1,-1
 131 909 l 1,2,-1
 737 1760 l 1,3,-1
 785 1760 l 1,4,-1
 918 1657 l 1,5,-1
 427 1048 l 1,6,-1
 348 956 l 1,7,-1
 681 970 l 1,8,-1
 717 1223 l 1,9,-1
 919 1246 l 1,10,-1
 883 978 l 1,11,-1
 1145 989 l 1,12,-1
 1125 814 l 1,13,-1
 861 814 l 1,14,-1
 815 471 l 1,15,-1
 612 471 l 1,16,-1
 660 814 l 1,0,-1
EndSplineSet
EndChar

StartChar: threesuperior
Encoding: 179 179 159
Width: 1071
Flags: HW
LayerCount: 2
Fore
SplineSet
229 1520 m 1,0,1
 406.733 1644 406.733 1644 618 1644 c 0,2,3
 759.475 1644 759.475 1644 844.5 1580.5 c 0,4,5
 923.048 1521.84 923.048 1521.84 923.048 1432.18 c 0,6,7
 923.048 1326.11 923.048 1326.11 843 1240.5 c 0,8,9
 774.449 1167.19 774.449 1167.19 660 1124 c 1,10,11
 799.836 1124 799.836 1124 863.5 1039.5 c 0,12,13
 910.091 977.661 910.091 977.661 910.091 890.422 c 0,14,15
 910.091 774.248 910.091 774.248 827.5 686 c 0,16,17
 721.702 572.955 721.702 572.955 522 543 c 0,18,19
 462 534 462 534 419.5 534 c 128,-1,20
 377 534 377 534 341 538.5 c 128,-1,21
 305 543 305 543 266.5 552 c 0,22,23
 177.469 572.812 177.469 572.812 124 606 c 1,24,-1
 141 714 l 1,25,26
 246.923 663 246.923 663 382 663 c 0,27,28
 582.778 663 582.778 663 669.5 774.5 c 0,29,30
 703.286 817.939 703.286 817.939 703.286 867.041 c 128,-1,31
 703.286 916.143 703.286 916.143 692.143 943.071 c 128,-1,32
 681 970 681 970 658 991 c 0,33,34
 610.987 1033.93 610.987 1033.93 528 1036 c 1,35,-1
 367 1001 l 1,36,-1
 388 1146 l 1,37,38
 598.015 1185.63 598.015 1185.63 672 1291.5 c 0,39,40
 701 1333 701 1333 701 1390 c 0,41,42
 701 1502.14 701 1502.14 558.603 1502.14 c 128,-1,43
 416.207 1502.14 416.207 1502.14 275 1408 c 1,44,-1
 229 1520 l 1,0,1
EndSplineSet
EndChar

StartChar: dollar
Encoding: 36 36 160
Width: 1204
Flags: HW
LayerCount: 2
Fore
SplineSet
184 228 m 1,0,1
 237.547 170.628 237.547 170.628 400.5 141 c 0,2,3
 450 132 450 132 503.5 132 c 128,-1,4
 557 132 557 132 614 145 c 128,-1,5
 671 158 671 158 715.5 187 c 0,6,7
 815 251.843 815 251.843 815 373 c 0,8,9
 815 461.706 815 461.706 779 515.353 c 0,10,11
 717.529 606.956 717.529 606.956 598 686 c 0,12,13
 453.384 782.411 453.384 782.411 396.692 851.205 c 0,14,15
 282.867 989.33 282.867 989.33 282.867 1147.66 c 0,16,17
 282.867 1311.39 282.867 1311.39 389 1416.5 c 0,18,19
 493.926 1520.42 493.926 1520.42 673 1541 c 1,20,-1
 703 1729 l 1,21,-1
 884 1729 l 1,22,-1
 853 1539 l 1,23,24
 1002.59 1522.74 1002.59 1522.74 1091 1460 c 1,25,-1
 1028 1309 l 1,26,27
 943 1394 943 1394 761 1394 c 0,28,29
 648.8 1394 648.8 1394 593.9 1363.5 c 128,-1,30
 539 1333 539 1333 511.5 1292.5 c 0,31,32
 480.419 1246.73 480.419 1246.73 480.419 1183.01 c 128,-1,33
 480.419 1119.29 480.419 1119.29 491.71 1078.65 c 128,-1,34
 503 1038 503 1038 531.5 999.5 c 0,35,36
 578.939 935.416 578.939 935.416 715 844 c 0,37,38
 854.76 749.979 854.76 749.979 909.88 685.99 c 0,39,40
 1021.03 556.952 1021.03 556.952 1021.03 414.8 c 0,41,42
 1021.03 229.438 1021.03 229.438 904.5 116 c 0,43,44
 792.252 6.73157 792.252 6.73157 598 -16 c 1,45,-1
 563 -230 l 1,46,-1
 383 -230 l 1,47,-1
 416 -19 l 1,48,49
 270.976 -4.49756 270.976 -4.49756 170.5 43 c 0,50,51
 143 56 143 56 129 68 c 1,52,-1
 184 228 l 1,0,1
EndSplineSet
EndChar

StartChar: grave.cap
Encoding: 65537 -1 161
Width: 522
Flags: HW
LayerCount: 2
Fore
SplineSet
385 1593 m 1,0,1
 310.812 1619.79 310.812 1619.79 236.406 1681.4 c 0,2,3
 100.973 1793.53 100.973 1793.53 58 1872 c 1,4,-1
 182 2000 l 1,5,-1
 458 1658 l 1,6,-1
 385 1593 l 1,0,1
EndSplineSet
EndChar

StartChar: dieresis.cap
Encoding: 65538 -1 162
Width: 807
Flags: HW
LayerCount: 2
Fore
SplineSet
475 1804.5 m 128,-1,1
 475 1844 475 1844 489 1870 c 128,-1,2
 503 1896 503 1896 524 1916 c 0,3,4
 569.15 1959 569.15 1959 609.075 1959 c 128,-1,5
 649 1959 649 1959 672 1949.5 c 0,6,7
 742.111 1920.54 742.111 1920.54 742.111 1848.3 c 0,8,9
 742.111 1786.49 742.111 1786.49 695 1740.5 c 0,10,11
 649.415 1696 649.415 1696 607.707 1696 c 0,12,13
 544 1696 544 1696 509.5 1730.5 c 128,-1,0
 475 1765 475 1765 475 1804.5 c 128,-1,1
65.5 1769.5 m 0,14,15
 57.8947 1788.74 57.8947 1788.74 57.8947 1800.61 c 128,-1,16
 57.8947 1812.47 57.8947 1812.47 58.4474 1828.24 c 128,-1,17
 59 1844 59 1844 72.5 1870 c 128,-1,18
 86 1896 86 1896 106.5 1916 c 0,19,20
 150.575 1959 150.575 1959 190.288 1959 c 128,-1,21
 230 1959 230 1959 253 1949.5 c 0,22,23
 323.105 1920.54 323.105 1920.54 323.105 1848.02 c 0,24,25
 323.105 1787.46 323.105 1787.46 275 1740.5 c 0,26,27
 229.415 1696 229.415 1696 188.207 1696 c 0,28,29
 94.5581 1696 94.5581 1696 65.5 1769.5 c 0,14,15
EndSplineSet
EndChar

StartChar: commaaccent
Encoding: 63171 63171 163
Width: 367
Flags: HW
LayerCount: 2
Fore
SplineSet
155 -51 m 1,0,1
 245.076 -71.3397 245.076 -71.3397 278.5 -198 c 0,2,3
 288 -234 288 -234 288 -283 c 128,-1,4
 288 -332 288 -332 270.5 -382 c 128,-1,5
 253 -432 253 -432 226 -469.5 c 0,6,7
 172.376 -543.978 172.376 -543.978 106 -560 c 1,8,-1
 26 -510 l 1,9,-1
 29 -484 l 1,10,11
 97 -431.111 97 -431.111 97 -334 c 0,12,13
 97 -276.231 97 -276.231 53 -239 c 0,14,15
 40 -228 40 -228 25 -225 c 1,16,-1
 31 -171 l 1,17,-1
 155 -51 l 1,0,1
EndSplineSet
EndChar

StartChar: acute.cap
Encoding: 65539 -1 164
Width: 526
Flags: HW
LayerCount: 2
Fore
SplineSet
78 1658 m 1,0,-1
 354 2000 l 1,1,-1
 478 1872 l 1,2,3
 435.027 1793.53 435.027 1793.53 327.5 1704.5 c 0,4,5
 225.188 1619.79 225.188 1619.79 151 1593 c 1,6,-1
 78 1658 l 1,0,-1
EndSplineSet
EndChar

StartChar: circumflex.cap
Encoding: 65540 -1 165
Width: 795
Flags: HW
LayerCount: 2
Fore
SplineSet
49 1656 m 1,0,-1
 376 2000 l 1,1,-1
 554 2000 l 1,2,-1
 744 1656 l 1,3,-1
 650 1588 l 1,4,-1
 439 1822 l 1,5,-1
 126 1579 l 1,6,-1
 49 1656 l 1,0,-1
EndSplineSet
EndChar

StartChar: caron.cap
Encoding: 65541 -1 166
Width: 793
Flags: HW
LayerCount: 2
Fore
SplineSet
50 1912 m 1,0,-1
 137 2000 l 1,1,-1
 389 1765 l 1,2,-1
 702 2000 l 1,3,-1
 784 1913 l 1,4,-1
 469 1614 l 1,5,-1
 293 1614 l 1,6,-1
 50 1912 l 1,0,-1
EndSplineSet
EndChar

StartChar: breve.cap
Encoding: 65542 -1 167
Width: 715
Flags: HW
LayerCount: 2
Fore
SplineSet
481 1657 m 128,-1,1
 422 1629 422 1629 344.5 1629 c 128,-1,2
 267 1629 267 1629 210 1658.5 c 128,-1,3
 153 1688 153 1688 117.5 1735.5 c 0,4,5
 49 1827.15 49 1827.15 49 1961 c 2,6,-1
 49 1970.5 l 2,7,8
 49 1975 49 1975 50 1980 c 1,9,-1
 185 1980 l 1,10,11
 186 1973 186 1973 186.5 1965 c 128,-1,12
 187 1957 187 1957 191 1940 c 128,-1,13
 195 1923 195 1923 203.5 1893 c 128,-1,14
 212 1863 212 1863 230 1837 c 0,15,16
 272.231 1776 272.231 1776 341.115 1776 c 128,-1,17
 410 1776 410 1776 445 1799.5 c 128,-1,18
 480 1823 480 1823 501.5 1855.5 c 128,-1,19
 523 1888 523 1888 534.5 1922.5 c 128,-1,20
 546 1957 546 1957 555 1980 c 1,21,-1
 687 1980 l 1,22,23
 687 1913.12 687 1913.12 655.5 1844.06 c 128,-1,24
 624 1775 624 1775 582 1730 c 128,-1,0
 540 1685 540 1685 481 1657 c 128,-1,1
EndSplineSet
EndChar

StartChar: dotaccent.cap
Encoding: 65543 -1 168
Width: 389
Flags: HW
LayerCount: 2
Fore
SplineSet
65.5 1769.5 m 0,0,1
 57.8947 1788.74 57.8947 1788.74 57.8947 1800.61 c 128,-1,2
 57.8947 1812.47 57.8947 1812.47 58.4474 1828.24 c 128,-1,3
 59 1844 59 1844 72.5 1870 c 128,-1,4
 86 1896 86 1896 106.5 1916 c 0,5,6
 150.575 1959 150.575 1959 190.288 1959 c 128,-1,7
 230 1959 230 1959 253 1949.5 c 0,8,9
 323.105 1920.54 323.105 1920.54 323.105 1848.02 c 0,10,11
 323.105 1787.46 323.105 1787.46 275 1740.5 c 0,12,13
 229.415 1696 229.415 1696 188.207 1696 c 0,14,15
 94.5581 1696 94.5581 1696 65.5 1769.5 c 0,0,1
EndSplineSet
EndChar

StartChar: ring.cap
Encoding: 65544 -1 169
Width: 723
Flags: HW
LayerCount: 2
Fore
SplineSet
126 1534 m 128,-1,1
 51 1601 51 1601 51 1725 c 0,2,3
 51 1855.16 51 1855.16 164 1932 c 0,4,5
 264 2000 264 2000 398 2000 c 0,6,7
 524.882 2000 524.882 2000 599 1930 c 0,8,9
 674 1859.17 674 1859.17 674 1735 c 0,10,11
 674 1605.03 674 1605.03 572.5 1533 c 0,12,13
 479.5 1467 479.5 1467 340.25 1467 c 128,-1,0
 201 1467 201 1467 126 1534 c 128,-1,1
282 1584.5 m 128,-1,15
 310 1573 310 1573 345.5 1573 c 128,-1,16
 381 1573 381 1573 415.5 1580.5 c 128,-1,17
 450 1588 450 1588 476 1607.5 c 0,18,19
 532 1649.5 532 1649.5 532 1752 c 0,20,21
 532 1847.71 532 1847.71 443.5 1881.5 c 0,22,23
 416 1892 416 1892 382 1892 c 256,24,25
 253.731 1892 253.731 1892 207.5 1803.5 c 0,26,27
 190 1770 190 1770 190 1729.5 c 128,-1,28
 190 1689 190 1689 201.5 1662.5 c 128,-1,29
 213 1636 213 1636 233.5 1616 c 128,-1,14
 254 1596 254 1596 282 1584.5 c 128,-1,15
EndSplineSet
EndChar

StartChar: tilde.cap
Encoding: 65545 -1 170
Width: 813
Flags: HW
LayerCount: 2
Fore
SplineSet
9 1801 m 1,0,1
 42.1028 1867.21 42.1028 1867.21 124.5 1917.5 c 0,2,3
 210.511 1970 210.511 1970 267.255 1970 c 128,-1,4
 324 1970 324 1970 353 1959.5 c 128,-1,5
 382 1949 382 1949 405 1933.5 c 128,-1,6
 428 1918 428 1918 447 1900 c 2,7,-1
 484 1866.5 l 1,8,9
 526.387 1830 526.387 1830 558.694 1830 c 128,-1,10
 591 1830 591 1830 611.5 1840.5 c 128,-1,11
 632 1851 632 1851 648.5 1867 c 128,-1,12
 665 1883 665 1883 679 1902.5 c 2,13,-1
 707 1940 l 1,14,-1
 792 1851 l 1,15,16
 766.075 1775.22 766.075 1775.22 688 1721 c 0,17,18
 611.68 1668 611.68 1668 524 1668 c 0,19,20
 453.677 1668 453.677 1668 415.839 1693.5 c 128,-1,21
 378 1719 378 1719 359 1737 c 128,-1,22
 340 1755 340 1755 321.5 1770.5 c 0,23,24
 218.902 1856.46 218.902 1856.46 124 1748 c 1,25,-1
 96 1717 l 1,26,-1
 9 1801 l 1,0,1
EndSplineSet
EndChar

StartChar: hungarumlaut.cap
Encoding: 65546 -1 171
Width: 922
Flags: HW
LayerCount: 2
Fore
SplineSet
474 1625 m 1,0,-1
 786 2000 l 1,1,-1
 921 1881 l 1,2,3
 860.764 1764.54 860.764 1764.54 677.5 1634 c 0,4,5
 597.83 1577.25 597.83 1577.25 548 1560 c 1,6,-1
 474 1625 l 1,0,-1
59 1625 m 1,7,-1
 371 2000 l 1,8,-1
 504 1882 l 1,9,10
 454.151 1770.8 454.151 1770.8 270 1634 c 0,11,12
 194.091 1577.61 194.091 1577.61 153 1560 c 1,13,-1
 59 1625 l 1,7,-1
EndSplineSet
EndChar

StartChar: ordfeminine
Encoding: 170 170 172
Width: 854
Flags: HW
LayerCount: 2
Fore
SplineSet
584 870 m 1,0,1
 473.565 743 473.565 743 333 743 c 0,2,3
 156.182 743 156.182 743 109 916 c 0,4,5
 94 971 94 971 94 1037 c 128,-1,6
 94 1103 94 1103 111 1167.5 c 128,-1,7
 128 1232 128 1232 160 1291.5 c 128,-1,8
 192 1351 192 1351 237 1403 c 128,-1,9
 282 1455 282 1455 338 1493.5 c 0,10,11
 459.455 1577 459.455 1577 598 1577 c 0,12,13
 683.364 1577 683.364 1577 773 1548 c 1,14,-1
 873 1574 l 1,15,-1
 727 743 l 1,16,-1
 560 743 l 1,17,-1
 584 870 l 1,0,1
669 1437 m 1,18,19
 627 1475 627 1475 576 1475 c 128,-1,20
 525 1475 525 1475 483.5 1456.5 c 128,-1,21
 442 1438 442 1438 408 1407 c 128,-1,22
 374 1376 374 1376 348 1334 c 128,-1,23
 322 1292 322 1292 304 1245.5 c 0,24,25
 268 1152.5 268 1152.5 268 1081.25 c 128,-1,26
 268 1010 268 1010 274.5 974 c 128,-1,27
 281 938 281 938 297 913 c 0,28,29
 330.28 861 330.28 861 403 861 c 0,30,31
 478 861 478 861 591 974 c 1,32,-1
 669 1437 l 1,18,19
EndSplineSet
EndChar

StartChar: ordmasculine
Encoding: 186 186 173
Width: 854
Flags: HW
LayerCount: 2
Fore
SplineSet
725 854.5 m 0,0,1
 663 793 663 793 586.394 762.939 c 128,-1,2
 509.788 732.879 509.788 732.879 435.142 732.879 c 128,-1,3
 360.496 732.879 360.496 732.879 300.248 759.939 c 128,-1,4
 240 787 240 787 195.5 835.5 c 0,5,6
 98 941.764 98 941.764 98 1105 c 0,7,8
 98 1324.89 98 1324.89 241.5 1465 c 0,9,10
 368.531 1589.03 368.531 1589.03 532.321 1589.03 c 0,11,12
 679.458 1589.03 679.458 1589.03 772 1482.5 c 0,13,14
 863 1377.74 863 1377.74 863 1214 c 0,15,16
 863 991.387 863 991.387 725 854.5 c 0,0,1
371 877.5 m 0,17,18
 399 858 399 858 416.634 857.985 c 128,-1,19
 434.269 857.97 434.269 857.97 436.512 857.97 c 0,20,21
 569.424 857.97 569.424 857.97 631 972 c 0,22,23
 677 1057.19 677 1057.19 677 1196 c 0,24,25
 677 1389.72 677 1389.72 592.5 1450.5 c 0,26,27
 564 1471 564 1471 509 1470.5 c 128,-1,28
 454 1470 454 1470 407.5 1434.5 c 128,-1,29
 361 1399 361 1399 333 1346.5 c 0,30,31
 282 1250.88 282 1250.88 282 1123 c 0,32,33
 282 939.482 282 939.482 371 877.5 c 0,17,18
EndSplineSet
EndChar

StartChar: percent
Encoding: 37 37 174
Width: 1911
Flags: HW
LayerCount: 2
Fore
SplineSet
1343 1530 m 1,0,-1
 1502 1530 l 1,1,-1
 555 0 l 1,2,-1
 396 0 l 1,3,-1
 1343 1530 l 1,0,-1
649.5 783 m 128,-1,5
 573 745 573 745 491.5 745 c 128,-1,6
 410 745 410 745 358 768.5 c 128,-1,7
 306 792 306 792 271 834 c 0,8,9
 201 918 201 918 201 1055 c 0,10,11
 201 1219.36 201 1219.36 318 1347 c 0,12,13
 439.917 1480 439.917 1480 614 1480 c 0,14,15
 891 1480 891 1480 891 1185 c 0,16,17
 891 1012.21 891 1012.21 779.5 883 c 0,18,4
 726 821 726 821 649.5 783 c 128,-1,5
400 920.5 m 128,-1,20
 438 868 438 868 501 868 c 128,-1,21
 564 868 564 868 604 900 c 128,-1,22
 644 932 644 932 670 979.5 c 0,23,24
 721 1072.67 721 1072.67 721 1166.84 c 128,-1,25
 721 1261 721 1261 686 1309.5 c 128,-1,26
 651 1358 651 1358 590 1358 c 128,-1,27
 529 1358 529 1358 487 1327.5 c 128,-1,28
 445 1297 445 1297 417.5 1251.5 c 0,29,30
 362 1159.67 362 1159.67 362 1066.34 c 128,-1,19
 362 973 362 973 400 920.5 c 128,-1,20
1037 380.5 m 0,31,32
 1037 453 1037 453 1068 529.5 c 128,-1,33
 1099 606 1099 606 1154 666 c 0,34,35
 1275.92 799 1275.92 799 1450 799 c 0,36,37
 1727 799 1727 799 1727 504 c 0,38,39
 1727 331.215 1727 331.215 1615.5 202 c 0,40,41
 1496.42 64 1496.42 64 1315 64 c 0,42,43
 1181.17 64 1181.17 64 1107 153 c 0,44,45
 1037 237 1037 237 1037 380.5 c 0,31,32
1212 472.5 m 128,-1,47
 1198 420 1198 420 1198 356 c 128,-1,48
 1198 292 1198 292 1236 239.5 c 128,-1,49
 1274 187 1274 187 1337 187 c 128,-1,50
 1400 187 1400 187 1440 219 c 128,-1,51
 1480 251 1480 251 1506 298.5 c 0,52,53
 1557 391.673 1557 391.673 1557 485.837 c 128,-1,54
 1557 580 1557 580 1522 628.5 c 128,-1,55
 1487 677 1487 677 1426 677 c 128,-1,56
 1365 677 1365 677 1323 646.5 c 128,-1,57
 1281 616 1281 616 1253.5 570.5 c 128,-1,46
 1226 525 1226 525 1212 472.5 c 128,-1,47
EndSplineSet
Ligature2: "'frac' Diagonal Fractions in Latin lookup 10 subtable" zero slash zero
EndChar

StartChar: Oslash
Encoding: 216 216 175
Width: 1378
Flags: HW
LayerCount: 2
Fore
SplineSet
599 -16 m 0,0,1
 417.296 -16 417.296 -16 297 96 c 1,2,-1
 146 -132 l 1,3,-1
 57 -83 l 1,4,-1
 229 175 l 1,5,6
 107.654 349.821 107.654 349.821 107.654 640.526 c 0,7,8
 107.654 881.545 107.654 881.545 195 1088 c 0,9,10
 284.466 1299.46 284.466 1299.46 445.5 1421 c 0,11,12
 611.125 1546 611.125 1546 814 1546 c 0,13,14
 970.732 1546 970.732 1546 1084 1460 c 1,15,-1
 1224 1670 l 1,16,-1
 1313 1621 l 1,17,-1
 1158 1388 l 1,18,19
 1305.17 1210.17 1305.17 1210.17 1305.17 899.403 c 0,20,21
 1305.17 516.307 1305.17 516.307 1114.5 257 c 0,22,23
 986.405 82.7913 986.405 82.7913 799 17 c 0,24,25
 705 -16 705 -16 599 -16 c 0,0,1
978 1317 m 1,26,27
 906 1389 906 1389 782 1389 c 0,28,29
 645.257 1389 645.257 1389 533.5 1281.5 c 0,30,31
 372.458 1126.59 372.458 1126.59 326.5 835 c 0,32,33
 313.758 754.151 313.758 754.151 313.758 706.833 c 0,34,35
 313.758 470.561 313.758 470.561 356 346 c 1,36,-1
 978 1317 l 1,26,27
409 241 m 1,37,38
 484 136 484 136 631 136 c 0,39,40
 839.775 136 839.775 136 974.5 360 c 0,41,42
 1099.24 567.403 1099.24 567.403 1099.24 858.846 c 0,43,44
 1099.24 1095.94 1099.24 1095.94 1040 1225 c 1,45,-1
 409 241 l 1,37,38
EndSplineSet
EndChar

StartChar: aogonek
Encoding: 261 261 181
Width: 1174
Flags: HW
LayerCount: 2
Fore
SplineSet
939 -341 m 1,0,1
 831.571 -435 831.571 -435 694 -435 c 0,2,3
 599 -435 599 -435 546 -382 c 0,4,5
 501 -337 501 -337 501 -283 c 128,-1,6
 501 -229 501 -229 528.5 -185.5 c 128,-1,7
 556 -142 556 -142 594.5 -106.5 c 128,-1,8
 633 -71 633 -71 675 -44.5 c 2,9,-1
 746 0 l 1,10,-1
 761 190 l 1,11,12
 657.958 50.157 657.958 50.157 517.5 2 c 0,13,14
 465 -16 465 -16 396 -16 c 128,-1,15
 327 -16 327 -16 269 15 c 128,-1,16
 211 46 211 46 172.5 102.5 c 0,17,18
 97 213.299 97 213.299 97 416 c 0,19,20
 97 687.233 97 687.233 246.5 903.5 c 0,21,22
 353.819 1058.75 353.819 1058.75 531 1123 c 0,23,24
 622 1156 622 1156 735 1156 c 0,25,26
 825 1156 825 1156 961 1122 c 1,27,-1
 1074 1156 l 1,28,-1
 918 0 l 1,29,-1
 902 0 l 1,30,-1
 838 -47 l 1,31,32
 695 -154.25 695 -154.25 695 -221 c 0,33,34
 695 -257.25 695 -257.25 711.5 -269.625 c 0,35,36
 734.667 -287 734.667 -287 758 -287 c 0,37,38
 822.828 -287 822.828 -287 888 -242 c 1,39,-1
 939 -341 l 1,0,1
299 440 m 0,40,41
 299 136 299 136 442 136 c 0,42,43
 614.667 136 614.667 136 773 383 c 1,44,-1
 859 988 l 1,45,46
 784 1013 784 1013 708.5 1013 c 128,-1,47
 633 1013 633 1013 575 987 c 128,-1,48
 517 961 517 961 472 917 c 128,-1,49
 427 873 427 873 394.5 815.5 c 128,-1,50
 362 758 362 758 340.5 694 c 0,51,52
 299 570.465 299 570.465 299 440 c 0,40,41
EndSplineSet
EndChar

StartChar: ccedilla
Encoding: 231 231 183
Width: 905
Flags: HW
LayerCount: 2
Fore
SplineSet
534 -9 m 1,0,1
 558 -72.2727 558 -72.2727 558 -161.136 c 128,-1,2
 558 -250 558 -250 535.5 -307 c 128,-1,3
 513 -364 513 -364 474.5 -399 c 0,4,5
 403 -464 403 -464 280 -464 c 0,6,7
 214.8 -464 214.8 -464 177.4 -453 c 128,-1,8
 140 -442 140 -442 132 -436 c 1,9,-1
 157 -285 l 1,10,11
 183 -299 183 -299 221 -299 c 128,-1,12
 259 -299 259 -299 287.5 -292 c 128,-1,13
 316 -285 316 -285 338 -265 c 0,14,15
 387 -220.455 387 -220.455 387 -119 c 0,16,17
 387 -96 387 -96 387.5 -66 c 128,-1,18
 388 -36 388 -36 387 -10 c 1,19,20
 238 13 238 13 161.5 128.5 c 128,-1,21
 85 244 85 244 85 434 c 0,22,23
 85 698 85 698 230.5 912.5 c 0,24,25
 333.041 1063.67 333.041 1063.67 488.5 1124.5 c 0,26,27
 569 1156 569 1156 630.5 1156 c 128,-1,28
 692 1156 692 1156 721.5 1154 c 128,-1,29
 751 1152 751 1152 780.5 1147.5 c 0,30,31
 848.478 1137.13 848.478 1137.13 885 1118 c 1,32,-1
 834 951 l 1,33,34
 763.312 1009 763.312 1009 648 1009 c 0,35,36
 584 1009 584 1009 519.5 968 c 128,-1,37
 455 927 455 927 402.5 853 c 0,38,39
 284 685.971 284 685.971 284 454 c 0,40,41
 284 199.846 284 199.846 403 149.5 c 0,42,43
 442 133 442 133 500 133 c 0,44,45
 612.192 133 612.192 133 755 272 c 1,46,-1
 820 166 l 1,47,48
 747.031 71.5692 747.031 71.5692 631 20 c 0,49,50
 586 0 586 0 534 -9 c 1,0,1
EndSplineSet
EndChar

StartChar: eogonek
Encoding: 281 281 188
Width: 1051
Flags: HW
LayerCount: 2
Fore
SplineSet
598 0 m 1,0,1
 540 -16 540 -16 456.5 -16 c 128,-1,2
 373 -16 373 -16 297.5 22 c 0,3,4
 85.8261 128.538 85.8261 128.538 85.8261 419.081 c 0,5,6
 85.8261 571.619 85.8261 571.619 132.413 709.809 c 128,-1,7
 179 848 179 848 257 945.5 c 0,8,9
 425.4 1156 425.4 1156 684 1156 c 0,10,11
 891.396 1156 891.396 1156 948 1004.5 c 0,12,13
 965 959 965 959 965 891 c 128,-1,14
 965 823 965 823 931 756 c 128,-1,15
 897 689 897 689 841.5 637 c 128,-1,16
 786 585 786 585 714.5 547 c 128,-1,17
 643 509 643 509 568.5 483 c 0,18,19
 430.071 434.689 430.071 434.689 292 425 c 1,20,21
 291.529 414.176 291.529 414.176 291.529 390.647 c 128,-1,22
 291.529 367.118 291.529 367.118 297.265 322.559 c 128,-1,23
 303 278 303 278 325.5 235.5 c 0,24,25
 377.118 138 377.118 138 502 138 c 0,26,27
 665.185 138 665.185 138 834 297 c 1,28,-1
 889 186 l 1,29,30
 870 160 870 160 841 133 c 1,31,-1
 849 137 l 1,32,33
 834 120 834 120 805.5 92 c 2,34,-1
 675.5 -39.5 l 1,35,36
 548 -174.391 548 -174.391 548 -221 c 0,37,38
 548 -257.25 548 -257.25 564.5 -269.625 c 0,39,40
 587.667 -287 587.667 -287 611 -287 c 0,41,42
 675.828 -287 675.828 -287 741 -242 c 1,43,-1
 792 -341 l 1,44,45
 684.571 -435 684.571 -435 547 -435 c 0,46,47
 452 -435 452 -435 399 -382 c 0,48,49
 354 -337 354 -337 354 -285 c 128,-1,50
 354 -233 354 -233 381 -190 c 128,-1,51
 408 -147 408 -147 446.5 -110.5 c 128,-1,52
 485 -74 485 -74 527 -46 c 2,53,-1
 598 0 l 1,0,1
769 889 m 0,54,55
 769 1008 769 1008 641 1008 c 0,56,57
 500.533 1008 500.533 1008 400 852 c 0,58,59
 314.683 719.612 314.683 719.612 297 564 c 1,60,61
 444.686 571.384 444.686 571.384 594 655 c 0,62,63
 769 753 769 753 769 889 c 0,54,55
EndSplineSet
EndChar

StartChar: lslash
Encoding: 322 322 194
Width: 584
Flags: HW
LayerCount: 2
Fore
SplineSet
226 749 m 1,0,-1
 112 704 l 1,1,-1
 112 841 l 1,2,-1
 246 896 l 1,3,-1
 348 1638 l 1,4,-1
 543 1638 l 1,5,-1
 453 981 l 1,6,-1
 646 1060 l 1,7,-1
 646 913 l 1,8,-1
 432 829 l 1,9,-1
 320 4 l 1,10,-1
 125 4 l 1,11,-1
 226 749 l 1,0,-1
EndSplineSet
EndChar

StartChar: Aogonek
Encoding: 260 260 209
Width: 1265
Flags: HW
LayerCount: 2
Fore
SplineSet
1173 -341 m 1,0,1
 1065.57 -435 1065.57 -435 928 -435 c 0,2,3
 833 -435 833 -435 780 -382 c 0,4,5
 735 -337 735 -337 735 -283 c 128,-1,6
 735 -229 735 -229 762.5 -185.5 c 128,-1,7
 790 -142 790 -142 828.5 -106.5 c 128,-1,8
 867 -71 867 -71 909 -44.5 c 2,9,-1
 980 0 l 1,10,-1
 977 0 l 1,11,-1
 911 396 l 1,12,-1
 317 396 l 1,13,-1
 135 0 l 1,14,-1
 -76 0 l 1,15,-1
 670 1530 l 1,16,-1
 889 1530 l 1,17,-1
 1175 0 l 1,18,-1
 1136 0 l 1,19,-1
 1072 -47 l 1,20,21
 929 -154.25 929 -154.25 929 -221 c 0,22,23
 929 -257.25 929 -257.25 945.5 -269.625 c 0,24,25
 968.667 -287 968.667 -287 992 -287 c 0,26,27
 1056.83 -287 1056.83 -287 1122 -242 c 1,28,-1
 1173 -341 l 1,0,1
885 547 m 1,29,-1
 770 1236 l 1,30,-1
 757 1352 l 1,31,-1
 386 547 l 1,32,-1
 885 547 l 1,29,-1
EndSplineSet
EndChar

StartChar: caronvertical
Encoding: 65547 -1 220
Width: 315
Flags: HW
LayerCount: 2
Fore
SplineSet
393 1680 m 1,0,1
 421 1613.11 421 1613.11 421 1450 c 0,2,3
 421 1289.02 421 1289.02 352 1127.5 c 0,4,5
 330 1076 330 1076 303 1035 c 1,6,-1
 203 1075 l 1,7,-1
 197 1100 l 1,8,9
 238 1268.82 238 1268.82 238 1411 c 128,-1,10
 238 1553.29 238 1553.29 207 1602 c 1,11,-1
 216 1634 l 1,12,-1
 393 1680 l 1,0,1
EndSplineSet
EndChar

StartChar: afii61352
Encoding: 8470 8470 237
Width: 2497
Flags: HW
LayerCount: 2
Fore
SplineSet
1576.16 982.976 m 128,-1,1
 1576.16 1156.2 1576.16 1156.2 1633.58 1260.6 c 128,-1,2
 1691 1365 1691 1365 1759.5 1422 c 0,3,4
 1891.69 1532 1891.69 1532 2061 1532 c 0,5,6
 2255.65 1532 2255.65 1532 2356.5 1401 c 0,7,8
 2438.84 1294.04 2438.84 1294.04 2438.84 1122.9 c 0,9,10
 2438.84 952.105 2438.84 952.105 2381.42 846.052 c 128,-1,11
 2324 740 2324 740 2255.5 682 c 0,12,13
 2123.22 570 2123.22 570 1955 570 c 0,14,15
 1761.24 570 1761.24 570 1659 702.5 c 0,16,0
 1576.16 809.856 1576.16 809.856 1576.16 982.976 c 128,-1,1
355 1530 m 1,17,-1
 561 1530 l 1,18,-1
 1001 468 l 1,19,-1
 1064 261 l 1,20,-1
 1083 510 l 1,21,-1
 1206 1530 l 1,22,-1
 1394 1530 l 1,23,-1
 1201 0 l 1,24,-1
 1008 0 l 1,25,-1
 553 1075 l 1,26,-1
 500 1307 l 1,27,-1
 473 1009 l 1,28,-1
 347 0 l 1,29,-1
 162 0 l 1,30,-1
 355 1530 l 1,17,-1
2045.28 1389.04 m 0,31,32
 1800.6 1389.04 1800.6 1389.04 1767 1068 c 0,33,34
 1763.44 1032.89 1763.44 1032.89 1763.44 996.389 c 128,-1,35
 1763.44 959.889 1763.44 959.889 1771.22 908.944 c 0,36,37
 1789.37 790.08 1789.37 790.08 1874.5 738 c 0,38,39
 1915.43 712.963 1915.43 712.963 1969.8 712.963 c 0,40,41
 2216.6 712.963 2216.6 712.963 2247 1036 c 0,42,43
 2250.56 1071.11 2250.56 1071.11 2250.56 1107.61 c 128,-1,44
 2250.56 1144.11 2250.56 1144.11 2242.78 1195.06 c 0,45,46
 2224.77 1313.03 2224.77 1313.03 2140 1364.5 c 0,47,48
 2099.58 1389.04 2099.58 1389.04 2045.28 1389.04 c 0,31,32
1530 158 m 1,49,-1
 2303 158 l 1,50,-1
 2291 0 l 1,51,-1
 1518 0 l 1,52,-1
 1530 158 l 1,49,-1
EndSplineSet
EndChar

StartChar: oe
Encoding: 339 339 242
Width: 1764
Flags: HW
LayerCount: 2
Fore
SplineSet
866 182 m 1,0,1
 704.989 -16 704.989 -16 479 -16 c 0,2,3
 291.932 -16 291.932 -16 191 104.5 c 0,4,5
 88.8 226.514 88.8 226.514 88.8 460.79 c 0,6,7
 88.8 628.535 88.8 628.535 157 787 c 0,8,9
 227.694 951.26 227.694 951.26 354 1050.5 c 0,10,11
 488.273 1156 488.273 1156 650 1156 c 0,12,13
 900.245 1156 900.245 1156 993 954 c 1,14,15
 1160.62 1156 1160.62 1156 1413 1156 c 0,16,17
 1620.4 1156 1620.4 1156 1677 1004.5 c 0,18,19
 1694 959 1694 959 1694 891 c 128,-1,20
 1694 823 1694 823 1660 756 c 128,-1,21
 1626 689 1626 689 1570.5 637 c 128,-1,22
 1515 585 1515 585 1443.5 547 c 128,-1,23
 1372 509 1372 509 1297.5 483 c 0,24,25
 1159.07 434.689 1159.07 434.689 1021 425 c 1,26,27
 1020.53 414.176 1020.53 414.176 1020.53 390.647 c 128,-1,28
 1020.53 367.118 1020.53 367.118 1026.26 322.559 c 128,-1,29
 1032 278 1032 278 1054.5 235.5 c 0,30,31
 1106.12 138 1106.12 138 1231 138 c 0,32,33
 1394.19 138 1394.19 138 1563 297 c 1,34,-1
 1618 186 l 1,35,36
 1567.92 114.46 1567.92 114.46 1464.5 55.5 c 0,37,38
 1339.08 -16 1339.08 -16 1208 -16 c 0,39,40
 965 -16 965 -16 866 182 c 1,0,1
291.889 458.611 m 0,41,42
 291.889 131 291.889 131 509 131 c 0,43,44
 630.771 131 630.771 131 717 251.5 c 0,45,46
 789.137 352.307 789.137 352.307 821 523 c 1,47,48
 824 552 824 552 828.5 584 c 0,49,50
 837.85 650.491 837.85 650.491 836 706 c 1,51,52
 831.821 1009 831.821 1009 619 1009 c 0,53,54
 513.048 1009 513.048 1009 432 917 c 0,55,56
 326.583 797.338 326.583 797.338 299 571.5 c 0,57,58
 291.889 513.278 291.889 513.278 291.889 458.611 c 0,41,42
1498 889 m 0,59,60
 1498 1008 1498 1008 1370 1008 c 0,61,62
 1229.53 1008 1229.53 1008 1129 852 c 0,63,64
 1043.68 719.612 1043.68 719.612 1026 564 c 1,65,66
 1173.69 571.384 1173.69 571.384 1323 655 c 0,67,68
 1498 753 1498 753 1498 889 c 0,59,60
EndSplineSet
EndChar

StartChar: daggerdbl
Encoding: 8225 8225 243
Width: 815
Flags: HW
LayerCount: 2
Fore
SplineSet
324 510 m 1,0,-1
 353 629 l 1,1,-1
 135 629 l 1,2,-1
 159 779 l 1,3,-1
 388 779 l 1,4,-1
 387 981 l 1,5,-1
 427 1127 l 1,6,-1
 178 1127 l 1,7,-1
 198 1277 l 1,8,-1
 469 1277 l 1,9,-1
 470 1469 l 1,10,-1
 495 1646 l 1,11,-1
 685 1646 l 1,12,-1
 655 1469 l 1,13,-1
 594 1277 l 1,14,-1
 875 1277 l 1,15,-1
 854 1127 l 1,16,-1
 595 1127 l 1,17,-1
 589 981 l 1,18,-1
 530 779 l 1,19,-1
 755 779 l 1,20,-1
 734 629 l 1,21,-1
 520 629 l 1,22,-1
 513 510 l 1,23,-1
 395 -51 l 1,24,-1
 280 -51 l 1,25,-1
 324 510 l 1,0,-1
EndSplineSet
EndChar

StartChar: Euro
Encoding: 8364 8364 244
Width: 1389
Flags: HW
LayerCount: 2
Fore
SplineSet
436 554 m 1,0,1
 453.625 131 453.625 131 722 131 c 0,2,3
 843.938 131 843.938 131 912.469 156.5 c 0,4,5
 1006.18 191.371 1006.18 191.371 1086 247 c 1,6,-1
 1142 111 l 1,7,8
 1059.32 19.1315 1059.32 19.1315 840 -7.5 c 0,9,10
 770 -16 770 -16 693 -16 c 256,11,12
 410.583 -16 410.583 -16 290 278.5 c 0,13,14
 239.726 401.284 239.726 401.284 227 554 c 1,15,-1
 25 554 l 1,16,-1
 45 695 l 1,17,-1
 224 695 l 1,18,19
 227.952 797.742 227.952 797.742 246 894 c 1,20,-1
 70 894 l 1,21,-1
 90 1034 l 1,22,-1
 283 1034 l 1,23,24
 363.47 1273.4 363.47 1273.4 534 1409 c 0,25,26
 706.288 1546 706.288 1546 930 1546 c 0,27,28
 1072.53 1546 1072.53 1546 1186.5 1510.5 c 1,29,-1
 1244 1492 l 1,30,-1
 1180 1333 l 1,31,32
 1137.96 1375.04 1137.96 1375.04 991 1392 c 0,33,34
 939 1398 939 1398 876 1398 c 0,35,36
 730 1398 730 1398 632 1302 c 128,-1,37
 534 1206 534 1206 485 1034 c 1,38,-1
 1027 1034 l 1,39,-1
 1008 894 l 1,40,-1
 455 894 l 1,41,42
 440.136 806.675 440.136 806.675 436 695 c 1,43,-1
 982 695 l 1,44,-1
 963 554 l 1,45,-1
 436 554 l 1,0,1
EndSplineSet
EndChar

StartChar: infinity
Encoding: 8734 8734 245
Width: 1804
Flags: HW
LayerCount: 2
Fore
SplineSet
903 467 m 1,0,1
 728.571 225.877 728.571 225.877 481.016 225.877 c 0,2,3
 301.397 225.877 301.397 225.877 186 337 c 0,4,5
 74 444.852 74 444.852 74 602 c 0,6,7
 74 800.228 74 800.228 198 909 c 0,8,9
 310.86 1008 310.86 1008 494 1008 c 0,10,11
 690.308 1008 690.308 1008 830.5 850.5 c 0,12,13
 871 805 871 805 907 757 c 1,14,15
 1088.6 1008.03 1088.6 1008.03 1320.42 1008.03 c 0,16,17
 1517.96 1008.03 1517.96 1008.03 1630 890.5 c 0,18,19
 1730 785.598 1730 785.598 1730 631 c 0,20,21
 1730 438.342 1730 438.342 1616.5 332 c 0,22,23
 1502.3 225 1502.3 225 1300 225 c 0,24,25
 1111.83 225 1111.83 225 976 376.5 c 0,26,27
 937 420 937 420 903 467 c 1,0,1
407 396.5 m 0,28,29
 453 378 453 378 505.5 378 c 128,-1,30
 558 378 558 378 596.5 394.5 c 128,-1,31
 635 411 635 411 670.5 441 c 0,32,33
 733.484 494.226 733.484 494.226 804 600 c 1,34,-1
 744.5 684.5 l 2,35,36
 632.667 844 632.667 844 514 844 c 0,37,38
 394.4 844 394.4 844 329.5 772.5 c 0,39,40
 272 709.153 272 709.153 272 613 c 0,41,42
 272 450.793 272 450.793 407 396.5 c 0,28,29
1008 623 m 1,43,-1
 1072.5 537 l 1,44,45
 1197.95 377 1197.95 377 1334 377 c 0,46,47
 1427.7 377 1427.7 377 1483 450 c 0,48,49
 1532 514.68 1532 514.68 1532 613 c 128,-1,50
 1532 711.5 1532 711.5 1470 774.5 c 0,51,52
 1402.59 843 1402.59 843 1290 843 c 0,53,54
 1174.9 843 1174.9 843 1071 711.5 c 0,55,56
 1039 671 1039 671 1008 623 c 1,43,-1
EndSplineSet
EndChar

StartChar: lessequal
Encoding: 8804 8804 246
Width: 1368
Flags: HW
LayerCount: 2
Fore
SplineSet
206 767 m 1,0,-1
 1204 1204 l 1,1,-1
 1183 1021 l 1,2,-1
 485 724 l 1,3,-1
 1114 428 l 1,4,-1
 1093 246 l 1,5,-1
 197 689 l 1,6,-1
 206 767 l 1,0,-1
157 148 m 1,7,-1
 1105 148 l 1,8,-1
 1087 -2 l 1,9,-1
 139 -2 l 1,10,-1
 157 148 l 1,7,-1
EndSplineSet
EndChar

StartChar: greaterequal
Encoding: 8805 8805 247
Width: 1368
Flags: HW
LayerCount: 2
Fore
SplineSet
197 246 m 1,0,-1
 221 440 l 1,1,-1
 926 735 l 1,2,-1
 299 1024 l 1,3,-1
 323 1204 l 1,4,-1
 1212 767 l 1,5,-1
 1202 689 l 1,6,-1
 197 246 l 1,0,-1
141 -2 m 1,7,-1
 161 148 l 1,8,-1
 1109 148 l 1,9,-1
 1089 -2 l 1,10,-1
 141 -2 l 1,7,-1
EndSplineSet
EndChar

StartChar: partialdiff
Encoding: 8706 8706 248
Width: 1367
Flags: HW
LayerCount: 2
Fore
SplineSet
742 1050 m 0,0,1
 886.739 1050 886.739 1050 1010 1005 c 1,2,3
 969.28 1371.48 969.28 1371.48 721.5 1481 c 0,4,5
 631 1521 631 1521 505 1521 c 0,6,7
 406.6 1521 406.6 1521 347.8 1500 c 128,-1,8
 289 1479 289 1479 270 1467 c 1,9,-1
 197 1593 l 1,10,11
 327.333 1685 327.333 1685 547 1685 c 0,12,13
 902.922 1685 902.922 1685 1077.5 1409 c 0,14,15
 1226 1174.23 1226 1174.23 1226 822 c 0,16,17
 1226 154.878 1226 154.878 856 15 c 0,18,19
 774 -16 774 -16 670.5 -16 c 0,20,21
 460.944 -16 460.944 -16 312.838 120.038 c 128,-1,22
 164.733 256.075 164.733 256.075 164.733 504.133 c 128,-1,23
 164.733 752.191 164.733 752.191 322.631 901.095 c 128,-1,24
 480.53 1050 480.53 1050 742 1050 c 0,0,1
1018 839 m 1,25,26
 906.971 897 906.971 897 725 897 c 0,27,28
 578.897 897 578.897 897 480.5 802.5 c 0,29,30
 375.986 702.125 375.986 702.125 375.986 529.988 c 0,31,32
 375.986 250.163 375.986 250.163 544.5 172.5 c 0,33,34
 602 146 602 146 681 146 c 128,-1,35
 760 146 760 146 812 177 c 128,-1,36
 864 208 864 208 901 260.5 c 128,-1,37
 938 313 938 313 960.5 382.5 c 128,-1,38
 983 452 983 452 996 529 c 0,39,40
 1018 659.308 1018 659.308 1018 839 c 1,25,26
EndSplineSet
EndChar

StartChar: summation
Encoding: 8721 8721 249
Width: 1593
Flags: HW
LayerCount: 2
Fore
SplineSet
778 675 m 1,0,-1
 227 1442 l 1,1,-1
 257 1522 l 1,2,-1
 1290 1522 l 1,3,-1
 1290 1356 l 1,4,-1
 518 1356 l 1,5,-1
 1008 681 l 1,6,-1
 533 -14 l 1,7,-1
 1305 -14 l 1,8,-1
 1305 -170 l 1,9,-1
 253 -170 l 1,10,-1
 227 -116 l 1,11,-1
 778 675 l 1,0,-1
EndSplineSet
EndChar

StartChar: product
Encoding: 8719 8719 250
Width: 1657
Flags: HW
LayerCount: 2
Fore
SplineSet
331 1356 m 1,0,-1
 138 1356 l 1,1,-1
 138 1522 l 1,2,-1
 1519 1522 l 1,3,-1
 1519 1356 l 1,4,-1
 1326 1356 l 1,5,-1
 1326 -170 l 1,6,-1
 1101 -170 l 1,7,-1
 1101 1356 l 1,8,-1
 556 1356 l 1,9,-1
 556 -170 l 1,10,-1
 331 -170 l 1,11,-1
 331 1356 l 1,0,-1
EndSplineSet
EndChar

StartChar: pi
Encoding: 960 960 251
Width: 1556
Flags: HW
LayerCount: 2
Fore
SplineSet
1162 1140 m 2,0,1
 1283.39 1140 1283.39 1140 1309 1215 c 1,2,-1
 1451 1215 l 1,3,4
 1439.58 1012.21 1439.58 1012.21 1276 969 c 0,5,6
 1223 955 1223 955 1156 955 c 2,7,-1
 1152 955 l 1,8,-1
 1080 263 l 1,9,10
 1073.31 156 1073.31 156 1149 156 c 0,11,12
 1228.3 156 1228.3 156 1302 290 c 1,13,-1
 1409 241 l 1,14,15
 1391.75 141.838 1391.75 141.838 1303 66.5 c 0,16,17
 1205.81 -16 1205.81 -16 1087.4 -16 c 128,-1,18
 969 -16 969 -16 916.5 57 c 0,19,20
 876.842 112.144 876.842 112.144 876.842 198.101 c 0,21,22
 876.842 225.935 876.842 225.935 881 257 c 2,23,-1
 971 955 l 1,24,-1
 649 955 l 1,25,-1
 581 428 l 1,26,27
 568.313 209.783 568.313 209.783 481.5 113.5 c 0,28,29
 410.287 34.5182 410.287 34.5182 362.143 10.7591 c 128,-1,30
 314 -13 314 -13 269 -24 c 1,31,-1
 135 97 l 1,32,33
 181.836 107.036 181.836 107.036 239.918 149.018 c 128,-1,34
 298 191 298 191 322 226 c 128,-1,35
 346 261 346 261 359.5 301.5 c 0,36,37
 376.237 351.711 376.237 351.711 389 487 c 1,38,-1
 465 956 l 1,39,-1
 414 956 l 2,40,41
 308.133 956 308.133 956 231 867 c 1,42,-1
 120 920 l 1,43,44
 148 1036 148 1036 226.5 1088 c 128,-1,45
 305 1140 305 1140 449 1140 c 2,46,-1
 1162 1140 l 2,0,1
EndSplineSet
EndChar

StartChar: integral
Encoding: 8747 8747 252
Width: 1042
Flags: HW
LayerCount: 2
Fore
SplineSet
194 -261 m 1,0,1
 287 -354 287 -354 412 -354 c 0,2,3
 531.875 -354 531.875 -354 583.5 -291 c 0,4,5
 643 -218.39 643 -218.39 643 -30 c 256,6,7
 643 182.906 643 182.906 440 575.5 c 0,8,9
 318.675 810.139 318.675 810.139 277.837 953.069 c 128,-1,10
 237 1096 237 1096 237 1201.5 c 128,-1,11
 237 1307 237 1307 263 1395.5 c 128,-1,12
 289 1484 289 1484 342.5 1548.5 c 0,13,14
 455.721 1685 455.721 1685 666 1685 c 0,15,16
 879.956 1685 879.956 1685 964 1558 c 1,17,-1
 852 1445 l 1,18,19
 830 1476 830 1476 781 1498.5 c 128,-1,20
 732 1521 732 1521 661 1521 c 0,21,22
 438 1521 438 1521 438 1202 c 0,23,24
 438 1036.67 438 1036.67 543 801 c 0,25,26
 588 700 588 700 640 598 c 128,-1,27
 692 496 692 496 737 392 c 0,28,29
 842 149.333 842 149.333 842 -30 c 0,30,31
 842 -378.649 842 -378.649 629 -481 c 0,32,33
 552 -518 552 -518 467.5 -518 c 128,-1,34
 383 -518 383 -518 332.5 -507.5 c 128,-1,35
 282 -497 282 -497 239 -480 c 0,36,37
 156.578 -447.414 156.578 -447.414 111 -395 c 1,38,-1
 194 -261 l 1,0,1
EndSplineSet
EndChar

StartChar: Omega
Encoding: 8486 8486 253
Width: 1659
Flags: HW
LayerCount: 2
Fore
SplineSet
77 151 m 1,0,-1
 446 151 l 1,1,2
 331.206 237.095 331.206 237.095 249 398.5 c 0,3,4
 156 581.098 156 581.098 156 772.549 c 128,-1,5
 156 964 156 964 213.5 1112.5 c 128,-1,6
 271 1261 271 1261 371 1357.5 c 0,7,8
 566.337 1546 566.337 1546 899 1546 c 0,9,10
 1169.35 1546 1169.35 1546 1350 1368.5 c 0,11,12
 1535 1186.73 1535 1186.73 1535 907 c 0,13,14
 1535 717.68 1535 717.68 1429 502.5 c 0,15,16
 1319.69 280.594 1319.69 280.594 1155 161 c 1,17,-1
 1526 161 l 1,18,-1
 1513 0 l 1,19,-1
 927 0 l 1,20,-1
 907 139 l 1,21,22
 1088.56 235.12 1088.56 235.12 1208 432.5 c 0,23,24
 1338 647.331 1338 647.331 1338 887 c 0,25,26
 1338 1212.06 1338 1212.06 1089.5 1340 c 0,27,28
 992.385 1390 992.385 1390 880.192 1390 c 128,-1,29
 768 1390 768 1390 671 1352 c 128,-1,30
 574 1314 574 1314 503 1236 c 0,31,32
 350 1067.92 350 1067.92 350 754 c 0,33,34
 350 545.375 350 545.375 449 366.5 c 0,35,36
 537.533 206.537 537.533 206.537 653 139 c 1,37,-1
 613 0 l 1,38,-1
 58 0 l 1,39,-1
 77 151 l 1,0,-1
EndSplineSet
EndChar

StartChar: radical
Encoding: 8730 8730 254
Width: 1602
Flags: HW
LayerCount: 2
Fore
SplineSet
84 604 m 1,0,-1
 267 716 l 1,1,-1
 454 716 l 1,2,-1
 772 -93 l 1,3,-1
 1371 1870 l 1,4,-1
 1582 1870 l 1,5,-1
 869 -354 l 1,6,-1
 696 -354 l 1,7,-1
 302 528 l 1,8,-1
 173 458 l 1,9,-1
 84 604 l 1,0,-1
EndSplineSet
EndChar

StartChar: Delta
Encoding: 8710 8710 256
Width: 1407
Flags: HW
LayerCount: 2
Fore
SplineSet
-33 22 m 1,0,-1
 731 1508 l 1,1,-1
 763 1508 l 1,2,-1
 1332 27 l 1,3,-1
 1315 0 l 1,4,-1
 -21 0 l 1,5,-1
 -33 22 l 1,0,-1
1052 170 m 1,6,-1
 725 1074 l 1,7,-1
 284 170 l 1,8,-1
 1052 170 l 1,6,-1
EndSplineSet
EndChar

StartChar: v
Encoding: 118 118 257
Width: 1007
Flags: HW
LayerCount: 2
Fore
SplineSet
212 359 m 1,0,-1
 102 1140 l 1,1,-1
 320 1140 l 1,2,-1
 387 359 l 1,3,-1
 397 154 l 1,4,-1
 541 342 l 1,5,6
 615 463.5 l 1,7,8
 686.788 584.234 686.788 584.234 718.394 675.617 c 128,-1,9
 750 767 750 767 763.5 823 c 128,-1,10
 777 879 777 879 784 920 c 128,-1,11
 791 961 791 961 797 1004.5 c 0,12,13
 811.54 1109.91 811.54 1109.91 808 1140 c 1,14,-1
 994 1140 l 1,15,16
 996 1107 996 1107 996 1073 c 128,-1,17
 996 1039 996 1039 989.5 963.5 c 128,-1,18
 983 888 983 888 945.5 774.5 c 128,-1,19
 908 661 908 661 854 556 c 0,20,21
 754.06 361.672 754.06 361.672 606 184 c 1,22,-1
 445 -4 l 1,23,-1
 270 -16 l 1,24,-1
 212 359 l 1,0,-1
EndSplineSet
EndChar

StartChar: ellipsis
Encoding: 8230 8230 258
Width: 1579
Flags: HW
LayerCount: 2
Fore
SplineSet
1143 50.5 m 128,-1,1
 1136 74 1136 74 1140 104 c 128,-1,2
 1144 134 1144 134 1158.5 161 c 128,-1,3
 1173 188 1173 188 1195 207.5 c 0,4,5
 1242.95 250 1242.95 250 1288.47 250 c 128,-1,6
 1334 250 1334 250 1358.5 240 c 0,7,8
 1419.12 215.255 1419.12 215.255 1419.12 143.469 c 0,9,10
 1419.12 67.6685 1419.12 67.6685 1359 18 c 0,11,12
 1310.58 -22 1310.58 -22 1266.79 -22 c 128,-1,13
 1223 -22 1223 -22 1201.5 -13.5 c 128,-1,14
 1180 -5 1180 -5 1165 11 c 128,-1,0
 1150 27 1150 27 1143 50.5 c 128,-1,1
617 50.5 m 128,-1,16
 610 74 610 74 614 104 c 128,-1,17
 618 134 618 134 632.5 161 c 128,-1,18
 647 188 647 188 669 207.5 c 0,19,20
 716.949 250 716.949 250 762.474 250 c 128,-1,21
 808 250 808 250 832.5 240 c 0,22,23
 893.125 215.255 893.125 215.255 893.125 143.469 c 0,24,25
 893.125 67.6685 893.125 67.6685 833 18 c 0,26,27
 784.579 -22 784.579 -22 740.789 -22 c 128,-1,28
 697 -22 697 -22 675.5 -13.5 c 128,-1,29
 654 -5 654 -5 639 11 c 128,-1,15
 624 27 624 27 617 50.5 c 128,-1,16
113 11 m 128,-1,31
 98 27 98 27 92.2727 46.2273 c 128,-1,32
 86.5455 65.4545 86.5455 65.4545 86.5455 94.6489 c 128,-1,33
 86.5455 123.843 86.5455 123.843 103.773 155.922 c 128,-1,34
 121 188 121 188 143 207.5 c 0,35,36
 190.949 250 190.949 250 236.474 250 c 128,-1,37
 282 250 282 250 306.5 240 c 0,38,39
 367.125 215.255 367.125 215.255 367.125 143.469 c 0,40,41
 367.125 67.6685 367.125 67.6685 307 18 c 0,42,43
 258.579 -22 258.579 -22 214.789 -22 c 128,-1,44
 171 -22 171 -22 149.5 -13.5 c 128,-1,30
 128 -5 128 -5 113 11 c 128,-1,31
EndSplineSet
EndChar

StartChar: perthousand
Encoding: 8240 8240 259
Width: 2698
Flags: HW
LayerCount: 2
Fore
SplineSet
1824 380.5 m 0,0,1
 1824 453 1824 453 1855 529.5 c 128,-1,2
 1886 606 1886 606 1941 666 c 0,3,4
 2062.92 799 2062.92 799 2237 799 c 0,5,6
 2514 799 2514 799 2514 504 c 0,7,8
 2514 331.215 2514 331.215 2402.5 202 c 0,9,10
 2283.42 64.0001 2283.42 64.0001 2102 64 c 0,11,12
 1968.17 64 1968.17 64 1894 153 c 0,13,14
 1824 237 1824 237 1824 380.5 c 0,0,1
1999 472.5 m 128,-1,16
 1985 420 1985 420 1985 356 c 128,-1,17
 1985 292 1985 292 2023 239.5 c 128,-1,18
 2061 187 2061 187 2124 187 c 128,-1,19
 2187 187 2187 187 2227 219 c 128,-1,20
 2267 251 2267 251 2293 298.5 c 0,21,22
 2344 391.673 2344 391.673 2344 485.837 c 128,-1,23
 2344 580 2344 580 2309 628.5 c 128,-1,24
 2274 677 2274 677 2213 677 c 128,-1,25
 2152 677 2152 677 2110 646.5 c 128,-1,26
 2068 616 2068 616 2040.5 570.5 c 128,-1,15
 2013 525 2013 525 1999 472.5 c 128,-1,16
1343 1530 m 1,27,-1
 1502 1530 l 1,28,-1
 555 0 l 1,29,-1
 396 0 l 1,30,-1
 1343 1530 l 1,27,-1
649.5 783 m 128,-1,32
 573 745 573 745 491.5 745 c 128,-1,33
 410 745 410 745 358 768.5 c 128,-1,34
 306 792 306 792 271 834 c 0,35,36
 201 918 201 918 201 1055 c 0,37,38
 201 1219.36 201 1219.36 318 1347 c 0,39,40
 439.917 1480 439.917 1480 614 1480 c 0,41,42
 891 1480 891 1480 891 1185 c 0,43,44
 891 1012.21 891 1012.21 779.5 883 c 0,45,31
 726 821 726 821 649.5 783 c 128,-1,32
400 920.5 m 128,-1,47
 438 868 438 868 501 868 c 128,-1,48
 564 868 564 868 604 900 c 128,-1,49
 644 932 644 932 670 979.5 c 0,50,51
 721 1072.67 721 1072.67 721 1166.84 c 128,-1,52
 721 1261 721 1261 686 1309.5 c 128,-1,53
 651 1358 651 1358 590 1358 c 128,-1,54
 529 1358 529 1358 487 1327.5 c 128,-1,55
 445 1297 445 1297 417.5 1251.5 c 0,56,57
 362 1159.67 362 1159.67 362 1066.34 c 128,-1,46
 362 973 362 973 400 920.5 c 128,-1,47
1037 380.5 m 0,58,59
 1037 453 1037 453 1068 529.5 c 128,-1,60
 1099 606 1099 606 1154 666 c 0,61,62
 1275.92 799 1275.92 799 1450 799 c 0,63,64
 1727 799 1727 799 1727 504 c 0,65,66
 1727 331.215 1727 331.215 1615.5 202 c 0,67,68
 1496.42 64 1496.42 64 1315 64 c 0,69,70
 1181.17 64 1181.17 64 1107 153 c 0,71,72
 1037 237 1037 237 1037 380.5 c 0,58,59
1212 472.5 m 128,-1,74
 1198 420 1198 420 1198 356 c 128,-1,75
 1198 292 1198 292 1236 239.5 c 128,-1,76
 1274 187 1274 187 1337 187 c 128,-1,77
 1400 187 1400 187 1440 219 c 128,-1,78
 1480 251 1480 251 1506 298.5 c 0,79,80
 1557 391.673 1557 391.673 1557 485.837 c 128,-1,81
 1557 580 1557 580 1522 628.5 c 128,-1,82
 1487 677 1487 677 1426 677 c 128,-1,83
 1365 677 1365 677 1323 646.5 c 128,-1,84
 1281 616 1281 616 1253.5 570.5 c 128,-1,73
 1226 525 1226 525 1212 472.5 c 128,-1,74
EndSplineSet
Ligature2: "'frac' Diagonal Fractions in Latin lookup 10 subtable" zero slash zero zero
EndChar

StartChar: florin
Encoding: 402 402 260
Width: 1059
Flags: HW
LayerCount: 2
Fore
SplineSet
1007 1491 m 1,0,1
 952.75 1522 952.75 1522 885.875 1522 c 128,-1,2
 819 1522 819 1522 785 1514 c 128,-1,3
 751 1506 751 1506 724 1481.5 c 0,4,5
 665.473 1428.39 665.473 1428.39 647 1288 c 2,6,-1
 629 1155 l 1,7,-1
 902 1155 l 1,8,-1
 887 999 l 1,9,-1
 608 999 l 1,10,-1
 432 -356 l 1,11,-1
 234 -356 l 1,12,-1
 413 999 l 1,13,-1
 194 999 l 1,14,-1
 208 1101 l 1,15,-1
 434 1155 l 1,16,-1
 444 1230 l 2,17,18
 472.09 1437.87 472.09 1437.87 606.5 1565.5 c 0,19,20
 724.973 1678 724.973 1678 854.487 1678 c 128,-1,21
 984 1678 984 1678 1018 1661 c 1,22,-1
 1007 1491 l 1,0,1
EndSplineSet
EndChar

StartChar: kgreenlandic
Encoding: 312 312 261
Width: 1041
Flags: HW
LayerCount: 2
Fore
SplineSet
403 630 m 1,0,-1
 402 631 l 1,1,2
 742.319 816.629 742.319 816.629 868 1155 c 1,3,-1
 1054 1155 l 1,4,5
 1036.46 956.166 1036.46 956.166 836 757.5 c 0,6,7
 731.616 654.048 731.616 654.048 620 597 c 1,8,-1
 984 0 l 1,9,-1
 757 0 l 1,10,-1
 402 630 l 1,11,-1
 403 630 l 1,0,-1
240 1155 m 1,12,-1
 434 1155 l 1,13,-1
 278 0 l 1,14,-1
 83 0 l 1,15,-1
 240 1155 l 1,12,-1
EndSplineSet
EndChar

StartChar: scedilla
Encoding: 351 351 263
Width: 872
Flags: HW
LayerCount: 2
Fore
SplineSet
446 -7 m 1,0,1
 471 -69.5 471 -69.5 471 -159.75 c 128,-1,2
 471 -250 471 -250 448.5 -307 c 128,-1,3
 426 -364 426 -364 387.5 -399 c 0,4,5
 316 -464 316 -464 193 -464 c 0,6,7
 127.8 -464 127.8 -464 90.4 -453 c 128,-1,8
 53 -442 53 -442 45 -436 c 1,9,-1
 70 -285 l 1,10,11
 96 -299 96 -299 134 -299 c 128,-1,12
 172 -299 172 -299 200.5 -292 c 128,-1,13
 229 -285 229 -285 251 -265 c 0,14,15
 300 -220.455 300 -220.455 300 -119 c 0,16,17
 300 -96 300 -96 300.5 -68.5 c 128,-1,18
 301 -41 301 -41 300 -15 c 1,19,20
 166.326 -8.92391 166.326 -8.92391 81 23.5 c 0,21,22
 56 33 56 33 44 43 c 1,23,-1
 81 214 l 1,24,25
 205.5 131 205.5 131 348 131 c 0,26,27
 478 131 478 131 521.5 203.5 c 0,28,29
 538 231 538 231 538 270 c 128,-1,30
 538 309 538 309 526.5 337 c 128,-1,31
 515 365 515 365 494 390.5 c 128,-1,32
 473 416 473 416 443 442 c 2,33,-1
 376 500 l 2,34,35
 270.75 590.214 270.75 590.214 236.875 638.607 c 0,36,37
 170 734.143 170 734.143 170 827.071 c 128,-1,38
 170 920 170 920 201 978.5 c 128,-1,39
 232 1037 232 1037 284 1076.5 c 0,40,41
 388.658 1156 388.658 1156 550 1156 c 0,42,43
 672.154 1156 672.154 1156 733.077 1139.5 c 128,-1,44
 794 1123 794 1123 806 1117 c 1,45,-1
 768 934 l 1,46,47
 740.878 974.684 740.878 974.684 639 999.5 c 0,48,49
 600 1009 600 1009 556 1009 c 128,-1,50
 512 1009 512 1009 477 1001 c 128,-1,51
 442 993 442 993 415.5 976 c 0,52,53
 358 939.113 358 939.113 358 868 c 0,54,55
 358 770.714 358 770.714 451 691 c 1,56,-1
 589 575 l 1,57,58
 732 450.333 732 450.333 732 295 c 0,59,60
 732 105.623 732 105.623 563 27.5 c 0,61,62
 510 3 510 3 446 -7 c 1,0,1
EndSplineSet
Substitution2: "'locl' Localized Forms lookup 7 subtable" uni0219
Substitution2: "'locl' Localized Forms lookup 6 subtable" uni0219
Substitution2: "'aalt' Access All Alternates in Latin lookup 0 subtable" uni0219
EndChar

StartChar: trademark
Encoding: 8482 8482 269
Width: 2120
Flags: HW
LayerCount: 2
Fore
SplineSet
1051 1530 m 1,0,-1
 1324 1530 l 1,1,-1
 1451 962 l 1,2,-1
 1687 1530 l 1,3,-1
 1974 1530 l 1,4,-1
 1949 754 l 1,5,-1
 1775 754 l 1,6,-1
 1798 1217 l 1,7,-1
 1812 1440 l 1,8,-1
 1783 1370 l 1,9,-1
 1488 746 l 1,10,-1
 1361 746 l 1,11,-1
 1223 1293 l 1,12,-1
 1188 1443 l 1,13,-1
 1162 1286 l 1,14,-1
 1064 754 l 1,15,-1
 903 754 l 1,16,-1
 1051 1530 l 1,0,-1
424 1385 m 1,17,-1
 173 1385 l 1,18,-1
 195 1530 l 1,19,-1
 861 1530 l 1,20,-1
 845 1385 l 1,21,-1
 595 1385 l 1,22,-1
 507 754 l 1,23,-1
 336 753 l 1,24,-1
 424 1385 l 1,17,-1
EndSplineSet
EndChar

StartChar: estimated
Encoding: 8494 8494 270
Width: 1372
Flags: HW
LayerCount: 2
Fore
SplineSet
1280 832 m 1,0,1
 1280 683.25 1280 683.25 1269 631 c 1,2,-1
 375 631 l 1,3,-1
 375 280 l 1,4,5
 485.98 101 485.98 101 760 101 c 0,6,7
 933 101 933 101 1121 195 c 1,8,-1
 1160 82 l 1,9,10
 1064.72 13.515 1064.72 13.515 850.5 -9.5 c 0,11,12
 790 -16 790 -16 738 -16 c 0,13,14
 445.503 -16 445.503 -16 279.5 166.5 c 0,15,16
 115 347.348 115 347.348 115 671 c 0,17,18
 115 976 115 976 271 1158 c 0,19,20
 440.806 1356.11 440.806 1356.11 753.486 1356.11 c 0,21,22
 967.812 1356.11 967.812 1356.11 1115 1219 c 0,23,24
 1272.18 1072.59 1272.18 1072.59 1280 832 c 1,0,1
1036 1109 m 1,25,26
 942.586 1238 942.586 1238 715.426 1238 c 128,-1,27
 488.265 1238 488.265 1238 375 1053 c 1,28,-1
 375 768 l 1,29,-1
 1036 768 l 1,30,-1
 1036 1109 l 1,25,26
EndSplineSet
EndChar

StartChar: notequal
Encoding: 8800 8800 271
Width: 1063
Flags: HW
LayerCount: 2
Fore
SplineSet
309 339 m 1,0,-1
 96 339 l 1,1,-1
 114 496 l 1,2,-1
 382 496 l 1,3,-1
 544 848 l 1,4,-1
 166 848 l 1,5,-1
 184 1005 l 1,6,-1
 617 1005 l 1,7,-1
 764 1324 l 1,8,-1
 923 1324 l 1,9,-1
 776 1005 l 1,10,-1
 999 1005 l 1,11,-1
 981 848 l 1,12,-1
 703 848 l 1,13,-1
 541 496 l 1,14,-1
 929 496 l 1,15,-1
 911 339 l 1,16,-1
 468 339 l 1,17,-1
 312 0 l 1,18,-1
 153 0 l 1,19,-1
 309 339 l 1,0,-1
EndSplineSet
EndChar

StartChar: minute
Encoding: 8242 8242 272
Width: 623
Flags: HW
LayerCount: 2
Fore
SplineSet
404 1782 m 1,0,-1
 609 1782 l 1,1,-1
 413 1190 l 1,2,-1
 275 1190 l 1,3,-1
 404 1782 l 1,0,-1
EndSplineSet
EndChar

StartChar: quotereversed
Encoding: 8219 8219 274
Width: 682
Flags: HW
LayerCount: 2
Fore
SplineSet
381 896 m 1,0,1
 210.598 1044.56 210.598 1044.56 188 1263 c 0,2,3
 185.811 1284.16 185.811 1284.16 185.811 1329.49 c 128,-1,4
 185.811 1374.81 185.811 1374.81 204.405 1442.41 c 128,-1,5
 223 1510 223 1510 253.5 1557 c 128,-1,6
 284 1604 284 1604 320.5 1637.5 c 0,7,8
 393.777 1704.75 393.777 1704.75 468 1716 c 1,9,-1
 555 1572 l 1,10,-1
 549 1531 l 1,11,12
 438.828 1480.75 438.828 1480.75 406 1356 c 0,13,14
 392.162 1305.84 392.162 1305.84 392.162 1278.14 c 128,-1,15
 392.162 1250.43 392.162 1250.43 393.581 1219.22 c 128,-1,16
 395 1188 395 1188 409 1141.5 c 0,17,18
 437.129 1048.07 437.129 1048.07 487 1005 c 1,19,-1
 483 983 l 1,20,-1
 381 896 l 1,0,1
EndSplineSet
EndChar

StartChar: OE
Encoding: 338 338 276
Width: 2106
Flags: HW
LayerCount: 2
Fore
SplineSet
578 -16 m 0,0,1
 477 -16 477 -16 386 33.5 c 128,-1,2
 295 83 295 83 234 168.5 c 0,3,4
 107.654 345.592 107.654 345.592 107.654 640.526 c 0,5,6
 107.654 881.545 107.654 881.545 195 1088 c 0,7,8
 284.466 1299.46 284.466 1299.46 445.5 1421 c 0,9,10
 611.125 1546 611.125 1546 814 1546 c 0,11,12
 1119.77 1546 1119.77 1546 1231 1239 c 1,13,-1
 1268 1530 l 1,14,-1
 2035 1530 l 1,15,-1
 2028 1373 l 1,16,-1
 1447 1381 l 1,17,-1
 1380 854 l 1,18,-1
 1818 861 l 1,19,-1
 1806 695 l 1,20,-1
 1363 710 l 1,21,-1
 1291 149 l 1,22,-1
 1991 165 l 1,23,-1
 1977 0 l 1,24,-1
 1075 0 l 1,25,-1
 1108 262 l 1,26,27
 915.538 -16 915.538 -16 578 -16 c 0,0,1
631 136 m 0,28,29
 839.775 136 839.775 136 974.5 360 c 0,30,31
 1099.24 567.403 1099.24 567.403 1099.24 858.846 c 0,32,33
 1099.24 1268.86 1099.24 1268.86 919.5 1359.5 c 0,34,35
 861 1389 861 1389 786 1389 c 128,-1,36
 711 1389 711 1389 648.5 1360.5 c 128,-1,37
 586 1332 586 1332 533.5 1281.5 c 128,-1,38
 481 1231 481 1231 439.5 1161 c 0,39,40
 313.758 948.904 313.758 948.904 313.758 670.986 c 0,41,42
 313.758 391.408 313.758 391.408 393.379 263.704 c 128,-1,43
 473 136 473 136 631 136 c 0,28,29
EndSplineSet
EndChar

StartChar: gcommaaccent
Encoding: 291 291 289
Width: 1157
Flags: HW
LayerCount: 2
Fore
SplineSet
682 1237 m 1,0,1
 623.051 1250.31 623.051 1250.31 584.5 1317.5 c 0,2,3
 549 1379.37 549 1379.37 549 1448.19 c 128,-1,4
 549 1517 549 1517 566.5 1567.5 c 128,-1,5
 584 1618 584 1618 611 1655.5 c 0,6,7
 664.624 1729.98 664.624 1729.98 731 1746 c 1,8,-1
 811 1696 l 1,9,-1
 808 1670 l 1,10,11
 740 1617.11 740 1617.11 740 1520 c 0,12,13
 740 1462.23 740 1462.23 784 1425 c 0,14,15
 797 1414 797 1414 812 1411 c 1,16,-1
 806 1357 l 1,17,-1
 682 1237 l 1,0,1
171 -304 m 1,18,19
 280.2 -356 280.2 -356 428 -356 c 0,20,21
 606.887 -356 606.887 -356 670.5 -205.5 c 0,22,23
 691 -157 691 -157 703 -96 c 1,24,-1
 752 191 l 1,25,26
 648.484 51.7891 648.484 51.7891 500.5 2 c 0,27,28
 447 -16 447 -16 378 -16 c 128,-1,29
 309 -16 309 -16 251 15 c 128,-1,30
 193 46 193 46 154.5 102.5 c 0,31,32
 79 213.299 79 213.299 79 416 c 0,33,34
 79 685.623 79 685.623 234 903.5 c 0,35,36
 344.479 1058.8 344.479 1058.8 522.5 1123 c 0,37,38
 614 1156 614 1156 727 1156 c 0,39,40
 817 1156 817 1156 953 1122 c 1,41,-1
 1070 1156 l 1,42,-1
 900 -93 l 1,43,44
 877.822 -239.005 877.822 -239.005 790 -340 c 0,45,46
 647.391 -504 647.391 -504 390 -504 c 0,47,48
 276.538 -504 276.538 -504 206.269 -489.5 c 128,-1,49
 136 -475 136 -475 121 -469 c 1,50,-1
 171 -304 l 1,18,19
281 440 m 0,51,52
 281 136 281 136 424 136 c 0,53,54
 518.556 136 518.556 136 620 219 c 0,55,56
 697 282 697 282 763 381 c 1,57,-1
 849 988 l 1,58,59
 774 1013 774 1013 699.5 1013 c 128,-1,60
 625 1013 625 1013 566 987 c 128,-1,61
 507 961 507 961 461 917 c 128,-1,62
 415 873 415 873 381 815.5 c 128,-1,63
 347 758 347 758 325 694 c 0,64,65
 281 566 281 566 281 440 c 0,51,52
EndSplineSet
EndChar

StartChar: macron.cap
Encoding: 65548 -1 313
Width: 614
Flags: HW
LayerCount: 2
Fore
SplineSet
40 1878 m 1,0,-1
 550 1878 l 1,1,-1
 545 1729 l 1,2,-1
 36 1729 l 1,3,-1
 40 1878 l 1,0,-1
EndSplineSet
EndChar

StartChar: hcircumflex
Encoding: 293 293 371
Width: 1198
Flags: HW
LayerCount: 2
Fore
SplineSet
296 1638 m 1,0,-1
 491 1638 l 1,1,-1
 475 1492 l 1,2,-1
 764 1796 l 1,3,-1
 942 1796 l 1,4,-1
 1132 1452 l 1,5,-1
 1038 1384 l 1,6,-1
 827 1618 l 1,7,-1
 514 1375 l 1,8,-1
 467 1421 l 1,9,-1
 439 1159 l 1,10,-1
 399 909 l 1,11,12
 542.399 1079.08 542.399 1079.08 723.5 1136.5 c 0,13,14
 785 1156 785 1156 847 1156 c 0,15,16
 958 1156 958 1156 1013.5 1089 c 128,-1,17
 1069 1022 1069 1022 1069 866 c 0,18,19
 1069 797.353 1069 797.353 1045 626.676 c 0,20,21
 987.128 228.478 987.128 228.478 974.064 145.739 c 128,-1,22
 961 63 961 63 952 0 c 1,23,-1
 756 0 l 1,24,25
 773 130 773 130 793.5 263 c 2,26,-1
 831 514 l 2,27,28
 870 770.941 870 770.941 870 832.471 c 128,-1,29
 870 894 870 894 862.5 917.5 c 128,-1,30
 855 941 855 941 841.5 954 c 0,31,32
 819.692 975 819.692 975 771.346 975 c 128,-1,33
 723 975 723 975 672.5 954 c 128,-1,34
 622 933 622 933 570.5 897.5 c 0,35,36
 460.036 821.355 460.036 821.355 381 718 c 1,37,-1
 283 0 l 1,38,-1
 88 0 l 1,39,-1
 296 1638 l 1,0,-1
EndSplineSet
EndChar

StartChar: lozenge
Encoding: 9674 9674 388
Width: 1175
Flags: HW
LayerCount: 2
Fore
SplineSet
50 762 m 1,0,-1
 50 775 l 1,1,-1
 586 1516 l 1,2,-1
 590 1516 l 1,3,-1
 1125 775 l 1,4,-1
 1125 762 l 1,5,-1
 590 0 l 1,6,-1
 585 0 l 1,7,-1
 50 762 l 1,0,-1
589 293 m 1,8,-1
 908 769 l 1,9,-1
 908 772 l 1,10,-1
 589 1226 l 1,11,-1
 586 1226 l 1,12,-1
 267 772 l 1,13,-1
 267 766 l 1,14,-1
 586 293 l 1,15,-1
 589 293 l 1,8,-1
EndSplineSet
EndChar

StartChar: Scedilla
Encoding: 350 350 393
Width: 1044
Flags: HW
LayerCount: 2
Fore
SplineSet
498 -10 m 1,0,1
 522 -73.2727 522 -73.2727 522 -161.636 c 128,-1,2
 522 -250 522 -250 499.5 -307 c 128,-1,3
 477 -364 477 -364 438.5 -399 c 0,4,5
 367 -464 367 -464 244 -464 c 0,6,7
 178.8 -464 178.8 -464 141.4 -453 c 128,-1,8
 104 -442 104 -442 96 -436 c 1,9,-1
 121 -285 l 1,10,11
 147 -299 147 -299 185 -299 c 128,-1,12
 223 -299 223 -299 251.5 -292 c 128,-1,13
 280 -285 280 -285 302 -265 c 0,14,15
 351 -220.455 351 -220.455 351 -119 c 0,16,17
 351 -96 351 -96 351.5 -68.5 c 128,-1,18
 352 -41 352 -41 351 -15 c 1,19,20
 192.873 -6.52892 192.873 -6.52892 75.5 47.5 c 0,21,22
 44 62 44 62 29 75 c 1,23,-1
 84 235 l 1,24,25
 137.547 177.628 137.547 177.628 300.5 148 c 0,26,27
 350 139 350 139 403.5 139 c 128,-1,28
 457 139 457 139 514 151 c 128,-1,29
 571 163 571 163 615.5 190.5 c 0,30,31
 715 251.989 715 251.989 715 373 c 0,32,33
 715 461.706 715 461.706 679 515.353 c 0,34,35
 617.529 606.956 617.529 606.956 498 686 c 0,36,37
 353.384 782.411 353.384 782.411 296.692 851.205 c 0,38,39
 182.89 989.302 182.89 989.302 182.89 1147.57 c 0,40,41
 182.89 1329.17 182.89 1329.17 312 1438.5 c 0,42,43
 438.952 1546 438.952 1546 648 1546 c 0,44,45
 875.643 1546 875.643 1546 991 1461 c 1,46,-1
 928 1310 l 1,47,48
 843 1395 843 1395 661 1395 c 0,49,50
 548.8 1395 548.8 1395 493.9 1364.5 c 128,-1,51
 439 1334 439 1334 411.5 1293.5 c 0,52,53
 380.419 1247.73 380.419 1247.73 380.419 1184.01 c 128,-1,54
 380.419 1120.29 380.419 1120.29 391.71 1079.65 c 128,-1,55
 403 1039 403 1039 431.5 1000 c 0,56,57
 478.462 935.737 478.462 935.737 615 844 c 0,58,59
 754.76 749.979 754.76 749.979 809.88 685.99 c 0,60,61
 921.032 556.952 921.032 556.952 921.032 414.801 c 0,62,63
 921.032 138.097 921.032 138.097 670 33.5 c 0,64,65
 592 1 592 1 498 -10 c 1,0,1
EndSplineSet
Substitution2: "'locl' Localized Forms lookup 7 subtable" uni0218
Substitution2: "'locl' Localized Forms lookup 6 subtable" uni0218
Substitution2: "'aalt' Access All Alternates in Latin lookup 0 subtable" uni0218
EndChar

StartChar: uni0162
Encoding: 354 354 396
Width: 1122
Flags: HW
LayerCount: 2
Fore
SplineSet
378.5 -210 m 128,-1,1
 392 -175 392 -175 392 -94.25 c 128,-1,2
 392 -13.5 392 -13.5 391 0 c 1,3,-1
 381 0 l 1,4,-1
 556 1384 l 1,5,-1
 129 1373 l 1,6,-1
 151 1530 l 1,7,-1
 1195 1530 l 1,8,-1
 1174 1373 l 1,9,-1
 754 1384 l 1,10,-1
 579 0 l 1,11,-1
 535 0 l 1,12,13
 563 -62 563 -62 563 -156 c 128,-1,14
 563 -250 563 -250 540.5 -307 c 128,-1,15
 518 -364 518 -364 479.5 -399 c 0,16,17
 408 -464 408 -464 285 -464 c 0,18,19
 219.8 -464 219.8 -464 182.4 -453 c 128,-1,20
 145 -442 145 -442 137 -436 c 1,21,-1
 162 -285 l 1,22,23
 188 -299 188 -299 226 -299 c 128,-1,24
 264 -299 264 -299 292.5 -292 c 128,-1,25
 321 -285 321 -285 343 -265 c 128,-1,0
 365 -245 365 -245 378.5 -210 c 128,-1,1
EndSplineSet
Substitution2: "'locl' Localized Forms lookup 7 subtable" uni021A
Substitution2: "'aalt' Access All Alternates in Latin lookup 0 subtable" uni021A
EndChar

StartChar: uni0163
Encoding: 355 355 397
Width: 741
Flags: HW
LayerCount: 2
Fore
SplineSet
374 -13 m 1,0,1
 397 -73.6364 397 -73.6364 397 -161.818 c 128,-1,2
 397 -250 397 -250 374.5 -307 c 128,-1,3
 352 -364 352 -364 313.5 -399 c 0,4,5
 242 -464 242 -464 119 -464 c 0,6,7
 53.8 -464 53.8 -464 16.4 -453 c 128,-1,8
 -21 -442 -21 -442 -29 -436 c 1,9,-1
 -4 -285 l 1,10,11
 22 -299 22 -299 60 -299 c 128,-1,12
 98 -299 98 -299 126.5 -292 c 128,-1,13
 155 -285 155 -285 177 -265 c 0,14,15
 226 -220.455 226 -220.455 226 -119 c 0,16,17
 226 -91 226 -91 226.5 -54.5 c 128,-1,18
 227 -18 227 -18 225 9 c 1,19,20
 153 52.6364 153 52.6364 153 163 c 2,21,-1
 153 174.5 l 2,22,23
 153 204.8 153 204.8 165 296 c 2,24,-1
 249 984 l 1,25,-1
 133 984 l 1,26,-1
 175 1140 l 1,27,-1
 280 1140 l 1,28,-1
 342 1420 l 1,29,-1
 507 1420 l 1,30,-1
 471 1140 l 1,31,-1
 733 1140 l 1,32,-1
 710 984 l 1,33,-1
 449 984 l 1,34,-1
 373 394 l 1,35,-1
 360.5 307.5 l 2,36,37
 356 277.8 356 277.8 356 248 c 0,38,39
 356 139 356 139 412 139 c 0,40,41
 467.353 139 467.353 139 581 208 c 0,42,43
 609 225 609 225 625 237 c 1,44,-1
 650 129 l 1,45,46
 592.08 56.6 592.08 56.6 456 8 c 0,47,48
 414 -7 414 -7 374 -13 c 1,0,1
EndSplineSet
Substitution2: "'locl' Localized Forms lookup 7 subtable" uni021B
Substitution2: "'aalt' Access All Alternates in Latin lookup 0 subtable" uni021B
EndChar

StartChar: lacute
Encoding: 314 314 413
Width: 584
Flags: HW
LayerCount: 2
Fore
SplineSet
334 1522 m 1,0,-1
 529 1522 l 1,1,-1
 320 0 l 1,2,-1
 125 0 l 1,3,-1
 334 1522 l 1,0,-1
383 1658 m 1,4,-1
 659 2000 l 1,5,-1
 783 1872 l 1,6,7
 740.027 1793.53 740.027 1793.53 632.5 1704.5 c 0,8,9
 530.188 1619.79 530.188 1619.79 456 1593 c 1,10,-1
 383 1658 l 1,4,-1
EndSplineSet
EndChar

StartChar: iogonek
Encoding: 303 303 414
Width: 641
Flags: HW
LayerCount: 2
Fore
SplineSet
348 1423.5 m 0,0,1
 291.116 1482.16 291.116 1482.16 329.5 1562 c 0,2,3
 355.621 1616.33 355.621 1616.33 408 1639.5 c 0,4,5
 434 1651 434 1651 461.5 1651 c 128,-1,6
 489 1651 489 1651 512.5 1641.5 c 0,7,8
 583.111 1612.95 583.111 1612.95 583.111 1541.09 c 0,9,10
 583.111 1478.49 583.111 1478.49 536 1432.5 c 0,11,12
 490.415 1388 490.415 1388 448.707 1388 c 0,13,14
 382.424 1388 382.424 1388 348 1423.5 c 0,0,1
340 -341 m 1,15,16
 232.571 -435 232.571 -435 95 -435 c 0,17,18
 0 -435 0 -435 -53 -382 c 0,19,20
 -98 -337 -98 -337 -98 -283 c 128,-1,21
 -98 -229 -98 -229 -70.5 -185.5 c 128,-1,22
 -43 -142 -43 -142 -4.5 -106.5 c 128,-1,23
 34 -71 34 -71 76 -44.5 c 2,24,-1
 147 0 l 1,25,-1
 146 0 l 1,26,-1
 301 1140 l 1,27,-1
 496 1140 l 1,28,-1
 341 0 l 1,29,-1
 303 0 l 1,30,-1
 239 -47 l 1,31,32
 96 -154.25 96 -154.25 96 -221 c 0,33,34
 96 -257.25 96 -257.25 112.5 -269.625 c 0,35,36
 135.667 -287 135.667 -287 159 -287 c 0,37,38
 223.828 -287 223.828 -287 289 -242 c 1,39,-1
 340 -341 l 1,15,16
EndSplineSet
EndChar

StartChar: uogonek
Encoding: 371 371 415
Width: 1182
Flags: HW
LayerCount: 2
Fore
SplineSet
940 -341 m 1,0,1
 832.571 -435 832.571 -435 695 -435 c 0,2,3
 600 -435 600 -435 547 -382 c 0,4,5
 502 -337 502 -337 502 -283 c 128,-1,6
 502 -229 502 -229 529.5 -185.5 c 128,-1,7
 557 -142 557 -142 595.5 -106.5 c 128,-1,8
 634 -71 634 -71 676 -44.5 c 2,9,-1
 747 0 l 1,10,-1
 750 2 l 1,11,-1
 771 218 l 1,12,13
 644.513 51.5701 644.513 51.5701 481 -1.5 c 0,14,15
 424 -20 424 -20 364 -20 c 0,16,17
 232 -20 232 -20 167 47 c 128,-1,18
 102 114 102 114 102 270 c 0,19,20
 102 336.3 102 336.3 117 450.65 c 0,21,22
 172.012 859.884 172.012 859.884 186.506 958.442 c 2,23,-1
 213 1140 l 1,24,-1
 409 1140 l 1,25,26
 398 1056 398 1056 385.5 970 c 2,27,-1
 339 641.5 l 2,28,29
 301 373.773 301 373.773 301 307.886 c 128,-1,30
 301 242 301 242 309.5 216.5 c 128,-1,31
 318 191 318 191 335 176.5 c 0,32,33
 364.897 151 364.897 151 421.948 151 c 128,-1,34
 479 151 479 151 526.5 172.5 c 128,-1,35
 574 194 574 194 621 230 c 0,36,37
 719.049 305.101 719.049 305.101 791 412 c 1,38,-1
 888 1140 l 1,39,-1
 1083 1140 l 1,40,-1
 932 0 l 1,41,-1
 903 0 l 1,42,-1
 839 -47 l 1,43,44
 696 -154.25 696 -154.25 696 -221 c 0,45,46
 696 -257.25 696 -257.25 712.5 -269.625 c 0,47,48
 735.667 -287 735.667 -287 759 -287 c 0,49,50
 823.828 -287 823.828 -287 889 -242 c 1,51,-1
 940 -341 l 1,0,1
EndSplineSet
EndChar

StartChar: Dcroat
Encoding: 272 272 416
Width: 1377
Flags: HW
LayerCount: 2
Fore
SplineSet
411 1530 m 1,0,-1
 721 1546 l 1,1,2
 1012.87 1546 1012.87 1546 1159.5 1373 c 0,3,4
 1298.16 1209.4 1298.16 1209.4 1298.16 901.356 c 0,5,6
 1298.16 509.442 1298.16 509.442 1090 250 c 0,7,8
 949.671 75.0975 949.671 75.0975 743 12.5 c 0,9,10
 648.043 -16.2609 648.043 -16.2609 542.25 -16.2609 c 0,11,12
 514.783 -16.2609 514.783 -16.2609 498.391 -15.1304 c 2,13,-1
 436 -11 l 2,14,15
 421 -10 421 -10 407.5 -9 c 2,16,-1
 372.5 -6.5 l 2,17,18
 279.333 -4.52871e-07 279.333 -4.52871e-07 233 0 c 2,19,-1
 110 0 l 1,20,-1
 201 722 l 1,21,-1
 42 722 l 1,22,-1
 58 852 l 1,23,-1
 217 852 l 1,24,-1
 303 1530 l 1,25,-1
 411 1530 l 1,0,-1
328 163 m 1,26,27
 418.16 133.6 418.16 133.6 538.78 133.6 c 0,28,29
 822.011 133.6 822.011 133.6 971 390 c 0,30,31
 1093.07 600.081 1093.07 600.081 1093.07 892.661 c 0,32,33
 1093.07 1174.92 1093.07 1174.92 989 1291 c 0,34,35
 891.276 1400 891.276 1400 662 1400 c 0,36,37
 553.25 1400 553.25 1400 482 1381 c 1,38,-1
 415 852 l 1,39,-1
 797 852 l 1,40,-1
 781 722 l 1,41,-1
 399 722 l 1,42,-1
 328 163 l 1,26,27
EndSplineSet
EndChar

StartChar: Iogonek
Encoding: 302 302 417
Width: 580
Flags: HW
LayerCount: 2
Fore
SplineSet
320 -341 m 1,0,1
 212.571 -435 212.571 -435 75 -435 c 0,2,3
 -20 -435 -20 -435 -73 -382 c 0,4,5
 -118 -337 -118 -337 -118 -283 c 128,-1,6
 -118 -229 -118 -229 -90.5 -185.5 c 128,-1,7
 -63 -142 -63 -142 -24.5 -106.5 c 128,-1,8
 14 -71 14 -71 56 -44.5 c 2,9,-1
 127 0 l 1,10,-1
 320 1530 l 1,11,-1
 518 1530 l 1,12,-1
 325 0 l 1,13,-1
 283 0 l 1,14,-1
 219 -47 l 1,15,16
 76 -154.25 76 -154.25 76 -221 c 0,17,18
 76 -257.25 76 -257.25 92.5 -269.625 c 0,19,20
 115.667 -287 115.667 -287 139 -287 c 0,21,22
 203.828 -287 203.828 -287 269 -242 c 1,23,-1
 320 -341 l 1,0,1
EndSplineSet
EndChar

StartChar: Uogonek
Encoding: 370 370 418
Width: 1363
Flags: HW
LayerCount: 2
Fore
SplineSet
686 -12 m 1,0,1
 646 -16 646 -16 568 -16 c 128,-1,2
 490 -16 490 -16 405.5 14.5 c 128,-1,3
 321 45 321 45 264 102.5 c 0,4,5
 145.818 221.719 145.818 221.719 145.818 442.231 c 0,6,7
 145.818 474.364 145.818 474.364 149.909 511.182 c 2,8,-1
 277 1530 l 1,9,-1
 475 1530 l 1,10,-1
 361 628 l 1,11,12
 348.778 515.963 348.778 515.963 348.778 455.309 c 0,13,14
 348.778 145 348.778 145 630 145 c 0,15,16
 795 145 795 145 887 260 c 0,17,18
 983.603 380.754 983.603 380.754 1017 644 c 2,19,-1
 1129 1530 l 1,20,-1
 1322 1530 l 1,21,-1
 1208 627 l 1,22,23
 1158.57 246.099 1158.57 246.099 976 97 c 0,24,25
 916 48 916 48 841 21 c 1,26,-1
 775 -47 l 1,27,28
 655 -174.273 655 -174.273 655 -221 c 0,29,30
 655 -257.25 655 -257.25 671.5 -269.625 c 0,31,32
 694.667 -287 694.667 -287 718 -287 c 0,33,34
 782.828 -287 782.828 -287 848 -242 c 1,35,-1
 899 -341 l 1,36,37
 791.571 -435 791.571 -435 654 -435 c 0,38,39
 559 -435 559 -435 506 -382 c 0,40,41
 461 -337 461 -337 461 -281 c 0,42,43
 461 -149.903 461 -149.903 686 -12 c 1,0,1
EndSplineSet
EndChar

StartChar: Hbar
Encoding: 294 294 419
Width: 1410
Flags: HW
LayerCount: 2
Fore
SplineSet
236 998 m 1,0,-1
 52 998 l 1,1,-1
 66 1148 l 1,2,-1
 255 1148 l 1,3,-1
 303 1530 l 1,4,-1
 501 1530 l 1,5,-1
 453 1148 l 1,6,-1
 1106 1148 l 1,7,-1
 1154 1530 l 1,8,-1
 1352 1530 l 1,9,-1
 1304 1148 l 1,10,-1
 1515 1148 l 1,11,-1
 1501 998 l 1,12,-1
 1285 998 l 1,13,-1
 1159 0 l 1,14,-1
 961 0 l 1,15,-1
 1035 592 l 1,16,-1
 382 592 l 1,17,-1
 308 0 l 1,18,-1
 110 0 l 1,19,-1
 236 998 l 1,0,-1
1054 742 m 1,20,-1
 1087 998 l 1,21,-1
 434 998 l 1,22,-1
 401 742 l 1,23,-1
 1054 742 l 1,20,-1
EndSplineSet
EndChar

StartChar: Tbar
Encoding: 358 358 422
Width: 1122
Flags: HW
LayerCount: 2
Fore
SplineSet
472 722 m 1,0,-1
 203 722 l 1,1,-1
 219 852 l 1,2,-1
 489 852 l 1,3,-1
 556 1384 l 1,4,-1
 129 1373 l 1,5,-1
 151 1530 l 1,6,-1
 1195 1530 l 1,7,-1
 1174 1373 l 1,8,-1
 754 1384 l 1,9,-1
 687 852 l 1,10,-1
 958 852 l 1,11,-1
 942 722 l 1,12,-1
 670 722 l 1,13,-1
 579 0 l 1,14,-1
 381 0 l 1,15,-1
 472 722 l 1,0,-1
EndSplineSet
EndChar

StartChar: tbar
Encoding: 359 359 423
Width: 741
Flags: HW
LayerCount: 2
Fore
SplineSet
336 -16 m 0,0,1
 153 -16 153 -16 153 163 c 2,2,-1
 153 174.5 l 2,3,4
 153 204.8 153 204.8 165 296 c 1,5,-1
 204 621 l 1,6,-1
 82 621 l 1,7,-1
 98 751 l 1,8,-1
 220 751 l 1,9,-1
 249 984 l 1,10,-1
 133 984 l 1,11,-1
 175 1140 l 1,12,-1
 280 1140 l 1,13,-1
 342 1420 l 1,14,-1
 507 1420 l 1,15,-1
 471 1140 l 1,16,-1
 733 1140 l 1,17,-1
 710 984 l 1,18,-1
 449 984 l 1,19,-1
 419 751 l 1,20,-1
 680 751 l 1,21,-1
 664 621 l 1,22,-1
 402 621 l 1,23,-1
 373 394 l 1,24,25
 360.5 307.5 l 2,26,27
 356 277.8 356 277.8 356 248 c 0,28,29
 356 139 356 139 412 139 c 0,30,31
 467.353 139 467.353 139 581 208 c 0,32,33
 609 225 609 225 625 237 c 1,34,-1
 650 129 l 1,35,36
 582.42 46.4018 582.42 46.4018 425.5 -1.5 c 0,37,38
 378 -16 378 -16 336 -16 c 0,0,1
EndSplineSet
EndChar

StartChar: dcroat
Encoding: 273 273 425
Width: 1161
Flags: HW
LayerCount: 2
Fore
SplineSet
522.5 1123 m 0,0,1
 614 1156 614 1156 703.429 1156 c 128,-1,2
 792.857 1156 792.857 1156 870 1141 c 1,3,-1
 886 1262 l 1,4,-1
 628 1262 l 1,5,-1
 644 1392 l 1,6,-1
 904 1392 l 1,7,-1
 938 1638 l 1,8,-1
 1133 1638 l 1,9,-1
 1100 1392 l 1,10,-1
 1226 1392 l 1,11,-1
 1210 1262 l 1,12,-1
 1082 1262 l 1,13,-1
 912 0 l 1,14,-1
 738 0 l 1,15,-1
 754 194 l 1,16,17
 647.843 51.2368 647.843 51.2368 501.5 2 c 0,18,19
 448 -16 448 -16 378.5 -16 c 128,-1,20
 309 -16 309 -16 251 15 c 128,-1,21
 193 46 193 46 154.5 102.5 c 0,22,23
 79 213.299 79 213.299 79 416 c 0,24,25
 79 685.623 79 685.623 234 903.5 c 0,26,27
 344.479 1058.8 344.479 1058.8 522.5 1123 c 0,0,1
281 440 m 0,28,29
 281 136 281 136 424 136 c 0,30,31
 520 136 520 136 625 223.5 c 0,32,33
 704.239 289.532 704.239 289.532 768 389 c 1,34,-1
 850 988 l 1,35,36
 775 1013 775 1013 700 1013 c 128,-1,37
 625 1013 625 1013 566 987 c 128,-1,38
 507 961 507 961 461 917 c 128,-1,39
 415 873 415 873 381 815.5 c 128,-1,40
 347 758 347 758 325 694 c 0,41,42
 281 566 281 566 281 440 c 0,28,29
EndSplineSet
EndChar

StartChar: hbar
Encoding: 295 295 426
Width: 1198
Flags: HW
LayerCount: 2
Fore
SplineSet
248 1262 m 1,0,-1
 132 1262 l 1,1,-1
 148 1392 l 1,2,-1
 265 1392 l 1,3,-1
 296 1638 l 1,4,-1
 491 1638 l 1,5,-1
 464 1392 l 1,6,-1
 730 1392 l 1,7,-1
 714 1262 l 1,8,-1
 450 1262 l 1,9,-1
 439 1159 l 1,10,-1
 399 909 l 1,11,12
 542.399 1079.08 542.399 1079.08 723.5 1136.5 c 0,13,14
 785 1156 785 1156 847 1156 c 0,15,16
 958 1156 958 1156 1013.5 1089 c 128,-1,17
 1069 1022 1069 1022 1069 866 c 0,18,19
 1069 797.353 1069 797.353 1045 626.676 c 0,20,21
 987.128 228.478 987.128 228.478 974.064 145.739 c 128,-1,22
 961 63 961 63 952 0 c 1,23,-1
 756 0 l 1,24,25
 773 130 773 130 793.5 263 c 2,26,-1
 831 514 l 2,27,28
 870 770.941 870 770.941 870 832.471 c 128,-1,29
 870 894 870 894 862.5 917.5 c 128,-1,30
 855 941 855 941 841.5 954 c 0,31,32
 819.692 975 819.692 975 771.346 975 c 128,-1,33
 723 975 723 975 672.5 954 c 128,-1,34
 622 933 622 933 570.5 897.5 c 0,35,36
 460.036 821.355 460.036 821.355 381 718 c 1,37,-1
 283 0 l 1,38,-1
 88 0 l 1,39,-1
 248 1262 l 1,0,-1
EndSplineSet
EndChar

StartChar: eng
Encoding: 331 331 427
Width: 1194
Flags: HW
LayerCount: 2
Fore
SplineSet
391 -400 m 1,0,1
 419 -412 419 -412 476.5 -412 c 128,-1,2
 534 -412 534 -412 585 -371 c 128,-1,3
 636 -330 636 -330 670.5 -263 c 0,4,5
 729.932 -147.582 729.932 -147.582 756.466 21.709 c 2,6,-1
 802 310.5 l 2,7,8
 867 719.316 867 719.316 867 854 c 0,9,10
 867 958.385 867 958.385 805.5 971 c 0,11,12
 786 975 786 975 753 975 c 128,-1,13
 720 975 720 975 668.5 953 c 128,-1,14
 617 931 617 931 565 894.5 c 0,15,16
 453.873 816.497 453.873 816.497 374 710 c 1,17,-1
 278 0 l 1,18,-1
 83 0 l 1,19,-1
 238 1140 l 1,20,-1
 423 1140 l 1,21,-1
 402 912 l 1,22,23
 544.6 1081.13 544.6 1081.13 722.5 1137 c 0,24,25
 783 1156 783 1156 844 1156 c 0,26,27
 955 1156 955 1156 1010.5 1089 c 128,-1,28
 1066 1022 1066 1022 1066 866 c 0,29,30
 1066 784 1066 784 1041 609 c 1,31,-1
 950 0 l 2,32,33
 911.357 -255.042 911.357 -255.042 788.5 -390.5 c 0,34,35
 672.86 -518 672.86 -518 496 -518 c 0,36,37
 390.944 -518 390.944 -518 356 -481 c 1,38,-1
 391 -400 l 1,0,1
EndSplineSet
EndChar

StartChar: Eng
Encoding: 330 330 428
Width: 1516
Flags: HW
LayerCount: 2
Fore
SplineSet
303 1530 m 1,0,-1
 509 1530 l 1,1,-1
 949 468 l 1,2,-1
 1012 261 l 1,3,-1
 1031 510 l 1,4,-1
 1154 1530 l 1,5,-1
 1342 1530 l 1,6,-1
 1149 0 l 1,7,-1
 1145 0 l 1,8,9
 1058.7 -203.232 1058.7 -203.232 842.5 -278.5 c 0,10,11
 775 -302 775 -302 700 -315 c 1,12,-1
 665 -227 l 1,13,14
 812.275 -179.872 812.275 -179.872 901 -55 c 0,15,16
 928 -17 928 -17 946 24 c 1,17,-1
 501 1075 l 1,18,-1
 448 1307 l 1,19,-1
 421 1009 l 1,20,-1
 295 0 l 1,21,-1
 110 0 l 1,22,-1
 303 1530 l 1,0,-1
EndSplineSet
EndChar

StartChar: Aring
Encoding: 197 197 431
Width: 1265
Flags: HW
LayerCount: 2
Fore
SplineSet
649 1488 m 1,0,1
 494 1543.8 494 1543.8 494 1725 c 0,2,3
 494 1855.16 494 1855.16 607 1932 c 0,4,5
 707 2000 707 2000 841 2000 c 0,6,7
 967.882 2000 967.882 2000 1042 1930 c 0,8,9
 1117 1859.17 1117 1859.17 1117 1735 c 0,10,11
 1117 1584.45 1117 1584.45 985 1513.5 c 0,12,13
 945 1492 945 1492 898 1480 c 1,14,-1
 1175 0 l 1,15,-1
 977 0 l 1,16,-1
 911 396 l 1,17,-1
 317 396 l 1,18,-1
 135 0 l 1,19,-1
 -76 0 l 1,20,-1
 649 1488 l 1,0,1
725 1584.5 m 128,-1,22
 753 1573 753 1573 788.5 1573 c 128,-1,23
 824 1573 824 1573 858.5 1580.5 c 128,-1,24
 893 1588 893 1588 919 1607.5 c 0,25,26
 975 1649.5 975 1649.5 975 1752 c 0,27,28
 975 1847.71 975 1847.71 886.5 1881.5 c 0,29,30
 859 1892 859 1892 825 1892 c 256,31,32
 696.731 1892 696.731 1892 650.5 1803.5 c 0,33,34
 633 1770 633 1770 633 1729.5 c 128,-1,35
 633 1689 633 1689 644.5 1662.5 c 128,-1,36
 656 1636 656 1636 676.5 1616 c 128,-1,21
 697 1596 697 1596 725 1584.5 c 128,-1,22
885 547 m 1,37,-1
 770 1236 l 1,38,-1
 757 1352 l 1,39,-1
 386 547 l 1,40,-1
 885 547 l 1,37,-1
EndSplineSet
EndChar

StartChar: uni02c9
Encoding: 713 713 440
Width: 614
Flags: HW
LayerCount: 2
Fore
SplineSet
53 1878 m 1,0,-1
 563 1878 l 1,1,-1
 558 1729 l 1,2,-1
 49 1729 l 1,3,-1
 53 1878 l 1,0,-1
EndSplineSet
EndChar

StartChar: uni2113
Encoding: 8467 8467 441
Width: 1214
Flags: HW
LayerCount: 2
Fore
SplineSet
600 -16 m 0,0,1
 444.5 -16 444.5 -16 363 147 c 1,2,-1
 288.5 83.5 l 2,3,4
 251 52 251 52 212 23 c 1,5,-1
 86 131 l 1,6,7
 239.437 259.087 239.437 259.087 307 324 c 1,8,9
 293 410 293 410 293 529.5 c 128,-1,10
 293 649 293 649 313.5 788.5 c 128,-1,11
 334 928 334 928 372.5 1058 c 128,-1,12
 411 1188 411 1188 465 1301.5 c 128,-1,13
 519 1415 519 1415 585.5 1499 c 0,14,15
 728.792 1680 728.792 1680 892 1680 c 0,16,17
 975.933 1680 975.933 1680 1025 1616 c 0,18,19
 1072 1554.7 1072 1554.7 1072 1429.35 c 128,-1,20
 1072 1304 1072 1304 1030 1149.5 c 128,-1,21
 988 995 988 995 912 843.5 c 0,22,23
 761.677 543.842 761.677 543.842 493 271 c 1,24,25
 535 145 535 145 621 145 c 0,26,27
 707.548 145 707.548 145 774 218.5 c 0,28,29
 846.572 298.769 846.572 298.769 858 434 c 1,30,-1
 1020 409 l 1,31,32
 962.781 119.33 962.781 119.33 765.5 20 c 0,33,34
 694 -16 694 -16 600 -16 c 0,0,1
463 484 m 1,35,36
 904 974.439 904 974.439 904 1419 c 0,37,38
 904 1452 904 1452 886.5 1477.5 c 128,-1,39
 869 1503 869 1503 831 1503 c 128,-1,40
 793 1503 793 1503 747 1459 c 128,-1,41
 701 1415 701 1415 659 1340 c 128,-1,42
 617 1265 617 1265 581 1166 c 128,-1,43
 545 1067 545 1067 519 957 c 0,44,45
 463 720.077 463 720.077 463 514 c 2,46,-1
 463 484 l 1,35,36
EndSplineSet
EndChar

StartChar: uni2215
Encoding: 8725 8725 442
Width: 854
Flags: HW
LayerCount: 2
Fore
SplineSet
-93 -362 m 1,0,-1
 768 1597 l 1,1,-1
 942 1597 l 1,2,-1
 79 -362 l 1,3,-1
 -93 -362 l 1,0,-1
EndSplineSet
EndChar

StartChar: hyphen
Encoding: 45 45 447
Width: 1266
Flags: HW
LayerCount: 2
Fore
SplineSet
236 851 m 1,0,-1
 1073 851 l 1,1,-1
 1055 693 l 1,2,-1
 218 693 l 1,3,-1
 236 851 l 1,0,-1
EndSplineSet
EndChar

StartChar: minus
Encoding: 8722 8722 448
Width: 1266
Flags: HW
LayerCount: 2
Fore
SplineSet
236 851 m 1,0,-1
 1073 851 l 1,1,-1
 1055 693 l 1,2,-1
 218 693 l 1,3,-1
 236 851 l 1,0,-1
EndSplineSet
EndChar

